STARTFONT 2.1
COMMENT "Generated by fontforge, http://fontforge.sourceforge.net"
FONT -ibm-vio-medium-r-normal--18-130-120-120-c-80-ISO10646-1
SIZE 13 120 120
FONTBOUNDINGBOX 8 18 0 -4
STARTPROPERTIES 24
FOUNDRY "ibm"
FAMILYNAME "vio"
WEIGHT_NAME "medium"
SLANT "R"
SETWIDTH_NAME "Normal"
ADD_STYLE_NAME ""
PIXEL_SIZE 18
POINT_SIZE 130
RESOLUTION_X 120
RESOLUTION_Y 120
SPACING "C"
AVERAGE_WIDTH 8
CHARSET_REGISTRY "ISO10646"
CHARSET_ENCODING "1"
STRIKEOUT_ACCENT "6"
FACE_NAME "System VIO"
COPYRIGHT "IBM"
WEIGHT 10
X_HEIGHT 14
QUAD_WIDTH 8
DEFAULT_CHAR 32
FONT_DESCENT 4
FONT_ASCENT 14
_XMBDFED_INFO "Edited with xmbdfed 4.7."
ENDPROPERTIES
CHARS 897
STARTCHAR uni0001
ENCODING 1
SWIDTH 369 0
DWIDTH 8 0
BBX 8 18 0 -4
BITMAP
00
00
00
1C
22
41
55
41
41
63
5D
41
22
1C
00
00
00
00
ENDCHAR
STARTCHAR uni0002
ENCODING 2
SWIDTH 369 0
DWIDTH 8 0
BBX 8 18 0 -4
BITMAP
00
00
00
1C
3E
7F
6B
7F
7F
5D
63
7F
3E
1C
00
00
00
00
ENDCHAR
STARTCHAR uni0003
ENCODING 3
SWIDTH 369 0
DWIDTH 8 0
BBX 8 18 0 -4
BITMAP
00
00
00
00
00
00
00
36
7F
7F
7F
3E
1C
08
00
00
00
00
ENDCHAR
STARTCHAR uni0004
ENCODING 4
SWIDTH 369 0
DWIDTH 8 0
BBX 8 18 0 -4
BITMAP
00
00
00
00
00
00
08
1C
3E
7F
7F
3E
1C
08
00
00
00
00
ENDCHAR
STARTCHAR uni0005
ENCODING 5
SWIDTH 369 0
DWIDTH 8 0
BBX 8 18 0 -4
BITMAP
00
00
00
00
00
1C
1C
1C
77
77
77
08
08
1C
00
00
00
00
ENDCHAR
STARTCHAR uni0006
ENCODING 6
SWIDTH 369 0
DWIDTH 8 0
BBX 8 18 0 -4
BITMAP
00
00
00
00
00
08
1C
3E
7F
7F
7F
2A
08
1C
00
00
00
00
ENDCHAR
STARTCHAR uni0007
ENCODING 7
SWIDTH 369 0
DWIDTH 8 0
BBX 8 18 0 -4
BITMAP
00
00
00
00
00
00
00
18
3C
3C
18
00
00
00
00
00
00
00
ENDCHAR
STARTCHAR uni0008
ENCODING 8
SWIDTH 369 0
DWIDTH 8 0
BBX 8 18 0 -4
BITMAP
FF
FF
FF
FF
FF
FF
FF
E7
C3
C3
E7
FF
FF
FF
FF
FF
FF
FF
ENDCHAR
STARTCHAR uni0009
ENCODING 9
SWIDTH 369 0
DWIDTH 8 0
BBX 8 18 0 -4
BITMAP
00
00
00
00
00
00
18
24
42
42
24
18
00
00
00
00
00
00
ENDCHAR
STARTCHAR uni000A
ENCODING 10
SWIDTH 369 0
DWIDTH 8 0
BBX 8 18 0 -4
BITMAP
FF
FF
FF
FF
FF
FF
E7
DB
BD
BD
DB
E7
FF
FF
FF
FF
FF
FF
ENDCHAR
STARTCHAR uni000B
ENCODING 11
SWIDTH 369 0
DWIDTH 8 0
BBX 8 18 0 -4
BITMAP
00
00
00
1F
07
0D
19
18
3C
66
66
66
66
3C
00
00
00
00
ENDCHAR
STARTCHAR uni000C
ENCODING 12
SWIDTH 369 0
DWIDTH 8 0
BBX 8 18 0 -4
BITMAP
00
00
00
3C
66
66
66
66
3C
18
18
7E
18
18
00
00
00
00
ENDCHAR
STARTCHAR uni000D
ENCODING 13
SWIDTH 369 0
DWIDTH 8 0
BBX 8 18 0 -4
BITMAP
00
00
08
0C
0E
0B
08
08
08
08
18
38
38
30
00
00
00
00
ENDCHAR
STARTCHAR uni000E
ENCODING 14
SWIDTH 369 0
DWIDTH 8 0
BBX 8 18 0 -4
BITMAP
00
00
00
1F
1F
11
11
11
11
11
11
33
77
66
00
00
00
00
ENDCHAR
STARTCHAR uni000F
ENCODING 15
SWIDTH 369 0
DWIDTH 8 0
BBX 8 18 0 -4
BITMAP
00
00
00
00
08
49
3E
22
63
22
3E
49
08
00
00
00
00
00
ENDCHAR
STARTCHAR uni0010
ENCODING 16
SWIDTH 369 0
DWIDTH 8 0
BBX 8 18 0 -4
BITMAP
00
00
00
00
20
30
38
3C
3E
3C
38
30
20
00
00
00
00
00
ENDCHAR
STARTCHAR uni0011
ENCODING 17
SWIDTH 369 0
DWIDTH 8 0
BBX 8 18 0 -4
BITMAP
00
00
00
00
04
0C
1C
3C
7C
3C
1C
0C
04
00
00
00
00
00
ENDCHAR
STARTCHAR uni0012
ENCODING 18
SWIDTH 369 0
DWIDTH 8 0
BBX 8 18 0 -4
BITMAP
00
00
00
08
1C
3E
08
08
08
08
08
3E
1C
08
00
00
00
00
ENDCHAR
STARTCHAR uni0013
ENCODING 19
SWIDTH 369 0
DWIDTH 8 0
BBX 8 18 0 -4
BITMAP
00
00
00
66
66
66
66
66
66
66
66
00
66
66
00
00
00
00
ENDCHAR
STARTCHAR uni0014
ENCODING 20
SWIDTH 369 0
DWIDTH 8 0
BBX 8 18 0 -4
BITMAP
00
00
00
3F
79
79
79
79
39
09
09
09
09
09
00
00
00
00
ENDCHAR
STARTCHAR uni0015
ENCODING 21
SWIDTH 369 0
DWIDTH 8 0
BBX 8 18 0 -4
BITMAP
00
00
3E
63
60
70
3C
66
63
63
33
1E
06
03
63
3E
00
00
ENDCHAR
STARTCHAR uni0016
ENCODING 22
SWIDTH 369 0
DWIDTH 8 0
BBX 8 18 0 -4
BITMAP
00
00
00
00
00
00
00
7F
7F
7F
7F
00
00
00
00
00
00
00
ENDCHAR
STARTCHAR uni0017
ENCODING 23
SWIDTH 369 0
DWIDTH 8 0
BBX 8 18 0 -4
BITMAP
00
00
00
08
1C
3E
08
08
08
08
08
3E
1C
08
3E
00
00
00
ENDCHAR
STARTCHAR uni0018
ENCODING 24
SWIDTH 369 0
DWIDTH 8 0
BBX 8 18 0 -4
BITMAP
00
00
00
08
1C
3E
08
08
08
08
08
08
08
08
00
00
00
00
ENDCHAR
STARTCHAR uni0019
ENCODING 25
SWIDTH 369 0
DWIDTH 8 0
BBX 8 18 0 -4
BITMAP
00
00
00
08
08
08
08
08
08
08
08
3E
1C
08
00
00
00
00
ENDCHAR
STARTCHAR uni001A
ENCODING 26
SWIDTH 369 0
DWIDTH 8 0
BBX 8 18 0 -4
BITMAP
00
00
00
00
00
00
04
06
7F
06
04
00
00
00
00
00
00
00
ENDCHAR
STARTCHAR uni001B
ENCODING 27
SWIDTH 369 0
DWIDTH 8 0
BBX 8 18 0 -4
BITMAP
00
00
00
00
00
00
10
30
7F
30
10
00
00
00
00
00
00
00
ENDCHAR
STARTCHAR uni001C
ENCODING 28
SWIDTH 369 0
DWIDTH 8 0
BBX 8 18 0 -4
BITMAP
00
00
00
00
00
00
60
60
60
60
60
7F
00
00
00
00
00
00
ENDCHAR
STARTCHAR uni001D
ENCODING 29
SWIDTH 369 0
DWIDTH 8 0
BBX 8 18 0 -4
BITMAP
00
00
00
00
00
00
24
66
FF
66
24
00
00
00
00
00
00
00
ENDCHAR
STARTCHAR uni001E
ENCODING 30
SWIDTH 369 0
DWIDTH 8 0
BBX 8 18 0 -4
BITMAP
00
00
00
00
08
1C
1C
3E
3E
7F
7F
00
00
00
00
00
00
00
ENDCHAR
STARTCHAR uni001F
ENCODING 31
SWIDTH 369 0
DWIDTH 8 0
BBX 8 18 0 -4
BITMAP
00
00
00
00
7F
7F
3E
3E
1C
1C
08
00
00
00
00
00
00
00
ENDCHAR
STARTCHAR space
ENCODING 32
SWIDTH 369 0
DWIDTH 8 0
BBX 8 18 0 -4
BITMAP
00
00
00
00
00
00
00
00
00
00
00
00
00
00
00
00
00
00
ENDCHAR
STARTCHAR exclam
ENCODING 33
SWIDTH 369 0
DWIDTH 8 0
BBX 8 18 0 -4
BITMAP
00
00
00
18
18
18
18
18
18
18
18
00
18
18
00
00
00
00
ENDCHAR
STARTCHAR quotedbl
ENCODING 34
SWIDTH 369 0
DWIDTH 8 0
BBX 8 18 0 -4
BITMAP
00
00
66
66
24
00
00
00
00
00
00
00
00
00
00
00
00
00
ENDCHAR
STARTCHAR numbersign
ENCODING 35
SWIDTH 369 0
DWIDTH 8 0
BBX 8 18 0 -4
BITMAP
00
00
00
36
36
36
7F
36
36
36
7F
36
36
36
00
00
00
00
ENDCHAR
STARTCHAR dollar
ENCODING 36
SWIDTH 369 0
DWIDTH 8 0
BBX 8 18 0 -4
BITMAP
00
00
08
08
3E
6B
63
60
38
0E
03
63
6B
3E
08
08
00
00
ENDCHAR
STARTCHAR percent
ENCODING 37
SWIDTH 369 0
DWIDTH 8 0
BBX 8 18 0 -4
BITMAP
00
00
00
00
30
79
33
06
0C
18
30
66
4F
06
00
00
00
00
ENDCHAR
STARTCHAR ampersand
ENCODING 38
SWIDTH 369 0
DWIDTH 8 0
BBX 8 18 0 -4
BITMAP
00
00
00
1C
36
36
36
1C
38
6D
66
66
66
3B
00
00
00
00
ENDCHAR
STARTCHAR quotesingle
ENCODING 39
SWIDTH 369 0
DWIDTH 8 0
BBX 8 18 0 -4
BITMAP
00
00
18
18
08
10
00
00
00
00
00
00
00
00
00
00
00
00
ENDCHAR
STARTCHAR parenleft
ENCODING 40
SWIDTH 369 0
DWIDTH 8 0
BBX 8 18 0 -4
BITMAP
00
0C
18
18
18
30
30
30
30
30
30
30
18
18
18
0C
00
00
ENDCHAR
STARTCHAR parenright
ENCODING 41
SWIDTH 369 0
DWIDTH 8 0
BBX 8 18 0 -4
BITMAP
00
30
18
18
18
0C
0C
0C
0C
0C
0C
0C
18
18
18
30
00
00
ENDCHAR
STARTCHAR asterisk
ENCODING 42
SWIDTH 369 0
DWIDTH 8 0
BBX 8 18 0 -4
BITMAP
00
00
00
00
00
08
2A
1C
7F
1C
2A
08
00
00
00
00
00
00
ENDCHAR
STARTCHAR plus
ENCODING 43
SWIDTH 369 0
DWIDTH 8 0
BBX 8 18 0 -4
BITMAP
00
00
00
00
00
00
18
18
7E
18
18
00
00
00
00
00
00
00
ENDCHAR
STARTCHAR comma
ENCODING 44
SWIDTH 369 0
DWIDTH 8 0
BBX 8 18 0 -4
BITMAP
00
00
00
00
00
00
00
00
00
00
00
00
18
18
08
10
00
00
ENDCHAR
STARTCHAR hyphen
ENCODING 45
SWIDTH 369 0
DWIDTH 8 0
BBX 8 18 0 -4
BITMAP
00
00
00
00
00
00
00
00
7E
00
00
00
00
00
00
00
00
00
ENDCHAR
STARTCHAR period
ENCODING 46
SWIDTH 369 0
DWIDTH 8 0
BBX 8 18 0 -4
BITMAP
00
00
00
00
00
00
00
00
00
00
00
00
18
18
00
00
00
00
ENDCHAR
STARTCHAR slash
ENCODING 47
SWIDTH 369 0
DWIDTH 8 0
BBX 8 18 0 -4
BITMAP
00
00
03
03
06
06
0C
0C
18
18
30
30
60
60
00
00
00
00
ENDCHAR
STARTCHAR zero
ENCODING 48
SWIDTH 369 0
DWIDTH 8 0
BBX 8 18 0 -4
BITMAP
00
00
00
3E
63
63
63
6B
6B
6B
63
63
63
3E
00
00
00
00
ENDCHAR
STARTCHAR one
ENCODING 49
SWIDTH 369 0
DWIDTH 8 0
BBX 8 18 0 -4
BITMAP
00
00
00
18
18
78
18
18
18
18
18
18
18
7E
00
00
00
00
ENDCHAR
STARTCHAR two
ENCODING 50
SWIDTH 369 0
DWIDTH 8 0
BBX 8 18 0 -4
BITMAP
00
00
00
3E
63
03
03
06
0C
18
30
60
60
7F
00
00
00
00
ENDCHAR
STARTCHAR three
ENCODING 51
SWIDTH 369 0
DWIDTH 8 0
BBX 8 18 0 -4
BITMAP
00
00
00
3E
63
03
03
03
1E
03
03
03
63
3E
00
00
00
00
ENDCHAR
STARTCHAR four
ENCODING 52
SWIDTH 369 0
DWIDTH 8 0
BBX 8 18 0 -4
BITMAP
00
00
00
03
07
0F
1B
13
33
63
7F
03
03
03
00
00
00
00
ENDCHAR
STARTCHAR five
ENCODING 53
SWIDTH 369 0
DWIDTH 8 0
BBX 8 18 0 -4
BITMAP
00
00
00
7E
60
60
60
7E
63
03
03
03
63
3E
00
00
00
00
ENDCHAR
STARTCHAR six
ENCODING 54
SWIDTH 369 0
DWIDTH 8 0
BBX 8 18 0 -4
BITMAP
00
00
00
1E
30
60
60
7E
63
63
63
63
63
3E
00
00
00
00
ENDCHAR
STARTCHAR seven
ENCODING 55
SWIDTH 369 0
DWIDTH 8 0
BBX 8 18 0 -4
BITMAP
00
00
00
7F
03
06
06
0C
0C
0C
18
18
18
18
00
00
00
00
ENDCHAR
STARTCHAR eight
ENCODING 56
SWIDTH 369 0
DWIDTH 8 0
BBX 8 18 0 -4
BITMAP
00
00
00
3E
63
63
63
22
3E
63
63
63
63
3E
00
00
00
00
ENDCHAR
STARTCHAR nine
ENCODING 57
SWIDTH 369 0
DWIDTH 8 0
BBX 8 18 0 -4
BITMAP
00
00
00
3E
63
63
63
63
63
3F
03
03
06
3C
00
00
00
00
ENDCHAR
STARTCHAR colon
ENCODING 58
SWIDTH 369 0
DWIDTH 8 0
BBX 8 18 0 -4
BITMAP
00
00
00
00
00
00
00
18
18
00
00
00
18
18
00
00
00
00
ENDCHAR
STARTCHAR semicolon
ENCODING 59
SWIDTH 369 0
DWIDTH 8 0
BBX 8 18 0 -4
BITMAP
00
00
00
00
00
00
00
18
18
00
00
00
18
18
08
10
00
00
ENDCHAR
STARTCHAR less
ENCODING 60
SWIDTH 369 0
DWIDTH 8 0
BBX 8 18 0 -4
BITMAP
00
00
00
02
06
0C
18
30
60
30
18
0C
06
02
00
00
00
00
ENDCHAR
STARTCHAR equal
ENCODING 61
SWIDTH 369 0
DWIDTH 8 0
BBX 8 18 0 -4
BITMAP
00
00
00
00
00
00
00
3E
00
00
3E
00
00
00
00
00
00
00
ENDCHAR
STARTCHAR greater
ENCODING 62
SWIDTH 369 0
DWIDTH 8 0
BBX 8 18 0 -4
BITMAP
00
00
00
20
30
18
0C
06
03
06
0C
18
30
20
00
00
00
00
ENDCHAR
STARTCHAR question
ENCODING 63
SWIDTH 369 0
DWIDTH 8 0
BBX 8 18 0 -4
BITMAP
00
00
00
3E
63
63
03
06
0C
18
18
00
18
18
00
00
00
00
ENDCHAR
STARTCHAR at
ENCODING 64
SWIDTH 369 0
DWIDTH 8 0
BBX 8 18 0 -4
BITMAP
00
00
00
1C
22
41
4D
55
55
4E
40
21
1E
00
00
00
00
00
ENDCHAR
STARTCHAR A
ENCODING 65
SWIDTH 369 0
DWIDTH 8 0
BBX 8 18 0 -4
BITMAP
00
00
00
1C
36
63
63
63
63
7F
63
63
63
63
00
00
00
00
ENDCHAR
STARTCHAR B
ENCODING 66
SWIDTH 369 0
DWIDTH 8 0
BBX 8 18 0 -4
BITMAP
00
00
00
7E
63
63
63
63
7E
63
63
63
63
7E
00
00
00
00
ENDCHAR
STARTCHAR C
ENCODING 67
SWIDTH 369 0
DWIDTH 8 0
BBX 8 18 0 -4
BITMAP
00
00
00
3E
63
63
60
60
60
60
60
63
63
3E
00
00
00
00
ENDCHAR
STARTCHAR D
ENCODING 68
SWIDTH 369 0
DWIDTH 8 0
BBX 8 18 0 -4
BITMAP
00
00
00
7C
66
63
63
63
63
63
63
63
66
7C
00
00
00
00
ENDCHAR
STARTCHAR E
ENCODING 69
SWIDTH 369 0
DWIDTH 8 0
BBX 8 18 0 -4
BITMAP
00
00
00
7F
60
60
60
60
7E
60
60
60
60
7F
00
00
00
00
ENDCHAR
STARTCHAR F
ENCODING 70
SWIDTH 369 0
DWIDTH 8 0
BBX 8 18 0 -4
BITMAP
00
00
00
7F
60
60
60
60
7E
60
60
60
60
60
00
00
00
00
ENDCHAR
STARTCHAR G
ENCODING 71
SWIDTH 369 0
DWIDTH 8 0
BBX 8 18 0 -4
BITMAP
00
00
00
3E
63
63
60
60
60
67
63
63
63
3F
00
00
00
00
ENDCHAR
STARTCHAR H
ENCODING 72
SWIDTH 369 0
DWIDTH 8 0
BBX 8 18 0 -4
BITMAP
00
00
00
63
63
63
63
63
7F
63
63
63
63
63
00
00
00
00
ENDCHAR
STARTCHAR I
ENCODING 73
SWIDTH 369 0
DWIDTH 8 0
BBX 8 18 0 -4
BITMAP
00
00
00
3F
0C
0C
0C
0C
0C
0C
0C
0C
0C
3F
00
00
00
00
ENDCHAR
STARTCHAR J
ENCODING 74
SWIDTH 369 0
DWIDTH 8 0
BBX 8 18 0 -4
BITMAP
00
00
00
1F
06
06
06
06
06
06
06
66
66
3C
00
00
00
00
ENDCHAR
STARTCHAR K
ENCODING 75
SWIDTH 369 0
DWIDTH 8 0
BBX 8 18 0 -4
BITMAP
00
00
00
63
63
66
6C
78
78
6C
66
66
63
63
00
00
00
00
ENDCHAR
STARTCHAR L
ENCODING 76
SWIDTH 369 0
DWIDTH 8 0
BBX 8 18 0 -4
BITMAP
00
00
00
60
60
60
60
60
60
60
60
60
60
7F
00
00
00
00
ENDCHAR
STARTCHAR M
ENCODING 77
SWIDTH 369 0
DWIDTH 8 0
BBX 8 18 0 -4
BITMAP
00
00
00
41
63
77
7F
6B
6B
63
63
63
63
63
00
00
00
00
ENDCHAR
STARTCHAR N
ENCODING 78
SWIDTH 369 0
DWIDTH 8 0
BBX 8 18 0 -4
BITMAP
00
00
00
63
63
73
73
7B
6B
6F
67
67
63
63
00
00
00
00
ENDCHAR
STARTCHAR O
ENCODING 79
SWIDTH 369 0
DWIDTH 8 0
BBX 8 18 0 -4
BITMAP
00
00
00
3E
63
63
63
63
63
63
63
63
63
3E
00
00
00
00
ENDCHAR
STARTCHAR P
ENCODING 80
SWIDTH 369 0
DWIDTH 8 0
BBX 8 18 0 -4
BITMAP
00
00
00
7E
63
63
63
63
63
7E
60
60
60
60
00
00
00
00
ENDCHAR
STARTCHAR Q
ENCODING 81
SWIDTH 369 0
DWIDTH 8 0
BBX 8 18 0 -4
BITMAP
00
00
00
3E
63
63
63
63
63
63
63
63
63
3E
0C
06
00
00
ENDCHAR
STARTCHAR R
ENCODING 82
SWIDTH 369 0
DWIDTH 8 0
BBX 8 18 0 -4
BITMAP
00
00
00
7E
63
63
63
63
7E
6C
66
66
63
63
00
00
00
00
ENDCHAR
STARTCHAR S
ENCODING 83
SWIDTH 369 0
DWIDTH 8 0
BBX 8 18 0 -4
BITMAP
00
00
00
3E
63
63
60
38
0E
03
03
63
63
3E
00
00
00
00
ENDCHAR
STARTCHAR T
ENCODING 84
SWIDTH 369 0
DWIDTH 8 0
BBX 8 18 0 -4
BITMAP
00
00
00
7E
18
18
18
18
18
18
18
18
18
18
00
00
00
00
ENDCHAR
STARTCHAR U
ENCODING 85
SWIDTH 369 0
DWIDTH 8 0
BBX 8 18 0 -4
BITMAP
00
00
00
63
63
63
63
63
63
63
63
63
63
3E
00
00
00
00
ENDCHAR
STARTCHAR V
ENCODING 86
SWIDTH 369 0
DWIDTH 8 0
BBX 8 18 0 -4
BITMAP
00
00
00
63
63
63
63
63
63
63
36
36
1C
08
00
00
00
00
ENDCHAR
STARTCHAR W
ENCODING 87
SWIDTH 369 0
DWIDTH 8 0
BBX 8 18 0 -4
BITMAP
00
00
00
63
63
63
63
63
6B
6B
6B
6B
36
36
00
00
00
00
ENDCHAR
STARTCHAR X
ENCODING 88
SWIDTH 369 0
DWIDTH 8 0
BBX 8 18 0 -4
BITMAP
00
00
00
63
63
63
36
1C
1C
36
63
63
63
63
00
00
00
00
ENDCHAR
STARTCHAR Y
ENCODING 89
SWIDTH 369 0
DWIDTH 8 0
BBX 8 18 0 -4
BITMAP
00
00
00
66
66
66
66
66
3C
18
18
18
18
18
00
00
00
00
ENDCHAR
STARTCHAR Z
ENCODING 90
SWIDTH 369 0
DWIDTH 8 0
BBX 8 18 0 -4
BITMAP
00
00
00
7F
03
06
06
0C
0C
18
18
30
30
7F
00
00
00
00
ENDCHAR
STARTCHAR bracketleft
ENCODING 91
SWIDTH 369 0
DWIDTH 8 0
BBX 8 18 0 -4
BITMAP
00
00
1E
18
18
18
18
18
18
18
18
18
18
18
1E
00
00
00
ENDCHAR
STARTCHAR backslash
ENCODING 92
SWIDTH 369 0
DWIDTH 8 0
BBX 8 18 0 -4
BITMAP
00
00
60
60
30
30
18
18
0C
0C
06
06
03
03
00
00
00
00
ENDCHAR
STARTCHAR bracketright
ENCODING 93
SWIDTH 369 0
DWIDTH 8 0
BBX 8 18 0 -4
BITMAP
00
00
3C
0C
0C
0C
0C
0C
0C
0C
0C
0C
0C
0C
3C
00
00
00
ENDCHAR
STARTCHAR asciicircum
ENCODING 94
SWIDTH 369 0
DWIDTH 8 0
BBX 8 18 0 -4
BITMAP
00
18
3C
66
00
00
00
00
00
00
00
00
00
00
00
00
00
00
ENDCHAR
STARTCHAR underscore
ENCODING 95
SWIDTH 369 0
DWIDTH 8 0
BBX 8 18 0 -4
BITMAP
00
00
00
00
00
00
00
00
00
00
00
00
00
00
00
FF
00
00
ENDCHAR
STARTCHAR grave
ENCODING 96
SWIDTH 369 0
DWIDTH 8 0
BBX 8 18 0 -4
BITMAP
00
30
18
0C
00
00
00
00
00
00
00
00
00
00
00
00
00
00
ENDCHAR
STARTCHAR a
ENCODING 97
SWIDTH 369 0
DWIDTH 8 0
BBX 8 18 0 -4
BITMAP
00
00
00
00
00
00
3E
03
03
3F
63
63
63
3F
00
00
00
00
ENDCHAR
STARTCHAR b
ENCODING 98
SWIDTH 369 0
DWIDTH 8 0
BBX 8 18 0 -4
BITMAP
00
00
00
60
60
60
6E
73
63
63
63
63
63
7E
00
00
00
00
ENDCHAR
STARTCHAR c
ENCODING 99
SWIDTH 369 0
DWIDTH 8 0
BBX 8 18 0 -4
BITMAP
00
00
00
00
00
00
3E
63
60
60
60
60
63
3E
00
00
00
00
ENDCHAR
STARTCHAR d
ENCODING 100
SWIDTH 369 0
DWIDTH 8 0
BBX 8 18 0 -4
BITMAP
00
00
00
03
03
03
3B
67
63
63
63
63
63
3F
00
00
00
00
ENDCHAR
STARTCHAR e
ENCODING 101
SWIDTH 369 0
DWIDTH 8 0
BBX 8 18 0 -4
BITMAP
00
00
00
00
00
00
3E
63
63
7F
60
60
63
3E
00
00
00
00
ENDCHAR
STARTCHAR f
ENCODING 102
SWIDTH 369 0
DWIDTH 8 0
BBX 8 18 0 -4
BITMAP
00
00
00
0F
18
18
7E
18
18
18
18
18
18
18
00
00
00
00
ENDCHAR
STARTCHAR g
ENCODING 103
SWIDTH 369 0
DWIDTH 8 0
BBX 8 18 0 -4
BITMAP
00
00
00
00
00
00
3B
67
63
63
63
63
67
3B
03
03
3E
00
ENDCHAR
STARTCHAR h
ENCODING 104
SWIDTH 369 0
DWIDTH 8 0
BBX 8 18 0 -4
BITMAP
00
00
00
60
60
60
6E
73
63
63
63
63
63
63
00
00
00
00
ENDCHAR
STARTCHAR i
ENCODING 105
SWIDTH 369 0
DWIDTH 8 0
BBX 8 18 0 -4
BITMAP
00
00
00
0C
0C
00
3C
0C
0C
0C
0C
0C
0C
3F
00
00
00
00
ENDCHAR
STARTCHAR j
ENCODING 106
SWIDTH 369 0
DWIDTH 8 0
BBX 8 18 0 -4
BITMAP
00
00
00
0C
0C
00
3C
0C
0C
0C
0C
0C
0C
0C
0C
0C
78
00
ENDCHAR
STARTCHAR k
ENCODING 107
SWIDTH 369 0
DWIDTH 8 0
BBX 8 18 0 -4
BITMAP
00
00
00
60
60
60
63
66
6C
78
6C
66
63
63
00
00
00
00
ENDCHAR
STARTCHAR l
ENCODING 108
SWIDTH 369 0
DWIDTH 8 0
BBX 8 18 0 -4
BITMAP
00
00
00
38
18
18
18
18
18
18
18
18
18
0E
00
00
00
00
ENDCHAR
STARTCHAR m
ENCODING 109
SWIDTH 369 0
DWIDTH 8 0
BBX 8 18 0 -4
BITMAP
00
00
00
00
00
00
76
7F
6B
6B
6B
6B
6B
63
00
00
00
00
ENDCHAR
STARTCHAR n
ENCODING 110
SWIDTH 369 0
DWIDTH 8 0
BBX 8 18 0 -4
BITMAP
00
00
00
00
00
00
6E
73
63
63
63
63
63
63
00
00
00
00
ENDCHAR
STARTCHAR o
ENCODING 111
SWIDTH 369 0
DWIDTH 8 0
BBX 8 18 0 -4
BITMAP
00
00
00
00
00
00
3E
63
63
63
63
63
63
3E
00
00
00
00
ENDCHAR
STARTCHAR p
ENCODING 112
SWIDTH 369 0
DWIDTH 8 0
BBX 8 18 0 -4
BITMAP
00
00
00
00
00
00
6E
73
63
63
63
63
63
7E
60
60
60
00
ENDCHAR
STARTCHAR q
ENCODING 113
SWIDTH 369 0
DWIDTH 8 0
BBX 8 18 0 -4
BITMAP
00
00
00
00
00
00
3B
67
63
63
63
63
63
3F
03
03
03
00
ENDCHAR
STARTCHAR r
ENCODING 114
SWIDTH 369 0
DWIDTH 8 0
BBX 8 18 0 -4
BITMAP
00
00
00
00
00
00
6E
77
60
60
60
60
60
60
00
00
00
00
ENDCHAR
STARTCHAR s
ENCODING 115
SWIDTH 369 0
DWIDTH 8 0
BBX 8 18 0 -4
BITMAP
00
00
00
00
00
00
3E
63
60
38
0E
03
63
3E
00
00
00
00
ENDCHAR
STARTCHAR t
ENCODING 116
SWIDTH 369 0
DWIDTH 8 0
BBX 8 18 0 -4
BITMAP
00
00
00
18
18
18
7E
18
18
18
18
18
18
0E
00
00
00
00
ENDCHAR
STARTCHAR u
ENCODING 117
SWIDTH 369 0
DWIDTH 8 0
BBX 8 18 0 -4
BITMAP
00
00
00
00
00
00
63
63
63
63
63
63
67
3B
00
00
00
00
ENDCHAR
STARTCHAR v
ENCODING 118
SWIDTH 369 0
DWIDTH 8 0
BBX 8 18 0 -4
BITMAP
00
00
00
00
00
00
63
63
63
63
63
36
1C
08
00
00
00
00
ENDCHAR
STARTCHAR w
ENCODING 119
SWIDTH 369 0
DWIDTH 8 0
BBX 8 18 0 -4
BITMAP
00
00
00
00
00
00
63
63
63
63
6B
6B
6B
36
00
00
00
00
ENDCHAR
STARTCHAR x
ENCODING 120
SWIDTH 369 0
DWIDTH 8 0
BBX 8 18 0 -4
BITMAP
00
00
00
00
00
00
63
63
36
1C
1C
36
63
63
00
00
00
00
ENDCHAR
STARTCHAR y
ENCODING 121
SWIDTH 369 0
DWIDTH 8 0
BBX 8 18 0 -4
BITMAP
00
00
00
00
00
00
63
63
63
63
63
63
67
3B
03
03
3E
00
ENDCHAR
STARTCHAR z
ENCODING 122
SWIDTH 369 0
DWIDTH 8 0
BBX 8 18 0 -4
BITMAP
00
00
00
00
00
00
7F
03
06
0C
18
30
60
7F
00
00
00
00
ENDCHAR
STARTCHAR braceleft
ENCODING 123
SWIDTH 369 0
DWIDTH 8 0
BBX 8 18 0 -4
BITMAP
00
0E
18
18
18
18
18
18
70
18
18
18
18
18
18
0E
00
00
ENDCHAR
STARTCHAR bar
ENCODING 124
SWIDTH 369 0
DWIDTH 8 0
BBX 8 18 0 -4
BITMAP
00
18
18
18
18
18
18
18
18
18
18
18
18
18
18
18
18
00
ENDCHAR
STARTCHAR braceright
ENCODING 125
SWIDTH 369 0
DWIDTH 8 0
BBX 8 18 0 -4
BITMAP
00
38
0C
0C
0C
0C
0C
0C
07
0C
0C
0C
0C
0C
0C
38
00
00
ENDCHAR
STARTCHAR asciitilde
ENCODING 126
SWIDTH 369 0
DWIDTH 8 0
BBX 8 18 0 -4
BITMAP
00
00
32
5A
4C
00
00
00
00
00
00
00
00
00
00
00
00
00
ENDCHAR
STARTCHAR uni007F
ENCODING 127
SWIDTH 369 0
DWIDTH 8 0
BBX 8 18 0 -4
BITMAP
00
00
00
00
00
00
00
00
00
00
00
00
00
00
00
00
00
00
ENDCHAR
STARTCHAR uni00A0
ENCODING 160
SWIDTH 369 0
DWIDTH 8 0
BBX 8 18 0 -4
BITMAP
00
00
00
00
00
00
00
00
00
00
00
00
00
00
00
00
00
00
ENDCHAR
STARTCHAR exclamdown
ENCODING 161
SWIDTH 369 0
DWIDTH 8 0
BBX 8 18 0 -4
BITMAP
00
00
00
18
18
00
18
18
18
18
18
18
18
18
00
00
00
00
ENDCHAR
STARTCHAR cent
ENCODING 162
SWIDTH 369 0
DWIDTH 8 0
BBX 8 18 0 -4
BITMAP
00
00
00
08
08
3E
6B
68
68
68
6B
3E
08
08
00
00
00
00
ENDCHAR
STARTCHAR sterling
ENCODING 163
SWIDTH 369 0
DWIDTH 8 0
BBX 8 18 0 -4
BITMAP
00
00
00
1C
36
30
30
30
7C
30
30
30
3B
6E
00
00
00
00
ENDCHAR
STARTCHAR currency
ENCODING 164
SWIDTH 369 0
DWIDTH 8 0
BBX 8 18 0 -4
BITMAP
00
00
00
41
63
3E
36
63
63
63
36
3E
63
41
00
00
00
00
ENDCHAR
STARTCHAR yen
ENCODING 165
SWIDTH 369 0
DWIDTH 8 0
BBX 8 18 0 -4
BITMAP
00
00
00
66
66
66
66
3C
18
7E
18
7E
18
18
00
00
00
00
ENDCHAR
STARTCHAR brokenbar
ENCODING 166
SWIDTH 369 0
DWIDTH 8 0
BBX 8 18 0 -4
BITMAP
00
18
18
18
18
18
18
18
00
18
18
18
18
18
18
18
00
00
ENDCHAR
STARTCHAR section
ENCODING 167
SWIDTH 369 0
DWIDTH 8 0
BBX 8 18 0 -4
BITMAP
00
00
3E
63
60
70
3C
66
63
63
33
1E
06
03
63
3E
00
00
ENDCHAR
STARTCHAR dieresis
ENCODING 168
SWIDTH 369 0
DWIDTH 8 0
BBX 8 18 0 -4
BITMAP
00
00
66
66
00
00
00
00
00
00
00
00
00
00
00
00
00
00
ENDCHAR
STARTCHAR copyright
ENCODING 169
SWIDTH 369 0
DWIDTH 8 0
BBX 8 18 0 -4
BITMAP
00
00
1C
22
4D
51
51
51
51
4D
22
1C
00
00
00
00
00
00
ENDCHAR
STARTCHAR ordfeminine
ENCODING 170
SWIDTH 369 0
DWIDTH 8 0
BBX 8 18 0 -4
BITMAP
00
00
3C
06
3E
66
66
3E
00
7E
00
00
00
00
00
00
00
00
ENDCHAR
STARTCHAR guillemotleft
ENCODING 171
SWIDTH 369 0
DWIDTH 8 0
BBX 8 18 0 -4
BITMAP
00
00
00
00
00
00
1B
36
6C
6C
36
1B
00
00
00
00
00
00
ENDCHAR
STARTCHAR logicalnot
ENCODING 172
SWIDTH 369 0
DWIDTH 8 0
BBX 8 18 0 -4
BITMAP
00
00
00
00
00
00
7F
03
03
03
03
03
00
00
00
00
00
00
ENDCHAR
STARTCHAR uni00AD
ENCODING 173
SWIDTH 369 0
DWIDTH 8 0
BBX 8 18 0 -4
BITMAP
00
00
00
00
00
00
00
00
3E
00
00
00
00
00
00
00
00
00
ENDCHAR
STARTCHAR registered
ENCODING 174
SWIDTH 369 0
DWIDTH 8 0
BBX 8 18 0 -4
BITMAP
00
00
1C
22
59
55
55
59
55
55
22
1C
00
00
00
00
00
00
ENDCHAR
STARTCHAR macron
ENCODING 175
SWIDTH 369 0
DWIDTH 8 0
BBX 8 18 0 -4
BITMAP
00
00
7E
00
00
00
00
00
00
00
00
00
00
00
00
00
00
00
ENDCHAR
STARTCHAR degree
ENCODING 176
SWIDTH 369 0
DWIDTH 8 0
BBX 8 18 0 -4
BITMAP
00
00
00
3C
66
66
66
3C
00
00
00
00
00
00
00
00
00
00
ENDCHAR
STARTCHAR plusminus
ENCODING 177
SWIDTH 369 0
DWIDTH 8 0
BBX 8 18 0 -4
BITMAP
00
00
00
00
00
18
18
7E
18
18
00
7E
00
00
00
00
00
00
ENDCHAR
STARTCHAR uni00B2
ENCODING 178
SWIDTH 369 0
DWIDTH 8 0
BBX 8 18 0 -4
BITMAP
00
1C
26
06
0C
18
3E
00
00
00
00
00
00
00
00
00
00
00
ENDCHAR
STARTCHAR uni00B3
ENCODING 179
SWIDTH 369 0
DWIDTH 8 0
BBX 8 18 0 -4
BITMAP
00
3C
06
1C
06
06
3C
00
00
00
00
00
00
00
00
00
00
00
ENDCHAR
STARTCHAR acute
ENCODING 180
SWIDTH 369 0
DWIDTH 8 0
BBX 8 18 0 -4
BITMAP
00
06
0C
18
30
00
00
00
00
00
00
00
00
00
00
00
00
00
ENDCHAR
STARTCHAR uni00B5
ENCODING 181
SWIDTH 369 0
DWIDTH 8 0
BBX 8 18 0 -4
BITMAP
00
00
00
00
00
00
66
66
66
66
66
66
66
7D
60
60
60
00
ENDCHAR
STARTCHAR paragraph
ENCODING 182
SWIDTH 369 0
DWIDTH 8 0
BBX 8 18 0 -4
BITMAP
00
00
00
3F
79
79
79
79
39
09
09
09
09
09
00
00
00
00
ENDCHAR
STARTCHAR periodcentered
ENCODING 183
SWIDTH 369 0
DWIDTH 8 0
BBX 8 18 0 -4
BITMAP
00
00
00
00
00
00
00
00
18
18
00
00
00
00
00
00
00
00
ENDCHAR
STARTCHAR cedilla
ENCODING 184
SWIDTH 369 0
DWIDTH 8 0
BBX 8 18 0 -4
BITMAP
00
00
00
00
00
00
00
00
00
00
00
00
00
00
0C
06
1C
00
ENDCHAR
STARTCHAR uni00B9
ENCODING 185
SWIDTH 369 0
DWIDTH 8 0
BBX 8 18 0 -4
BITMAP
00
18
38
18
18
18
3C
00
00
00
00
00
00
00
00
00
00
00
ENDCHAR
STARTCHAR ordmasculine
ENCODING 186
SWIDTH 369 0
DWIDTH 8 0
BBX 8 18 0 -4
BITMAP
00
00
3C
66
66
66
66
3C
00
7E
00
00
00
00
00
00
00
00
ENDCHAR
STARTCHAR guillemotright
ENCODING 187
SWIDTH 369 0
DWIDTH 8 0
BBX 8 18 0 -4
BITMAP
00
00
00
00
00
00
6C
36
1B
1B
36
6C
00
00
00
00
00
00
ENDCHAR
STARTCHAR onequarter
ENCODING 188
SWIDTH 369 0
DWIDTH 8 0
BBX 8 18 0 -4
BITMAP
00
30
70
30
30
30
32
06
0C
18
32
66
4E
16
3F
06
00
00
ENDCHAR
STARTCHAR onehalf
ENCODING 189
SWIDTH 369 0
DWIDTH 8 0
BBX 8 18 0 -4
BITMAP
00
30
70
30
30
32
36
0C
18
30
6E
5B
03
06
0C
1F
00
00
ENDCHAR
STARTCHAR threequarters
ENCODING 190
SWIDTH 369 0
DWIDTH 8 0
BBX 8 18 0 -4
BITMAP
00
70
18
30
18
18
72
06
0C
18
32
66
4E
16
3F
06
00
00
ENDCHAR
STARTCHAR questiondown
ENCODING 191
SWIDTH 369 0
DWIDTH 8 0
BBX 8 18 0 -4
BITMAP
00
00
00
0C
0C
00
0C
0C
18
30
60
63
63
3E
00
00
00
00
ENDCHAR
STARTCHAR Agrave
ENCODING 192
SWIDTH 369 0
DWIDTH 8 0
BBX 8 18 0 -4
BITMAP
38
0E
00
1C
36
63
63
63
63
7F
63
63
63
63
00
00
00
00
ENDCHAR
STARTCHAR Aacute
ENCODING 193
SWIDTH 369 0
DWIDTH 8 0
BBX 8 18 0 -4
BITMAP
0E
38
00
1C
36
63
63
63
63
7F
63
63
63
63
00
00
00
00
ENDCHAR
STARTCHAR Acircumflex
ENCODING 194
SWIDTH 369 0
DWIDTH 8 0
BBX 8 18 0 -4
BITMAP
1C
36
00
1C
36
63
63
63
63
7F
63
63
63
63
00
00
00
00
ENDCHAR
STARTCHAR Atilde
ENCODING 195
SWIDTH 369 0
DWIDTH 8 0
BBX 8 18 0 -4
BITMAP
39
4E
00
1C
36
63
63
63
63
7F
63
63
63
63
00
00
00
00
ENDCHAR
STARTCHAR Adieresis
ENCODING 196
SWIDTH 369 0
DWIDTH 8 0
BBX 8 18 0 -4
BITMAP
00
63
63
1C
36
63
63
63
63
7F
63
63
63
63
00
00
00
00
ENDCHAR
STARTCHAR Aring
ENCODING 197
SWIDTH 369 0
DWIDTH 8 0
BBX 8 18 0 -4
BITMAP
1C
36
36
1C
36
63
63
63
63
7F
63
63
63
63
00
00
00
00
ENDCHAR
STARTCHAR AE
ENCODING 198
SWIDTH 369 0
DWIDTH 8 0
BBX 8 18 0 -4
BITMAP
00
00
3F
6C
6C
6C
6C
7F
6C
6C
6C
6C
6C
6F
00
00
00
00
ENDCHAR
STARTCHAR Ccedilla
ENCODING 199
SWIDTH 369 0
DWIDTH 8 0
BBX 8 18 0 -4
BITMAP
00
00
00
3E
63
63
60
60
60
60
60
63
63
3E
0C
06
1C
00
ENDCHAR
STARTCHAR Egrave
ENCODING 200
SWIDTH 369 0
DWIDTH 8 0
BBX 8 18 0 -4
BITMAP
38
0E
00
7F
60
60
60
60
7E
60
60
60
60
7F
00
00
00
00
ENDCHAR
STARTCHAR Eacute
ENCODING 201
SWIDTH 369 0
DWIDTH 8 0
BBX 8 18 0 -4
BITMAP
0E
38
00
7F
60
60
60
60
7E
60
60
60
60
7F
00
00
00
00
ENDCHAR
STARTCHAR Ecircumflex
ENCODING 202
SWIDTH 369 0
DWIDTH 8 0
BBX 8 18 0 -4
BITMAP
1C
36
00
7F
60
60
60
60
7E
60
60
60
60
7F
00
00
00
00
ENDCHAR
STARTCHAR Edieresis
ENCODING 203
SWIDTH 369 0
DWIDTH 8 0
BBX 8 18 0 -4
BITMAP
00
66
66
00
7F
60
60
60
7E
60
60
60
60
7F
00
00
00
00
ENDCHAR
STARTCHAR Igrave
ENCODING 204
SWIDTH 369 0
DWIDTH 8 0
BBX 8 18 0 -4
BITMAP
70
1C
00
7E
18
18
18
18
18
18
18
18
18
7E
00
00
00
00
ENDCHAR
STARTCHAR Iacute
ENCODING 205
SWIDTH 369 0
DWIDTH 8 0
BBX 8 18 0 -4
BITMAP
1C
70
00
7E
18
18
18
18
18
18
18
18
18
7E
00
00
00
00
ENDCHAR
STARTCHAR Icircumflex
ENCODING 206
SWIDTH 369 0
DWIDTH 8 0
BBX 8 18 0 -4
BITMAP
3C
66
00
7E
18
18
18
18
18
18
18
18
18
7E
00
00
00
00
ENDCHAR
STARTCHAR Idieresis
ENCODING 207
SWIDTH 369 0
DWIDTH 8 0
BBX 8 18 0 -4
BITMAP
00
66
66
00
7E
18
18
18
18
18
18
18
18
7E
00
00
00
00
ENDCHAR
STARTCHAR Eth
ENCODING 208
SWIDTH 369 0
DWIDTH 8 0
BBX 8 18 0 -4
BITMAP
00
00
00
7C
66
63
63
63
7B
63
63
63
66
7C
00
00
00
00
ENDCHAR
STARTCHAR Ntilde
ENCODING 209
SWIDTH 369 0
DWIDTH 8 0
BBX 8 18 0 -4
BITMAP
39
4E
00
43
63
63
73
7B
6F
67
63
63
63
63
00
00
00
00
ENDCHAR
STARTCHAR Ograve
ENCODING 210
SWIDTH 369 0
DWIDTH 8 0
BBX 8 18 0 -4
BITMAP
38
0E
00
3E
63
63
63
63
63
63
63
63
63
3E
00
00
00
00
ENDCHAR
STARTCHAR Oacute
ENCODING 211
SWIDTH 369 0
DWIDTH 8 0
BBX 8 18 0 -4
BITMAP
0E
38
00
3E
63
63
63
63
63
63
63
63
63
3E
00
00
00
00
ENDCHAR
STARTCHAR Ocircumflex
ENCODING 212
SWIDTH 369 0
DWIDTH 8 0
BBX 8 18 0 -4
BITMAP
1C
36
00
3E
63
63
63
63
63
63
63
63
63
3E
00
00
00
00
ENDCHAR
STARTCHAR Otilde
ENCODING 213
SWIDTH 369 0
DWIDTH 8 0
BBX 8 18 0 -4
BITMAP
39
4E
00
3E
63
63
63
63
63
63
63
63
63
3E
00
00
00
00
ENDCHAR
STARTCHAR Odieresis
ENCODING 214
SWIDTH 369 0
DWIDTH 8 0
BBX 8 18 0 -4
BITMAP
00
63
63
00
3E
63
63
63
63
63
63
63
63
3E
00
00
00
00
ENDCHAR
STARTCHAR multiply
ENCODING 215
SWIDTH 369 0
DWIDTH 8 0
BBX 8 18 0 -4
BITMAP
00
00
00
00
00
00
63
36
1C
1C
36
63
00
00
00
00
00
00
ENDCHAR
STARTCHAR Oslash
ENCODING 216
SWIDTH 369 0
DWIDTH 8 0
BBX 8 18 0 -4
BITMAP
00
00
00
3E
63
63
67
6B
6B
73
63
63
63
3E
00
00
00
00
ENDCHAR
STARTCHAR Ugrave
ENCODING 217
SWIDTH 369 0
DWIDTH 8 0
BBX 8 18 0 -4
BITMAP
38
0E
00
63
63
63
63
63
63
63
63
63
63
3E
00
00
00
00
ENDCHAR
STARTCHAR Uacute
ENCODING 218
SWIDTH 369 0
DWIDTH 8 0
BBX 8 18 0 -4
BITMAP
0E
38
00
63
63
63
63
63
63
63
63
63
63
3E
00
00
00
00
ENDCHAR
STARTCHAR Ucircumflex
ENCODING 219
SWIDTH 369 0
DWIDTH 8 0
BBX 8 18 0 -4
BITMAP
1C
36
00
63
63
63
63
63
63
63
63
63
63
3E
00
00
00
00
ENDCHAR
STARTCHAR Udieresis
ENCODING 220
SWIDTH 369 0
DWIDTH 8 0
BBX 8 18 0 -4
BITMAP
00
63
63
00
63
63
63
63
63
63
63
63
63
3E
00
00
00
00
ENDCHAR
STARTCHAR Yacute
ENCODING 221
SWIDTH 369 0
DWIDTH 8 0
BBX 8 18 0 -4
BITMAP
0E
38
00
66
66
66
66
66
3C
18
18
18
18
18
00
00
00
00
ENDCHAR
STARTCHAR Thorn
ENCODING 222
SWIDTH 369 0
DWIDTH 8 0
BBX 8 18 0 -4
BITMAP
00
00
00
60
60
7E
63
63
63
63
63
7E
60
60
00
00
00
00
ENDCHAR
STARTCHAR germandbls
ENCODING 223
SWIDTH 369 0
DWIDTH 8 0
BBX 8 18 0 -4
BITMAP
00
00
00
3C
66
66
66
6C
66
63
63
63
63
6E
60
00
00
00
ENDCHAR
STARTCHAR agrave
ENCODING 224
SWIDTH 369 0
DWIDTH 8 0
BBX 8 18 0 -4
BITMAP
00
30
18
0C
00
00
3E
03
03
3F
63
63
63
3F
00
00
00
00
ENDCHAR
STARTCHAR aacute
ENCODING 225
SWIDTH 369 0
DWIDTH 8 0
BBX 8 18 0 -4
BITMAP
00
06
0C
18
00
00
3E
03
03
3F
63
63
63
3F
00
00
00
00
ENDCHAR
STARTCHAR acircumflex
ENCODING 226
SWIDTH 369 0
DWIDTH 8 0
BBX 8 18 0 -4
BITMAP
00
08
1C
36
00
00
3E
03
03
3F
63
63
63
3F
00
00
00
00
ENDCHAR
STARTCHAR atilde
ENCODING 227
SWIDTH 369 0
DWIDTH 8 0
BBX 8 18 0 -4
BITMAP
00
00
39
4E
00
00
3E
03
03
3F
63
63
63
3F
00
00
00
00
ENDCHAR
STARTCHAR adieresis
ENCODING 228
SWIDTH 369 0
DWIDTH 8 0
BBX 8 18 0 -4
BITMAP
00
00
33
33
00
00
3E
03
03
3F
63
63
63
3F
00
00
00
00
ENDCHAR
STARTCHAR aring
ENCODING 229
SWIDTH 369 0
DWIDTH 8 0
BBX 8 18 0 -4
BITMAP
00
1C
36
36
1C
00
3E
03
03
3F
63
63
63
3F
00
00
00
00
ENDCHAR
STARTCHAR ae
ENCODING 230
SWIDTH 369 0
DWIDTH 8 0
BBX 8 18 0 -4
BITMAP
00
00
00
00
00
00
36
5B
1B
3F
6C
6C
6C
37
00
00
00
00
ENDCHAR
STARTCHAR ccedilla
ENCODING 231
SWIDTH 369 0
DWIDTH 8 0
BBX 8 18 0 -4
BITMAP
00
00
00
00
00
00
3E
63
60
60
60
60
63
3E
0C
06
1C
00
ENDCHAR
STARTCHAR egrave
ENCODING 232
SWIDTH 369 0
DWIDTH 8 0
BBX 8 18 0 -4
BITMAP
00
30
18
0C
00
00
3E
63
63
7F
60
60
63
3E
00
00
00
00
ENDCHAR
STARTCHAR eacute
ENCODING 233
SWIDTH 369 0
DWIDTH 8 0
BBX 8 18 0 -4
BITMAP
00
06
0C
18
00
00
3E
63
63
7F
60
60
63
3E
00
00
00
00
ENDCHAR
STARTCHAR ecircumflex
ENCODING 234
SWIDTH 369 0
DWIDTH 8 0
BBX 8 18 0 -4
BITMAP
00
08
1C
36
00
00
3E
63
63
7F
60
60
63
3E
00
00
00
00
ENDCHAR
STARTCHAR edieresis
ENCODING 235
SWIDTH 369 0
DWIDTH 8 0
BBX 8 18 0 -4
BITMAP
00
00
66
66
00
00
3E
63
63
7F
60
60
63
3E
00
00
00
00
ENDCHAR
STARTCHAR igrave
ENCODING 236
SWIDTH 369 0
DWIDTH 8 0
BBX 8 18 0 -4
BITMAP
00
30
18
0C
00
00
3C
0C
0C
0C
0C
0C
0C
3F
00
00
00
00
ENDCHAR
STARTCHAR iacute
ENCODING 237
SWIDTH 369 0
DWIDTH 8 0
BBX 8 18 0 -4
BITMAP
00
06
0C
18
00
00
3C
0C
0C
0C
0C
0C
0C
3F
00
00
00
00
ENDCHAR
STARTCHAR icircumflex
ENCODING 238
SWIDTH 369 0
DWIDTH 8 0
BBX 8 18 0 -4
BITMAP
00
08
1C
36
00
00
3C
0C
0C
0C
0C
0C
0C
3F
00
00
00
00
ENDCHAR
STARTCHAR idieresis
ENCODING 239
SWIDTH 369 0
DWIDTH 8 0
BBX 8 18 0 -4
BITMAP
00
00
66
66
00
00
3C
0C
0C
0C
0C
0C
0C
3F
00
00
00
00
ENDCHAR
STARTCHAR eth
ENCODING 240
SWIDTH 369 0
DWIDTH 8 0
BBX 8 18 0 -4
BITMAP
00
00
00
30
1F
7C
06
3E
63
63
63
63
63
3E
00
00
00
00
ENDCHAR
STARTCHAR ntilde
ENCODING 241
SWIDTH 369 0
DWIDTH 8 0
BBX 8 18 0 -4
BITMAP
00
00
39
4E
00
00
6E
73
63
63
63
63
63
63
00
00
00
00
ENDCHAR
STARTCHAR ograve
ENCODING 242
SWIDTH 369 0
DWIDTH 8 0
BBX 8 18 0 -4
BITMAP
00
30
18
0C
00
00
3E
63
63
63
63
63
63
3E
00
00
00
00
ENDCHAR
STARTCHAR oacute
ENCODING 243
SWIDTH 369 0
DWIDTH 8 0
BBX 8 18 0 -4
BITMAP
00
06
0C
18
00
00
3E
63
63
63
63
63
63
3E
00
00
00
00
ENDCHAR
STARTCHAR ocircumflex
ENCODING 244
SWIDTH 369 0
DWIDTH 8 0
BBX 8 18 0 -4
BITMAP
00
08
1C
36
00
00
3E
63
63
63
63
63
63
3E
00
00
00
00
ENDCHAR
STARTCHAR otilde
ENCODING 245
SWIDTH 369 0
DWIDTH 8 0
BBX 8 18 0 -4
BITMAP
00
00
39
4E
00
00
3E
63
63
63
63
63
63
3E
00
00
00
00
ENDCHAR
STARTCHAR odieresis
ENCODING 246
SWIDTH 369 0
DWIDTH 8 0
BBX 8 18 0 -4
BITMAP
00
00
63
63
00
00
3E
63
63
63
63
63
63
3E
00
00
00
00
ENDCHAR
STARTCHAR divide
ENCODING 247
SWIDTH 369 0
DWIDTH 8 0
BBX 8 18 0 -4
BITMAP
00
00
00
00
00
00
18
18
00
7E
00
18
18
00
00
00
00
00
ENDCHAR
STARTCHAR oslash
ENCODING 248
SWIDTH 369 0
DWIDTH 8 0
BBX 8 18 0 -4
BITMAP
00
00
00
00
00
00
3E
63
67
6B
6B
73
63
3E
00
00
00
00
ENDCHAR
STARTCHAR ugrave
ENCODING 249
SWIDTH 369 0
DWIDTH 8 0
BBX 8 18 0 -4
BITMAP
00
30
18
0C
00
00
63
63
63
63
63
63
67
3B
00
00
00
00
ENDCHAR
STARTCHAR uacute
ENCODING 250
SWIDTH 369 0
DWIDTH 8 0
BBX 8 18 0 -4
BITMAP
00
06
0C
18
00
00
63
63
63
63
63
63
67
3B
00
00
00
00
ENDCHAR
STARTCHAR ucircumflex
ENCODING 251
SWIDTH 369 0
DWIDTH 8 0
BBX 8 18 0 -4
BITMAP
00
08
1C
36
00
00
63
63
63
63
63
63
67
3B
00
00
00
00
ENDCHAR
STARTCHAR udieresis
ENCODING 252
SWIDTH 369 0
DWIDTH 8 0
BBX 8 18 0 -4
BITMAP
00
00
63
63
00
00
63
63
63
63
63
63
67
3B
00
00
00
00
ENDCHAR
STARTCHAR yacute
ENCODING 253
SWIDTH 369 0
DWIDTH 8 0
BBX 8 18 0 -4
BITMAP
00
06
0C
18
00
00
63
63
63
63
63
63
67
3B
03
03
3E
00
ENDCHAR
STARTCHAR thorn
ENCODING 254
SWIDTH 369 0
DWIDTH 8 0
BBX 8 18 0 -4
BITMAP
00
00
00
60
60
60
6E
73
63
63
63
63
73
6E
60
60
60
00
ENDCHAR
STARTCHAR ydieresis
ENCODING 255
SWIDTH 369 0
DWIDTH 8 0
BBX 8 18 0 -4
BITMAP
00
00
63
63
00
00
63
63
63
63
63
63
67
3B
03
03
3E
00
ENDCHAR
STARTCHAR Amacron
ENCODING 256
SWIDTH 369 0
DWIDTH 8 0
BBX 8 18 0 -4
BITMAP
00
3E
00
1C
36
63
63
63
63
7F
63
63
63
63
00
00
00
00
ENDCHAR
STARTCHAR amacron
ENCODING 257
SWIDTH 369 0
DWIDTH 8 0
BBX 8 18 0 -4
BITMAP
00
00
00
00
3E
00
3E
03
03
3F
63
63
63
3F
00
00
00
00
ENDCHAR
STARTCHAR Abreve
ENCODING 258
SWIDTH 369 0
DWIDTH 8 0
BBX 8 18 0 -4
BITMAP
63
3E
00
1C
36
63
63
63
63
7F
63
63
63
63
00
00
00
00
ENDCHAR
STARTCHAR abreve
ENCODING 259
SWIDTH 369 0
DWIDTH 8 0
BBX 8 18 0 -4
BITMAP
00
00
00
63
3E
00
3E
03
03
3F
63
63
63
3F
00
00
00
00
ENDCHAR
STARTCHAR Aogonek
ENCODING 260
SWIDTH 369 0
DWIDTH 8 0
BBX 8 18 0 -4
BITMAP
00
00
00
1C
36
63
63
63
63
7F
63
63
63
63
06
0C
07
00
ENDCHAR
STARTCHAR aogonek
ENCODING 261
SWIDTH 369 0
DWIDTH 8 0
BBX 8 18 0 -4
BITMAP
00
00
00
00
00
00
3E
03
03
3F
63
63
63
3F
06
0C
07
00
ENDCHAR
STARTCHAR Cacute
ENCODING 262
SWIDTH 369 0
DWIDTH 8 0
BBX 8 18 0 -4
BITMAP
0E
38
00
3E
63
63
60
60
60
60
60
63
63
3E
00
00
00
00
ENDCHAR
STARTCHAR cacute
ENCODING 263
SWIDTH 369 0
DWIDTH 8 0
BBX 8 18 0 -4
BITMAP
00
0C
18
30
00
00
3E
63
60
60
60
60
63
3E
00
00
00
00
ENDCHAR
STARTCHAR Ccircumflex
ENCODING 264
SWIDTH 369 0
DWIDTH 8 0
BBX 8 18 0 -4
BITMAP
1C
36
00
3E
63
63
60
60
60
60
60
63
63
3E
00
00
00
00
ENDCHAR
STARTCHAR ccircumflex
ENCODING 265
SWIDTH 369 0
DWIDTH 8 0
BBX 8 18 0 -4
BITMAP
00
08
1C
36
63
00
3E
63
60
60
60
60
63
3E
00
00
00
00
ENDCHAR
STARTCHAR Cdotaccent
ENCODING 266
SWIDTH 369 0
DWIDTH 8 0
BBX 8 18 0 -4
BITMAP
0C
0C
00
3E
63
63
60
60
60
60
60
63
63
3E
00
00
00
00
ENDCHAR
STARTCHAR cdotaccent
ENCODING 267
SWIDTH 369 0
DWIDTH 8 0
BBX 8 18 0 -4
BITMAP
00
00
00
0C
0C
00
3E
63
60
60
60
60
63
3E
00
00
00
00
ENDCHAR
STARTCHAR Ccaron
ENCODING 268
SWIDTH 369 0
DWIDTH 8 0
BBX 8 18 0 -4
BITMAP
36
1C
08
3E
63
63
60
60
60
60
60
63
63
3E
00
00
00
00
ENDCHAR
STARTCHAR ccaron
ENCODING 269
SWIDTH 369 0
DWIDTH 8 0
BBX 8 18 0 -4
BITMAP
00
00
36
1C
08
00
3E
63
60
60
60
60
63
3E
00
00
00
00
ENDCHAR
STARTCHAR Dcaron
ENCODING 270
SWIDTH 369 0
DWIDTH 8 0
BBX 8 18 0 -4
BITMAP
36
1C
08
7C
66
63
63
63
63
63
63
63
66
7C
00
00
00
00
ENDCHAR
STARTCHAR dcaron
ENCODING 271
SWIDTH 369 0
DWIDTH 8 0
BBX 8 18 0 -4
BITMAP
36
1C
08
03
03
03
3B
67
63
63
63
63
63
3F
00
00
00
00
ENDCHAR
STARTCHAR Dcroat
ENCODING 272
SWIDTH 369 0
DWIDTH 8 0
BBX 8 18 0 -4
BITMAP
00
00
00
7C
66
63
63
63
7B
63
63
63
66
7C
00
00
00
00
ENDCHAR
STARTCHAR dcroat
ENCODING 273
SWIDTH 369 0
DWIDTH 8 0
BBX 8 18 0 -4
BITMAP
00
00
00
03
1F
03
3B
67
63
63
63
63
63
3F
00
00
00
00
ENDCHAR
STARTCHAR Emacron
ENCODING 274
SWIDTH 369 0
DWIDTH 8 0
BBX 8 18 0 -4
BITMAP
00
3E
00
7F
60
60
60
60
7E
60
60
60
60
7F
00
00
00
00
ENDCHAR
STARTCHAR emacron
ENCODING 275
SWIDTH 369 0
DWIDTH 8 0
BBX 8 18 0 -4
BITMAP
00
00
00
00
3E
00
3E
63
63
7F
60
60
63
3E
00
00
00
00
ENDCHAR
STARTCHAR Ebreve
ENCODING 276
SWIDTH 369 0
DWIDTH 8 0
BBX 8 18 0 -4
BITMAP
33
1E
00
7F
60
60
60
60
7E
60
60
60
60
7F
00
00
00
00
ENDCHAR
STARTCHAR ebreve
ENCODING 277
SWIDTH 369 0
DWIDTH 8 0
BBX 8 18 0 -4
BITMAP
00
00
21
33
1E
00
3E
63
63
7F
60
60
63
3E
00
00
00
00
ENDCHAR
STARTCHAR Edotaccent
ENCODING 278
SWIDTH 369 0
DWIDTH 8 0
BBX 8 18 0 -4
BITMAP
0C
0C
00
7F
60
60
60
60
7E
60
60
60
60
7F
00
00
00
00
ENDCHAR
STARTCHAR edotaccent
ENCODING 279
SWIDTH 369 0
DWIDTH 8 0
BBX 8 18 0 -4
BITMAP
00
00
00
18
18
00
3E
63
63
7F
60
60
63
3E
00
00
00
00
ENDCHAR
STARTCHAR Eogonek
ENCODING 280
SWIDTH 369 0
DWIDTH 8 0
BBX 8 18 0 -4
BITMAP
00
00
00
7F
60
60
60
60
7E
60
60
60
60
7F
06
0C
07
00
ENDCHAR
STARTCHAR eogonek
ENCODING 281
SWIDTH 369 0
DWIDTH 8 0
BBX 8 18 0 -4
BITMAP
00
00
00
00
00
00
3E
63
63
7F
60
60
63
3E
0C
18
0E
00
ENDCHAR
STARTCHAR Ecaron
ENCODING 282
SWIDTH 369 0
DWIDTH 8 0
BBX 8 18 0 -4
BITMAP
36
1C
08
7F
60
60
60
60
7E
60
60
60
60
7F
00
00
00
00
ENDCHAR
STARTCHAR ecaron
ENCODING 283
SWIDTH 369 0
DWIDTH 8 0
BBX 8 18 0 -4
BITMAP
00
00
36
1C
08
00
3E
63
63
7F
60
60
63
3E
00
00
00
00
ENDCHAR
STARTCHAR Gcircumflex
ENCODING 284
SWIDTH 369 0
DWIDTH 8 0
BBX 8 18 0 -4
BITMAP
1C
36
00
3E
63
63
60
60
60
67
63
63
63
3F
00
00
00
00
ENDCHAR
STARTCHAR gcircumflex
ENCODING 285
SWIDTH 369 0
DWIDTH 8 0
BBX 8 18 0 -4
BITMAP
00
08
1C
36
63
00
3B
67
63
63
63
63
67
3B
03
03
3E
00
ENDCHAR
STARTCHAR Gbreve
ENCODING 286
SWIDTH 369 0
DWIDTH 8 0
BBX 8 18 0 -4
BITMAP
63
3E
00
3E
63
63
60
60
60
67
63
63
63
3F
00
00
00
00
ENDCHAR
STARTCHAR gbreve
ENCODING 287
SWIDTH 369 0
DWIDTH 8 0
BBX 8 18 0 -4
BITMAP
00
00
63
3E
00
00
3B
67
63
63
63
63
67
3B
03
03
3E
00
ENDCHAR
STARTCHAR Gdotaccent
ENCODING 288
SWIDTH 369 0
DWIDTH 8 0
BBX 8 18 0 -4
BITMAP
0C
0C
00
3E
63
63
60
60
60
67
63
63
63
3F
00
00
00
00
ENDCHAR
STARTCHAR gdotaccent
ENCODING 289
SWIDTH 369 0
DWIDTH 8 0
BBX 8 18 0 -4
BITMAP
00
00
00
0C
0C
00
3B
67
63
63
63
63
67
3B
03
03
3E
00
ENDCHAR
STARTCHAR Gcommaaccent
ENCODING 290
SWIDTH 369 0
DWIDTH 8 0
BBX 8 18 0 -4
BITMAP
00
00
00
3E
63
63
60
60
60
67
63
63
63
3F
00
0C
18
00
ENDCHAR
STARTCHAR gcommaaccent
ENCODING 291
SWIDTH 369 0
DWIDTH 8 0
BBX 8 18 0 -4
BITMAP
00
00
00
0C
18
00
3B
67
63
63
63
63
67
3B
03
03
3E
00
ENDCHAR
STARTCHAR Hcircumflex
ENCODING 292
SWIDTH 369 0
DWIDTH 8 0
BBX 8 18 0 -4
BITMAP
1C
36
00
63
63
63
63
63
7F
63
63
63
63
63
00
00
00
00
ENDCHAR
STARTCHAR hcircumflex
ENCODING 293
SWIDTH 369 0
DWIDTH 8 0
BBX 8 18 0 -4
BITMAP
1C
36
00
60
60
60
6E
73
63
63
63
63
63
63
00
00
00
00
ENDCHAR
STARTCHAR Itilde
ENCODING 296
SWIDTH 369 0
DWIDTH 8 0
BBX 8 18 0 -4
BITMAP
1D
26
00
3F
0C
0C
0C
0C
0C
0C
0C
0C
0C
3F
00
00
00
00
ENDCHAR
STARTCHAR itilde
ENCODING 297
SWIDTH 369 0
DWIDTH 8 0
BBX 8 18 0 -4
BITMAP
00
00
19
2D
26
00
3C
0C
0C
0C
0C
0C
0C
3F
00
00
00
00
ENDCHAR
STARTCHAR Imacron
ENCODING 298
SWIDTH 369 0
DWIDTH 8 0
BBX 8 18 0 -4
BITMAP
00
3F
00
3F
0C
0C
0C
0C
0C
0C
0C
0C
0C
3F
00
00
00
00
ENDCHAR
STARTCHAR imacron
ENCODING 299
SWIDTH 369 0
DWIDTH 8 0
BBX 8 18 0 -4
BITMAP
00
00
00
00
3E
00
3C
0C
0C
0C
0C
0C
0C
3F
00
00
00
00
ENDCHAR
STARTCHAR Ibreve
ENCODING 300
SWIDTH 369 0
DWIDTH 8 0
BBX 8 18 0 -4
BITMAP
33
1E
00
3F
0C
0C
0C
0C
0C
0C
0C
0C
0C
3F
00
00
00
00
ENDCHAR
STARTCHAR ibreve
ENCODING 301
SWIDTH 369 0
DWIDTH 8 0
BBX 8 18 0 -4
BITMAP
00
00
21
33
1E
00
3C
0C
0C
0C
0C
0C
0C
3F
00
00
00
00
ENDCHAR
STARTCHAR Iogonek
ENCODING 302
SWIDTH 369 0
DWIDTH 8 0
BBX 8 18 0 -4
BITMAP
00
00
00
3F
0C
0C
0C
0C
0C
0C
0C
0C
0C
3F
06
0C
07
00
ENDCHAR
STARTCHAR iogonek
ENCODING 303
SWIDTH 369 0
DWIDTH 8 0
BBX 8 18 0 -4
BITMAP
00
00
00
0C
0C
00
3C
0C
0C
0C
0C
0C
0C
3F
06
0C
07
00
ENDCHAR
STARTCHAR Idotaccent
ENCODING 304
SWIDTH 369 0
DWIDTH 8 0
BBX 8 18 0 -4
BITMAP
18
18
00
7E
18
18
18
18
18
18
18
18
18
7E
00
00
00
00
ENDCHAR
STARTCHAR dotlessi
ENCODING 305
SWIDTH 369 0
DWIDTH 8 0
BBX 8 18 0 -4
BITMAP
00
00
00
00
00
00
3C
0C
0C
0C
0C
0C
0C
3F
00
00
00
00
ENDCHAR
STARTCHAR Jcircumflex
ENCODING 308
SWIDTH 369 0
DWIDTH 8 0
BBX 8 18 0 -4
BITMAP
0E
1B
00
1F
06
06
06
06
06
06
06
66
66
3C
00
00
00
00
ENDCHAR
STARTCHAR jcircumflex
ENCODING 309
SWIDTH 369 0
DWIDTH 8 0
BBX 8 18 0 -4
BITMAP
00
08
1C
36
63
00
3C
0C
0C
0C
0C
0C
0C
0C
0C
0C
78
00
ENDCHAR
STARTCHAR Kcommaaccent
ENCODING 310
SWIDTH 369 0
DWIDTH 8 0
BBX 8 18 0 -4
BITMAP
00
00
00
63
63
66
6C
78
78
6C
66
66
63
63
00
0C
18
00
ENDCHAR
STARTCHAR kcommaaccent
ENCODING 311
SWIDTH 369 0
DWIDTH 8 0
BBX 8 18 0 -4
BITMAP
00
00
00
60
60
60
63
66
6C
78
6C
66
63
63
00
0C
18
00
ENDCHAR
STARTCHAR kgreenlandic
ENCODING 312
SWIDTH 369 0
DWIDTH 8 0
BBX 8 18 0 -4
BITMAP
00
00
00
00
00
00
63
66
6C
78
6C
66
63
63
00
00
00
00
ENDCHAR
STARTCHAR Lacute
ENCODING 313
SWIDTH 369 0
DWIDTH 8 0
BBX 8 18 0 -4
BITMAP
0E
38
00
60
60
60
60
60
60
60
60
60
60
7F
00
00
00
00
ENDCHAR
STARTCHAR lacute
ENCODING 314
SWIDTH 369 0
DWIDTH 8 0
BBX 8 18 0 -4
BITMAP
0E
38
00
38
18
18
18
18
18
18
18
18
18
0E
00
00
00
00
ENDCHAR
STARTCHAR Lcommaaccent
ENCODING 315
SWIDTH 369 0
DWIDTH 8 0
BBX 8 18 0 -4
BITMAP
00
00
00
60
60
60
60
60
60
60
60
60
60
7F
00
0C
18
00
ENDCHAR
STARTCHAR lcommaaccent
ENCODING 316
SWIDTH 369 0
DWIDTH 8 0
BBX 8 18 0 -4
BITMAP
00
00
00
38
18
18
18
18
18
18
18
18
18
0E
00
0C
18
00
ENDCHAR
STARTCHAR Lcaron
ENCODING 317
SWIDTH 369 0
DWIDTH 8 0
BBX 8 18 0 -4
BITMAP
36
1C
08
60
60
60
60
60
60
60
60
60
60
7F
00
00
00
00
ENDCHAR
STARTCHAR lcaron
ENCODING 318
SWIDTH 369 0
DWIDTH 8 0
BBX 8 18 0 -4
BITMAP
36
1C
08
38
18
18
18
18
18
18
18
18
18
0E
00
00
00
00
ENDCHAR
STARTCHAR Ldot
ENCODING 319
SWIDTH 369 0
DWIDTH 8 0
BBX 8 18 0 -4
BITMAP
00
00
00
60
60
66
66
60
60
60
60
60
60
7F
00
00
00
00
ENDCHAR
STARTCHAR ldot
ENCODING 320
SWIDTH 369 0
DWIDTH 8 0
BBX 8 18 0 -4
BITMAP
00
00
00
38
18
1B
1B
18
18
18
18
18
18
0E
00
00
00
00
ENDCHAR
STARTCHAR Lslash
ENCODING 321
SWIDTH 369 0
DWIDTH 8 0
BBX 8 18 0 -4
BITMAP
00
00
00
30
30
30
34
38
30
70
30
30
30
3F
00
00
00
00
ENDCHAR
STARTCHAR lslash
ENCODING 322
SWIDTH 369 0
DWIDTH 8 0
BBX 8 18 0 -4
BITMAP
00
00
00
38
18
18
1A
1C
38
58
18
18
18
0E
00
00
00
00
ENDCHAR
STARTCHAR Nacute
ENCODING 323
SWIDTH 369 0
DWIDTH 8 0
BBX 8 18 0 -4
BITMAP
0E
38
00
63
63
73
73
7B
6B
6F
67
67
63
63
00
00
00
00
ENDCHAR
STARTCHAR nacute
ENCODING 324
SWIDTH 369 0
DWIDTH 8 0
BBX 8 18 0 -4
BITMAP
00
0C
18
30
00
00
6E
73
63
63
63
63
63
63
00
00
00
00
ENDCHAR
STARTCHAR Ncommaaccent
ENCODING 325
SWIDTH 369 0
DWIDTH 8 0
BBX 8 18 0 -4
BITMAP
00
00
00
63
63
73
73
7B
6B
6F
67
67
63
63
00
0C
18
00
ENDCHAR
STARTCHAR ncommaaccent
ENCODING 326
SWIDTH 369 0
DWIDTH 8 0
BBX 8 18 0 -4
BITMAP
00
00
00
00
00
00
6E
73
63
63
63
63
63
63
00
0C
18
00
ENDCHAR
STARTCHAR Ncaron
ENCODING 327
SWIDTH 369 0
DWIDTH 8 0
BBX 8 18 0 -4
BITMAP
36
1C
08
63
63
73
73
7B
6B
6F
67
67
63
63
00
00
00
00
ENDCHAR
STARTCHAR ncaron
ENCODING 328
SWIDTH 369 0
DWIDTH 8 0
BBX 8 18 0 -4
BITMAP
00
00
36
1C
08
00
6E
73
63
63
63
63
63
63
00
00
00
00
ENDCHAR
STARTCHAR Omacron
ENCODING 332
SWIDTH 369 0
DWIDTH 8 0
BBX 8 18 0 -4
BITMAP
00
3E
00
3E
63
63
63
63
63
63
63
63
63
3E
00
00
00
00
ENDCHAR
STARTCHAR omacron
ENCODING 333
SWIDTH 369 0
DWIDTH 8 0
BBX 8 18 0 -4
BITMAP
00
00
00
00
3E
00
3E
63
63
63
63
63
63
3E
00
00
00
00
ENDCHAR
STARTCHAR Obreve
ENCODING 334
SWIDTH 369 0
DWIDTH 8 0
BBX 8 18 0 -4
BITMAP
33
1E
00
3E
63
63
63
63
63
63
63
63
63
3E
00
00
00
00
ENDCHAR
STARTCHAR obreve
ENCODING 335
SWIDTH 369 0
DWIDTH 8 0
BBX 8 18 0 -4
BITMAP
00
00
21
33
1E
00
3E
63
63
63
63
63
63
3E
00
00
00
00
ENDCHAR
STARTCHAR Ohungarumlaut
ENCODING 336
SWIDTH 369 0
DWIDTH 8 0
BBX 8 18 0 -4
BITMAP
33
66
00
3E
63
63
63
63
63
63
63
63
63
3E
00
00
00
00
ENDCHAR
STARTCHAR ohungarumlaut
ENCODING 337
SWIDTH 369 0
DWIDTH 8 0
BBX 8 18 0 -4
BITMAP
00
11
33
66
00
00
3E
63
63
63
63
63
63
3E
00
00
00
00
ENDCHAR
STARTCHAR OE
ENCODING 338
SWIDTH 369 0
DWIDTH 8 0
BBX 8 18 0 -4
BITMAP
00
00
3F
6C
6C
6C
6C
6F
6C
6C
6C
6C
6C
3F
00
00
00
00
ENDCHAR
STARTCHAR oe
ENCODING 339
SWIDTH 369 0
DWIDTH 8 0
BBX 8 18 0 -4
BITMAP
00
00
00
00
00
00
36
6D
6D
6D
6F
6C
6C
37
00
00
00
00
ENDCHAR
STARTCHAR Racute
ENCODING 340
SWIDTH 369 0
DWIDTH 8 0
BBX 8 18 0 -4
BITMAP
0E
38
00
7E
63
63
63
63
7E
6C
66
66
63
63
00
00
00
00
ENDCHAR
STARTCHAR racute
ENCODING 341
SWIDTH 369 0
DWIDTH 8 0
BBX 8 18 0 -4
BITMAP
00
0C
18
30
00
00
6E
77
60
60
60
60
60
60
00
00
00
00
ENDCHAR
STARTCHAR Rcommaaccent
ENCODING 342
SWIDTH 369 0
DWIDTH 8 0
BBX 8 18 0 -4
BITMAP
00
00
00
7E
63
63
63
63
7E
6C
66
66
63
63
00
0C
18
00
ENDCHAR
STARTCHAR rcommaaccent
ENCODING 343
SWIDTH 369 0
DWIDTH 8 0
BBX 8 18 0 -4
BITMAP
00
00
00
00
00
00
6E
77
60
60
60
60
60
60
00
30
60
00
ENDCHAR
STARTCHAR Rcaron
ENCODING 344
SWIDTH 369 0
DWIDTH 8 0
BBX 8 18 0 -4
BITMAP
36
1C
08
7E
63
63
63
63
7E
6C
66
66
63
63
00
00
00
00
ENDCHAR
STARTCHAR rcaron
ENCODING 345
SWIDTH 369 0
DWIDTH 8 0
BBX 8 18 0 -4
BITMAP
00
00
36
1C
08
00
6E
77
60
60
60
60
60
60
00
00
00
00
ENDCHAR
STARTCHAR Sacute
ENCODING 346
SWIDTH 369 0
DWIDTH 8 0
BBX 8 18 0 -4
BITMAP
0E
38
00
3E
63
63
60
38
0E
03
03
63
63
3E
00
00
00
00
ENDCHAR
STARTCHAR sacute
ENCODING 347
SWIDTH 369 0
DWIDTH 8 0
BBX 8 18 0 -4
BITMAP
00
0C
18
30
00
00
3E
63
60
38
0E
03
63
3E
00
00
00
00
ENDCHAR
STARTCHAR Scircumflex
ENCODING 348
SWIDTH 369 0
DWIDTH 8 0
BBX 8 18 0 -4
BITMAP
36
63
00
3E
63
63
60
38
0E
03
03
63
63
3E
00
00
00
00
ENDCHAR
STARTCHAR scircumflex
ENCODING 349
SWIDTH 369 0
DWIDTH 8 0
BBX 8 18 0 -4
BITMAP
00
08
1C
36
63
00
3E
63
60
38
0E
03
63
3E
00
00
00
00
ENDCHAR
STARTCHAR Scedilla
ENCODING 350
SWIDTH 369 0
DWIDTH 8 0
BBX 8 18 0 -4
BITMAP
00
00
00
3E
63
63
60
38
0E
03
03
63
63
3E
0C
06
1C
00
ENDCHAR
STARTCHAR scedilla
ENCODING 351
SWIDTH 369 0
DWIDTH 8 0
BBX 8 18 0 -4
BITMAP
00
00
00
00
00
00
3E
63
60
38
0E
03
63
3E
0C
06
1C
00
ENDCHAR
STARTCHAR Scaron
ENCODING 352
SWIDTH 369 0
DWIDTH 8 0
BBX 8 18 0 -4
BITMAP
36
1C
08
3E
63
63
60
38
0E
03
03
63
63
3E
00
00
00
00
ENDCHAR
STARTCHAR scaron
ENCODING 353
SWIDTH 369 0
DWIDTH 8 0
BBX 8 18 0 -4
BITMAP
00
00
36
1C
08
00
3E
63
60
38
0E
03
63
3E
00
00
00
00
ENDCHAR
STARTCHAR Tcommaaccent
ENCODING 354
SWIDTH 369 0
DWIDTH 8 0
BBX 8 18 0 -4
BITMAP
00
00
00
7E
18
18
18
18
18
18
18
18
18
18
0C
06
1C
00
ENDCHAR
STARTCHAR tcommaaccent
ENCODING 355
SWIDTH 369 0
DWIDTH 8 0
BBX 8 18 0 -4
BITMAP
00
00
00
18
18
18
7E
18
18
18
18
18
18
0E
0C
06
1C
00
ENDCHAR
STARTCHAR Tcaron
ENCODING 356
SWIDTH 369 0
DWIDTH 8 0
BBX 8 18 0 -4
BITMAP
36
1C
08
7E
18
18
18
18
18
18
18
18
18
18
00
00
00
00
ENDCHAR
STARTCHAR tcaron
ENCODING 357
SWIDTH 369 0
DWIDTH 8 0
BBX 8 18 0 -4
BITMAP
36
1C
08
00
18
18
7E
18
18
18
18
18
18
0E
00
00
00
00
ENDCHAR
STARTCHAR Tbar
ENCODING 358
SWIDTH 369 0
DWIDTH 8 0
BBX 8 18 0 -4
BITMAP
00
00
00
7E
18
18
18
18
3C
18
18
18
18
18
00
00
00
00
ENDCHAR
STARTCHAR tbar
ENCODING 359
SWIDTH 369 0
DWIDTH 8 0
BBX 8 18 0 -4
BITMAP
00
00
00
18
18
18
7E
18
18
3C
18
18
18
0E
00
00
00
00
ENDCHAR
STARTCHAR Utilde
ENCODING 360
SWIDTH 369 0
DWIDTH 8 0
BBX 8 18 0 -4
BITMAP
1D
26
00
63
63
63
63
63
63
63
63
63
63
3E
00
00
00
00
ENDCHAR
STARTCHAR utilde
ENCODING 361
SWIDTH 369 0
DWIDTH 8 0
BBX 8 18 0 -4
BITMAP
00
00
19
2D
26
00
63
63
63
63
63
63
67
3B
00
00
00
00
ENDCHAR
STARTCHAR Umacron
ENCODING 362
SWIDTH 369 0
DWIDTH 8 0
BBX 8 18 0 -4
BITMAP
00
3E
00
63
63
63
63
63
63
63
63
63
63
3E
00
00
00
00
ENDCHAR
STARTCHAR umacron
ENCODING 363
SWIDTH 369 0
DWIDTH 8 0
BBX 8 18 0 -4
BITMAP
00
00
00
00
3E
00
63
63
63
63
63
63
67
3B
00
00
00
00
ENDCHAR
STARTCHAR Ubreve
ENCODING 364
SWIDTH 369 0
DWIDTH 8 0
BBX 8 18 0 -4
BITMAP
33
1E
00
63
63
63
63
63
63
63
63
63
63
3E
00
00
00
00
ENDCHAR
STARTCHAR ubreve
ENCODING 365
SWIDTH 369 0
DWIDTH 8 0
BBX 8 18 0 -4
BITMAP
00
00
21
33
1E
00
63
63
63
63
63
63
67
3B
00
00
00
00
ENDCHAR
STARTCHAR Uring
ENCODING 366
SWIDTH 369 0
DWIDTH 8 0
BBX 8 18 0 -4
BITMAP
1C
36
1C
00
63
63
63
63
63
63
63
63
63
3E
00
00
00
00
ENDCHAR
STARTCHAR uring
ENCODING 367
SWIDTH 369 0
DWIDTH 8 0
BBX 8 18 0 -4
BITMAP
00
1C
36
36
1C
00
63
63
63
63
63
63
67
3B
00
00
00
00
ENDCHAR
STARTCHAR Uhungarumlaut
ENCODING 368
SWIDTH 369 0
DWIDTH 8 0
BBX 8 18 0 -4
BITMAP
33
66
00
63
63
63
63
63
63
63
63
63
63
3E
00
00
00
00
ENDCHAR
STARTCHAR uhungarumlaut
ENCODING 369
SWIDTH 369 0
DWIDTH 8 0
BBX 8 18 0 -4
BITMAP
00
11
33
66
00
00
63
63
63
63
63
63
67
3B
00
00
00
00
ENDCHAR
STARTCHAR Uogonek
ENCODING 370
SWIDTH 369 0
DWIDTH 8 0
BBX 8 18 0 -4
BITMAP
00
00
00
63
63
63
63
63
63
63
63
63
63
3E
06
0C
07
00
ENDCHAR
STARTCHAR uogonek
ENCODING 371
SWIDTH 369 0
DWIDTH 8 0
BBX 8 18 0 -4
BITMAP
00
00
00
00
00
00
63
63
63
63
63
63
67
3B
06
0C
07
00
ENDCHAR
STARTCHAR Wcircumflex
ENCODING 372
SWIDTH 369 0
DWIDTH 8 0
BBX 8 18 0 -4
BITMAP
1C
36
63
00
63
63
63
63
6B
6B
6B
6B
36
36
00
00
00
00
ENDCHAR
STARTCHAR wcircumflex
ENCODING 373
SWIDTH 369 0
DWIDTH 8 0
BBX 8 18 0 -4
BITMAP
00
08
1C
36
63
00
63
63
63
63
6B
6B
6B
36
00
00
00
00
ENDCHAR
STARTCHAR Ycircumflex
ENCODING 374
SWIDTH 369 0
DWIDTH 8 0
BBX 8 18 0 -4
BITMAP
00
1C
36
00
66
66
66
66
3C
18
18
18
18
18
00
00
00
00
ENDCHAR
STARTCHAR ycircumflex
ENCODING 375
SWIDTH 369 0
DWIDTH 8 0
BBX 8 18 0 -4
BITMAP
00
08
1C
36
63
00
63
63
63
63
63
63
67
3B
03
03
3E
00
ENDCHAR
STARTCHAR Ydieresis
ENCODING 376
SWIDTH 369 0
DWIDTH 8 0
BBX 8 18 0 -4
BITMAP
00
66
66
00
66
66
66
66
3C
18
18
18
18
18
00
00
00
00
ENDCHAR
STARTCHAR Zacute
ENCODING 377
SWIDTH 369 0
DWIDTH 8 0
BBX 8 18 0 -4
BITMAP
0E
38
00
7F
03
06
06
0C
0C
18
18
30
30
7F
00
00
00
00
ENDCHAR
STARTCHAR zacute
ENCODING 378
SWIDTH 369 0
DWIDTH 8 0
BBX 8 18 0 -4
BITMAP
00
0C
18
30
00
00
7F
03
06
0C
18
30
60
7F
00
00
00
00
ENDCHAR
STARTCHAR Zdotaccent
ENCODING 379
SWIDTH 369 0
DWIDTH 8 0
BBX 8 18 0 -4
BITMAP
18
18
00
7F
03
06
06
0C
0C
18
18
30
30
7F
00
00
00
00
ENDCHAR
STARTCHAR zdotaccent
ENCODING 380
SWIDTH 369 0
DWIDTH 8 0
BBX 8 18 0 -4
BITMAP
00
00
00
18
18
00
7F
03
06
0C
18
30
60
7F
00
00
00
00
ENDCHAR
STARTCHAR Zcaron
ENCODING 381
SWIDTH 369 0
DWIDTH 8 0
BBX 8 18 0 -4
BITMAP
36
1C
08
7F
03
06
06
0C
0C
18
18
30
30
7F
00
00
00
00
ENDCHAR
STARTCHAR zcaron
ENCODING 382
SWIDTH 369 0
DWIDTH 8 0
BBX 8 18 0 -4
BITMAP
00
00
36
1C
08
00
7F
03
06
0C
18
30
60
7F
00
00
00
00
ENDCHAR
STARTCHAR longs
ENCODING 383
SWIDTH 369 0
DWIDTH 8 0
BBX 8 18 0 -4
BITMAP
00
00
0C
1A
18
18
18
18
78
18
18
18
18
18
18
58
30
00
ENDCHAR
STARTCHAR florin
ENCODING 402
SWIDTH 369 0
DWIDTH 8 0
BBX 8 18 0 -4
BITMAP
00
00
0C
1A
18
18
18
18
7E
18
18
18
18
18
18
58
30
00
ENDCHAR
STARTCHAR uni01DD
ENCODING 477
SWIDTH 369 0
DWIDTH 8 0
BBX 8 18 0 -4
BITMAP
00
00
00
3C
66
03
03
3F
63
63
63
63
63
3E
00
00
00
00
ENDCHAR
STARTCHAR Gcaron
ENCODING 486
SWIDTH 369 0
DWIDTH 8 0
BBX 8 18 0 -4
BITMAP
36
1C
00
3E
63
63
60
60
60
67
63
63
63
3F
00
00
00
00
ENDCHAR
STARTCHAR gcaron
ENCODING 487
SWIDTH 369 0
DWIDTH 8 0
BBX 8 18 0 -4
BITMAP
00
63
36
1C
08
00
3B
67
63
63
63
63
67
3B
03
03
3E
00
ENDCHAR
STARTCHAR Scommaaccent
ENCODING 536
SWIDTH 369 0
DWIDTH 8 0
BBX 8 18 0 -4
BITMAP
00
00
00
3E
63
63
60
38
0E
03
03
63
63
3E
00
0C
06
1C
ENDCHAR
STARTCHAR scommaaccent
ENCODING 537
SWIDTH 369 0
DWIDTH 8 0
BBX 8 18 0 -4
BITMAP
00
00
00
00
00
00
3E
63
60
38
0E
03
63
3E
00
0C
06
1C
ENDCHAR
STARTCHAR circumflex
ENCODING 710
SWIDTH 369 0
DWIDTH 8 0
BBX 8 18 0 -4
BITMAP
00
08
1C
36
63
00
00
00
00
00
00
00
00
00
00
00
00
00
ENDCHAR
STARTCHAR caron
ENCODING 711
SWIDTH 369 0
DWIDTH 8 0
BBX 8 18 0 -4
BITMAP
00
00
63
36
1C
08
00
00
00
00
00
00
00
00
00
00
00
00
ENDCHAR
STARTCHAR breve
ENCODING 728
SWIDTH 369 0
DWIDTH 8 0
BBX 8 18 0 -4
BITMAP
00
00
42
66
3C
00
00
00
00
00
00
00
00
00
00
00
00
00
ENDCHAR
STARTCHAR dotaccent
ENCODING 729
SWIDTH 369 0
DWIDTH 8 0
BBX 8 18 0 -4
BITMAP
00
00
18
18
00
00
00
00
00
00
00
00
00
00
00
00
00
00
ENDCHAR
STARTCHAR ring
ENCODING 730
SWIDTH 369 0
DWIDTH 8 0
BBX 8 18 0 -4
BITMAP
00
00
3C
66
66
66
3C
00
00
00
00
00
00
00
00
00
00
00
ENDCHAR
STARTCHAR ogonek
ENCODING 731
SWIDTH 369 0
DWIDTH 8 0
BBX 8 18 0 -4
BITMAP
00
00
00
00
00
00
00
00
00
00
00
00
00
00
18
30
1C
00
ENDCHAR
STARTCHAR tilde
ENCODING 732
SWIDTH 369 0
DWIDTH 8 0
BBX 8 18 0 -4
BITMAP
00
00
32
5A
4C
00
00
00
00
00
00
00
00
00
00
00
00
00
ENDCHAR
STARTCHAR hungarumlaut
ENCODING 733
SWIDTH 369 0
DWIDTH 8 0
BBX 8 18 0 -4
BITMAP
00
00
33
66
44
00
00
00
00
00
00
00
00
00
00
00
00
00
ENDCHAR
STARTCHAR uni0308
ENCODING 776
SWIDTH 369 0
DWIDTH 8 0
BBX 8 18 0 -4
BITMAP
00
00
66
66
00
00
00
00
00
00
00
00
00
00
00
00
00
00
ENDCHAR
STARTCHAR uni030B
ENCODING 779
SWIDTH 369 0
DWIDTH 8 0
BBX 8 18 0 -4
BITMAP
00
00
33
66
44
00
00
00
00
00
00
00
00
00
00
00
00
00
ENDCHAR
STARTCHAR tonos
ENCODING 900
SWIDTH 369 0
DWIDTH 8 0
BBX 8 18 0 -4
BITMAP
00
06
0C
18
00
00
00
00
00
00
00
00
00
00
00
00
00
00
ENDCHAR
STARTCHAR dieresistonos
ENCODING 901
SWIDTH 369 0
DWIDTH 8 0
BBX 8 18 0 -4
BITMAP
00
06
0C
18
00
66
66
00
00
00
00
00
00
00
00
00
00
00
ENDCHAR
STARTCHAR Alphatonos
ENCODING 902
SWIDTH 369 0
DWIDTH 8 0
BBX 8 18 0 -4
BITMAP
00
00
00
4C
5E
73
33
33
33
3F
33
33
33
33
00
00
00
00
ENDCHAR
STARTCHAR anoteleia
ENCODING 903
SWIDTH 369 0
DWIDTH 8 0
BBX 8 18 0 -4
BITMAP
00
00
00
00
00
00
00
00
18
18
00
00
00
00
00
00
00
00
ENDCHAR
STARTCHAR Epsilontonos
ENCODING 904
SWIDTH 369 0
DWIDTH 8 0
BBX 8 18 0 -4
BITMAP
00
00
00
5F
58
58
18
18
1E
18
18
18
18
1F
00
00
00
00
ENDCHAR
STARTCHAR Etatonos
ENCODING 905
SWIDTH 369 0
DWIDTH 8 0
BBX 8 18 0 -4
BITMAP
00
00
00
5B
5B
5B
1B
1B
1F
1B
1B
1B
1B
1B
00
00
00
00
ENDCHAR
STARTCHAR Iotatonos
ENCODING 906
SWIDTH 369 0
DWIDTH 8 0
BBX 8 18 0 -4
BITMAP
00
00
00
5E
4C
4C
0C
0C
0C
0C
0C
0C
0C
1E
00
00
00
00
ENDCHAR
STARTCHAR Omicrontonos
ENCODING 908
SWIDTH 369 0
DWIDTH 8 0
BBX 8 18 0 -4
BITMAP
00
00
00
4E
5B
5B
1B
1B
1B
1B
1B
1B
1B
0E
00
00
00
00
ENDCHAR
STARTCHAR Upsilontonos
ENCODING 910
SWIDTH 369 0
DWIDTH 8 0
BBX 8 18 0 -4
BITMAP
00
00
00
B3
B3
B3
33
33
1E
0C
0C
0C
0C
0C
00
00
00
00
ENDCHAR
STARTCHAR Omegatonos
ENCODING 911
SWIDTH 369 0
DWIDTH 8 0
BBX 8 18 0 -4
BITMAP
00
00
00
4C
5E
73
33
33
33
33
33
1E
0C
3F
00
00
00
00
ENDCHAR
STARTCHAR iotadieresistonos
ENCODING 912
SWIDTH 369 0
DWIDTH 8 0
BBX 8 18 0 -4
BITMAP
06
0C
18
66
66
00
38
18
18
18
18
18
1A
0C
00
00
00
00
ENDCHAR
STARTCHAR Alpha
ENCODING 913
SWIDTH 369 0
DWIDTH 8 0
BBX 8 18 0 -4
BITMAP
00
00
00
1C
36
63
63
63
63
7F
63
63
63
63
00
00
00
00
ENDCHAR
STARTCHAR Beta
ENCODING 914
SWIDTH 369 0
DWIDTH 8 0
BBX 8 18 0 -4
BITMAP
00
00
00
7E
63
63
63
63
7E
63
63
63
63
7E
00
00
00
00
ENDCHAR
STARTCHAR Gamma
ENCODING 915
SWIDTH 369 0
DWIDTH 8 0
BBX 8 18 0 -4
BITMAP
00
00
00
3F
30
30
30
30
30
30
30
30
30
30
00
00
00
00
ENDCHAR
STARTCHAR Delta
ENCODING 916
SWIDTH 369 0
DWIDTH 8 0
BBX 8 18 0 -4
BITMAP
00
00
00
1C
36
63
63
63
63
63
63
63
63
7F
00
00
00
00
ENDCHAR
STARTCHAR Epsilon
ENCODING 917
SWIDTH 369 0
DWIDTH 8 0
BBX 8 18 0 -4
BITMAP
00
00
00
7F
60
60
60
60
7E
60
60
60
60
7F
00
00
00
00
ENDCHAR
STARTCHAR Zeta
ENCODING 918
SWIDTH 369 0
DWIDTH 8 0
BBX 8 18 0 -4
BITMAP
00
00
00
7F
03
06
06
0C
0C
18
18
30
30
7F
00
00
00
00
ENDCHAR
STARTCHAR Eta
ENCODING 919
SWIDTH 369 0
DWIDTH 8 0
BBX 8 18 0 -4
BITMAP
00
00
00
63
63
63
63
63
7F
63
63
63
63
63
00
00
00
00
ENDCHAR
STARTCHAR Theta
ENCODING 920
SWIDTH 369 0
DWIDTH 8 0
BBX 8 18 0 -4
BITMAP
00
00
00
1C
36
63
63
33
1F
63
63
63
36
1C
00
00
00
00
ENDCHAR
STARTCHAR Iota
ENCODING 921
SWIDTH 369 0
DWIDTH 8 0
BBX 8 18 0 -4
BITMAP
00
00
00
3F
0C
0C
0C
0C
0C
0C
0C
0C
0C
3F
00
00
00
00
ENDCHAR
STARTCHAR Kappa
ENCODING 922
SWIDTH 369 0
DWIDTH 8 0
BBX 8 18 0 -4
BITMAP
00
00
00
63
63
66
6C
78
78
6C
66
66
63
63
00
00
00
00
ENDCHAR
STARTCHAR Lambda
ENCODING 923
SWIDTH 369 0
DWIDTH 8 0
BBX 8 18 0 -4
BITMAP
00
00
00
1C
36
63
63
63
63
63
63
63
63
63
00
00
00
00
ENDCHAR
STARTCHAR Mu
ENCODING 924
SWIDTH 369 0
DWIDTH 8 0
BBX 8 18 0 -4
BITMAP
00
00
00
41
63
77
7F
6B
6B
63
63
63
63
63
00
00
00
00
ENDCHAR
STARTCHAR Nu
ENCODING 925
SWIDTH 369 0
DWIDTH 8 0
BBX 8 18 0 -4
BITMAP
00
00
00
63
63
73
73
7B
6B
6F
67
67
63
63
00
00
00
00
ENDCHAR
STARTCHAR Xi
ENCODING 926
SWIDTH 369 0
DWIDTH 8 0
BBX 8 18 0 -4
BITMAP
00
00
00
7F
7F
00
00
3E
3E
00
00
00
7F
7F
00
00
00
00
ENDCHAR
STARTCHAR Omicron
ENCODING 927
SWIDTH 369 0
DWIDTH 8 0
BBX 8 18 0 -4
BITMAP
00
00
00
3E
63
63
63
63
63
63
63
63
63
3E
00
00
00
00
ENDCHAR
STARTCHAR Pi
ENCODING 928
SWIDTH 369 0
DWIDTH 8 0
BBX 8 18 0 -4
BITMAP
00
00
00
7F
63
63
63
63
63
63
63
63
63
63
00
00
00
00
ENDCHAR
STARTCHAR Rho
ENCODING 929
SWIDTH 369 0
DWIDTH 8 0
BBX 8 18 0 -4
BITMAP
00
00
00
7E
63
63
63
63
63
7E
60
60
60
60
00
00
00
00
ENDCHAR
STARTCHAR Sigma
ENCODING 931
SWIDTH 369 0
DWIDTH 8 0
BBX 8 18 0 -4
BITMAP
00
00
00
7F
60
30
18
0C
06
0C
18
30
60
7F
00
00
00
00
ENDCHAR
STARTCHAR Tau
ENCODING 932
SWIDTH 369 0
DWIDTH 8 0
BBX 8 18 0 -4
BITMAP
00
00
00
7E
18
18
18
18
18
18
18
18
18
18
00
00
00
00
ENDCHAR
STARTCHAR Upsilon
ENCODING 933
SWIDTH 369 0
DWIDTH 8 0
BBX 8 18 0 -4
BITMAP
00
00
00
66
66
66
66
66
3C
18
18
18
18
18
00
00
00
00
ENDCHAR
STARTCHAR Phi
ENCODING 934
SWIDTH 369 0
DWIDTH 8 0
BBX 8 18 0 -4
BITMAP
00
00
00
08
3E
6B
6B
6B
6B
6B
6B
6B
3E
08
00
00
00
00
ENDCHAR
STARTCHAR Chi
ENCODING 935
SWIDTH 369 0
DWIDTH 8 0
BBX 8 18 0 -4
BITMAP
00
00
00
63
63
63
36
1C
1C
36
63
63
63
63
00
00
00
00
ENDCHAR
STARTCHAR Psi
ENCODING 936
SWIDTH 369 0
DWIDTH 8 0
BBX 8 18 0 -4
BITMAP
00
00
00
63
63
6B
6B
6B
6B
6B
6B
3E
08
08
00
00
00
00
ENDCHAR
STARTCHAR Omega
ENCODING 937
SWIDTH 369 0
DWIDTH 8 0
BBX 8 18 0 -4
BITMAP
00
00
00
1C
36
63
63
63
63
63
63
36
14
77
00
00
00
00
ENDCHAR
STARTCHAR Iotadieresis
ENCODING 938
SWIDTH 369 0
DWIDTH 8 0
BBX 8 18 0 -4
BITMAP
00
33
33
00
3F
0C
0C
0C
0C
0C
0C
0C
0C
3F
00
00
00
00
ENDCHAR
STARTCHAR Upsilondieresis
ENCODING 939
SWIDTH 369 0
DWIDTH 8 0
BBX 8 18 0 -4
BITMAP
00
66
66
00
66
66
66
66
3C
18
18
18
18
18
00
00
00
00
ENDCHAR
STARTCHAR alphatonos
ENCODING 940
SWIDTH 369 0
DWIDTH 8 0
BBX 8 18 0 -4
BITMAP
00
06
0C
18
00
00
3B
66
66
66
66
66
66
3B
00
00
00
00
ENDCHAR
STARTCHAR epsilontonos
ENCODING 941
SWIDTH 369 0
DWIDTH 8 0
BBX 8 18 0 -4
BITMAP
00
06
0C
18
00
00
3E
63
60
3C
60
60
63
3E
00
00
00
00
ENDCHAR
STARTCHAR etatonos
ENCODING 942
SWIDTH 369 0
DWIDTH 8 0
BBX 8 18 0 -4
BITMAP
00
0C
18
30
00
00
6E
73
63
63
63
63
63
63
03
03
00
00
ENDCHAR
STARTCHAR iotatonos
ENCODING 943
SWIDTH 369 0
DWIDTH 8 0
BBX 8 18 0 -4
BITMAP
00
06
0C
18
00
00
38
18
18
18
18
18
1A
0C
00
00
00
00
ENDCHAR
STARTCHAR upsilondieresistonos
ENCODING 944
SWIDTH 369 0
DWIDTH 8 0
BBX 8 18 0 -4
BITMAP
00
04
08
52
00
00
63
63
63
63
63
63
63
3E
00
00
00
00
ENDCHAR
STARTCHAR alpha
ENCODING 945
SWIDTH 369 0
DWIDTH 8 0
BBX 8 18 0 -4
BITMAP
00
00
00
00
00
00
3B
66
66
66
66
66
66
3B
00
00
00
00
ENDCHAR
STARTCHAR beta
ENCODING 946
SWIDTH 369 0
DWIDTH 8 0
BBX 8 18 0 -4
BITMAP
00
00
00
3C
66
66
66
6C
66
63
63
63
73
6E
60
60
00
00
ENDCHAR
STARTCHAR gamma
ENCODING 947
SWIDTH 369 0
DWIDTH 8 0
BBX 8 18 0 -4
BITMAP
00
00
00
00
00
00
63
63
36
1C
1C
3E
77
63
63
63
3E
1C
ENDCHAR
STARTCHAR delta
ENCODING 948
SWIDTH 369 0
DWIDTH 8 0
BBX 8 18 0 -4
BITMAP
00
00
00
3E
30
18
0C
3E
63
63
63
63
63
3E
00
00
00
00
ENDCHAR
STARTCHAR epsilon
ENCODING 949
SWIDTH 369 0
DWIDTH 8 0
BBX 8 18 0 -4
BITMAP
00
00
00
00
00
00
3E
63
60
3C
60
60
63
3E
00
00
00
00
ENDCHAR
STARTCHAR zeta
ENCODING 950
SWIDTH 369 0
DWIDTH 8 0
BBX 8 18 0 -4
BITMAP
00
00
00
7E
18
30
60
60
60
60
60
30
1C
06
06
06
3C
00
ENDCHAR
STARTCHAR eta
ENCODING 951
SWIDTH 369 0
DWIDTH 8 0
BBX 8 18 0 -4
BITMAP
00
00
00
00
00
00
6E
73
63
63
63
63
63
63
03
03
00
00
ENDCHAR
STARTCHAR theta
ENCODING 952
SWIDTH 369 0
DWIDTH 8 0
BBX 8 18 0 -4
BITMAP
00
00
00
3E
63
63
63
63
3F
63
63
63
63
3E
00
00
00
00
ENDCHAR
STARTCHAR iota
ENCODING 953
SWIDTH 369 0
DWIDTH 8 0
BBX 8 18 0 -4
BITMAP
00
00
00
00
00
00
38
18
18
18
18
18
1A
0C
00
00
00
00
ENDCHAR
STARTCHAR kappa
ENCODING 954
SWIDTH 369 0
DWIDTH 8 0
BBX 8 18 0 -4
BITMAP
00
00
00
00
00
00
63
66
6C
78
6C
66
63
63
00
00
00
00
ENDCHAR
STARTCHAR lambda
ENCODING 955
SWIDTH 369 0
DWIDTH 8 0
BBX 8 18 0 -4
BITMAP
00
00
00
3E
63
03
03
1F
33
63
63
63
63
63
00
00
00
00
ENDCHAR
STARTCHAR mu
ENCODING 956
SWIDTH 369 0
DWIDTH 8 0
BBX 8 18 0 -4
BITMAP
00
00
00
00
00
00
66
66
66
66
66
66
66
7D
60
60
60
00
ENDCHAR
STARTCHAR nu
ENCODING 957
SWIDTH 369 0
DWIDTH 8 0
BBX 8 18 0 -4
BITMAP
00
00
00
00
00
00
63
63
63
63
66
2C
38
10
00
00
00
00
ENDCHAR
STARTCHAR xi
ENCODING 958
SWIDTH 369 0
DWIDTH 8 0
BBX 8 18 0 -4
BITMAP
00
00
00
7E
18
30
60
60
38
60
60
30
1C
06
06
06
3C
00
ENDCHAR
STARTCHAR omicron
ENCODING 959
SWIDTH 369 0
DWIDTH 8 0
BBX 8 18 0 -4
BITMAP
00
00
00
00
00
00
3E
63
63
63
63
63
63
3E
00
00
00
00
ENDCHAR
STARTCHAR pi
ENCODING 960
SWIDTH 369 0
DWIDTH 8 0
BBX 8 18 0 -4
BITMAP
00
00
00
00
00
00
7F
36
36
36
36
36
36
36
00
00
00
00
ENDCHAR
STARTCHAR rho
ENCODING 961
SWIDTH 369 0
DWIDTH 8 0
BBX 8 18 0 -4
BITMAP
00
00
00
00
00
00
3E
63
63
63
63
63
73
6E
60
60
60
00
ENDCHAR
STARTCHAR sigma1
ENCODING 962
SWIDTH 369 0
DWIDTH 8 0
BBX 8 18 0 -4
BITMAP
00
00
00
00
00
00
1E
31
60
60
60
60
30
1E
03
03
3E
00
ENDCHAR
STARTCHAR sigma
ENCODING 963
SWIDTH 369 0
DWIDTH 8 0
BBX 8 18 0 -4
BITMAP
00
00
00
00
00
00
3F
64
66
66
66
66
66
3C
00
00
00
00
ENDCHAR
STARTCHAR tau
ENCODING 964
SWIDTH 369 0
DWIDTH 8 0
BBX 8 18 0 -4
BITMAP
00
00
00
00
00
00
3F
0C
0C
0C
0C
0C
0C
0C
00
00
00
00
ENDCHAR
STARTCHAR upsilon
ENCODING 965
SWIDTH 369 0
DWIDTH 8 0
BBX 8 18 0 -4
BITMAP
00
00
00
00
00
00
63
63
63
63
63
63
63
3E
00
00
00
00
ENDCHAR
STARTCHAR phi
ENCODING 966
SWIDTH 369 0
DWIDTH 8 0
BBX 8 18 0 -4
BITMAP
00
00
00
00
00
00
3E
6B
6B
6B
6B
6B
6B
3E
08
08
08
00
ENDCHAR
STARTCHAR chi
ENCODING 967
SWIDTH 369 0
DWIDTH 8 0
BBX 8 18 0 -4
BITMAP
00
00
00
00
00
00
63
63
36
1C
1C
36
63
63
00
00
00
00
ENDCHAR
STARTCHAR psi
ENCODING 968
SWIDTH 369 0
DWIDTH 8 0
BBX 8 18 0 -4
BITMAP
00
00
00
00
00
00
63
63
6B
6B
6B
6B
6B
3E
08
08
08
00
ENDCHAR
STARTCHAR omega
ENCODING 969
SWIDTH 369 0
DWIDTH 8 0
BBX 8 18 0 -4
BITMAP
00
00
00
00
00
00
22
63
63
6B
6B
6B
6B
36
00
00
00
00
ENDCHAR
STARTCHAR iotadieresis
ENCODING 970
SWIDTH 369 0
DWIDTH 8 0
BBX 8 18 0 -4
BITMAP
00
00
66
66
00
00
38
18
18
18
18
18
1A
0C
00
00
00
00
ENDCHAR
STARTCHAR upsilondieresis
ENCODING 971
SWIDTH 369 0
DWIDTH 8 0
BBX 8 18 0 -4
BITMAP
00
00
63
63
00
00
63
63
63
63
63
63
63
3E
00
00
00
00
ENDCHAR
STARTCHAR omicrontonos
ENCODING 972
SWIDTH 369 0
DWIDTH 8 0
BBX 8 18 0 -4
BITMAP
00
06
0C
18
00
00
3E
63
63
63
63
63
63
3E
00
00
00
00
ENDCHAR
STARTCHAR upsilontonos
ENCODING 973
SWIDTH 369 0
DWIDTH 8 0
BBX 8 18 0 -4
BITMAP
00
06
0C
18
00
00
63
63
63
63
63
63
63
3E
00
00
00
00
ENDCHAR
STARTCHAR omegatonos
ENCODING 974
SWIDTH 369 0
DWIDTH 8 0
BBX 8 18 0 -4
BITMAP
00
06
0C
18
00
00
22
63
63
6B
6B
6B
6B
36
00
00
00
00
ENDCHAR
STARTCHAR uni0400
ENCODING 1024
SWIDTH 369 0
DWIDTH 8 0
BBX 8 18 0 -4
BITMAP
38
0E
00
7F
60
60
60
60
7E
60
60
60
60
7F
00
00
00
00
ENDCHAR
STARTCHAR afii10023
ENCODING 1025
SWIDTH 369 0
DWIDTH 8 0
BBX 8 18 0 -4
BITMAP
66
66
00
7F
60
60
60
60
7E
60
60
60
60
7F
00
00
00
00
ENDCHAR
STARTCHAR afii10051
ENCODING 1026
SWIDTH 369 0
DWIDTH 8 0
BBX 8 18 0 -4
BITMAP
00
00
00
FC
60
60
6E
73
63
63
63
63
63
66
00
00
00
00
ENDCHAR
STARTCHAR afii10052
ENCODING 1027
SWIDTH 369 0
DWIDTH 8 0
BBX 8 18 0 -4
BITMAP
07
1C
00
7F
60
60
60
60
60
60
60
60
60
60
00
00
00
00
ENDCHAR
STARTCHAR afii10053
ENCODING 1028
SWIDTH 369 0
DWIDTH 8 0
BBX 8 18 0 -4
BITMAP
00
00
00
3E
63
63
60
6C
76
60
60
63
63
3E
00
00
00
00
ENDCHAR
STARTCHAR afii10054
ENCODING 1029
SWIDTH 369 0
DWIDTH 8 0
BBX 8 18 0 -4
BITMAP
00
00
00
3E
63
63
60
38
0E
03
03
63
63
3E
00
00
00
00
ENDCHAR
STARTCHAR afii10055
ENCODING 1030
SWIDTH 369 0
DWIDTH 8 0
BBX 8 18 0 -4
BITMAP
00
00
00
3F
0C
0C
0C
0C
0C
0C
0C
0C
0C
3F
00
00
00
00
ENDCHAR
STARTCHAR afii10056
ENCODING 1031
SWIDTH 369 0
DWIDTH 8 0
BBX 8 18 0 -4
BITMAP
66
66
00
7E
18
18
18
18
18
18
18
18
18
7E
00
00
00
00
ENDCHAR
STARTCHAR afii10057
ENCODING 1032
SWIDTH 369 0
DWIDTH 8 0
BBX 8 18 0 -4
BITMAP
00
00
00
1F
06
06
06
06
06
06
06
66
66
3C
00
00
00
00
ENDCHAR
STARTCHAR afii10058
ENCODING 1033
SWIDTH 369 0
DWIDTH 8 0
BBX 8 18 0 -4
BITMAP
00
00
00
1C
2C
6C
6C
6C
6C
6E
6D
6D
6D
6E
00
00
00
00
ENDCHAR
STARTCHAR afii10059
ENCODING 1034
SWIDTH 369 0
DWIDTH 8 0
BBX 8 18 0 -4
BITMAP
00
00
00
6C
6C
6C
6C
6C
7E
6D
6D
6D
6D
6E
00
00
00
00
ENDCHAR
STARTCHAR afii10060
ENCODING 1035
SWIDTH 369 0
DWIDTH 8 0
BBX 8 18 0 -4
BITMAP
00
00
00
FC
60
60
6E
73
63
63
63
63
63
63
00
00
00
00
ENDCHAR
STARTCHAR afii10061
ENCODING 1036
SWIDTH 369 0
DWIDTH 8 0
BBX 8 18 0 -4
BITMAP
07
1C
00
63
63
66
6C
78
78
6C
66
66
63
63
00
00
00
00
ENDCHAR
STARTCHAR uni040D
ENCODING 1037
SWIDTH 369 0
DWIDTH 8 0
BBX 8 18 0 -4
BITMAP
06
18
00
63
63
67
67
6F
6B
7B
73
73
63
63
00
00
00
00
ENDCHAR
STARTCHAR afii10062
ENCODING 1038
SWIDTH 369 0
DWIDTH 8 0
BBX 8 18 0 -4
BITMAP
66
3C
00
66
66
66
66
66
3C
18
18
30
70
60
00
00
00
00
ENDCHAR
STARTCHAR afii10145
ENCODING 1039
SWIDTH 369 0
DWIDTH 8 0
BBX 8 18 0 -4
BITMAP
00
00
00
63
63
63
63
63
63
63
63
63
63
7F
1C
08
00
00
ENDCHAR
STARTCHAR afii10017
ENCODING 1040
SWIDTH 369 0
DWIDTH 8 0
BBX 8 18 0 -4
BITMAP
00
00
00
1C
36
63
63
63
63
7F
63
63
63
63
00
00
00
00
ENDCHAR
STARTCHAR afii10018
ENCODING 1041
SWIDTH 369 0
DWIDTH 8 0
BBX 8 18 0 -4
BITMAP
00
00
00
7E
60
60
60
60
7E
63
63
63
63
7E
00
00
00
00
ENDCHAR
STARTCHAR afii10019
ENCODING 1042
SWIDTH 369 0
DWIDTH 8 0
BBX 8 18 0 -4
BITMAP
00
00
00
7E
63
63
63
63
7E
63
63
63
63
7E
00
00
00
00
ENDCHAR
STARTCHAR afii10020
ENCODING 1043
SWIDTH 369 0
DWIDTH 8 0
BBX 8 18 0 -4
BITMAP
00
00
00
7F
60
60
60
60
60
60
60
60
60
60
00
00
00
00
ENDCHAR
STARTCHAR afii10021
ENCODING 1044
SWIDTH 369 0
DWIDTH 8 0
BBX 8 18 0 -4
BITMAP
00
00
00
1E
36
66
66
66
66
66
66
66
66
FF
C3
81
00
00
ENDCHAR
STARTCHAR afii10022
ENCODING 1045
SWIDTH 369 0
DWIDTH 8 0
BBX 8 18 0 -4
BITMAP
00
00
00
7F
60
60
60
60
7E
60
60
60
60
7F
00
00
00
00
ENDCHAR
STARTCHAR afii10024
ENCODING 1046
SWIDTH 369 0
DWIDTH 8 0
BBX 8 18 0 -4
BITMAP
00
00
00
6B
6B
6B
3E
1C
1C
3E
6B
6B
6B
6B
00
00
00
00
ENDCHAR
STARTCHAR afii10025
ENCODING 1047
SWIDTH 369 0
DWIDTH 8 0
BBX 8 18 0 -4
BITMAP
00
00
00
3E
63
63
03
03
1E
03
03
63
63
3E
00
00
00
00
ENDCHAR
STARTCHAR afii10026
ENCODING 1048
SWIDTH 369 0
DWIDTH 8 0
BBX 8 18 0 -4
BITMAP
00
00
00
63
63
67
67
6F
6B
7B
73
73
63
63
00
00
00
00
ENDCHAR
STARTCHAR afii10027
ENCODING 1049
SWIDTH 369 0
DWIDTH 8 0
BBX 8 18 0 -4
BITMAP
36
1C
00
63
63
67
67
6F
6B
7B
73
73
63
63
00
00
00
00
ENDCHAR
STARTCHAR afii10028
ENCODING 1050
SWIDTH 369 0
DWIDTH 8 0
BBX 8 18 0 -4
BITMAP
00
00
00
63
63
66
6C
78
78
6C
66
66
63
63
00
00
00
00
ENDCHAR
STARTCHAR afii10029
ENCODING 1051
SWIDTH 369 0
DWIDTH 8 0
BBX 8 18 0 -4
BITMAP
00
00
00
08
08
1C
1C
1C
36
36
36
63
63
63
00
00
00
00
ENDCHAR
STARTCHAR afii10030
ENCODING 1052
SWIDTH 369 0
DWIDTH 8 0
BBX 8 18 0 -4
BITMAP
00
00
00
41
63
77
7F
6B
6B
63
63
63
63
63
00
00
00
00
ENDCHAR
STARTCHAR afii10031
ENCODING 1053
SWIDTH 369 0
DWIDTH 8 0
BBX 8 18 0 -4
BITMAP
00
00
00
63
63
63
63
63
7F
63
63
63
63
63
00
00
00
00
ENDCHAR
STARTCHAR afii10032
ENCODING 1054
SWIDTH 369 0
DWIDTH 8 0
BBX 8 18 0 -4
BITMAP
00
00
00
3E
63
63
63
63
63
63
63
63
63
3E
00
00
00
00
ENDCHAR
STARTCHAR afii10033
ENCODING 1055
SWIDTH 369 0
DWIDTH 8 0
BBX 8 18 0 -4
BITMAP
00
00
00
7F
63
63
63
63
63
63
63
63
63
63
00
00
00
00
ENDCHAR
STARTCHAR afii10034
ENCODING 1056
SWIDTH 369 0
DWIDTH 8 0
BBX 8 18 0 -4
BITMAP
00
00
00
7E
63
63
63
63
63
7E
60
60
60
60
00
00
00
00
ENDCHAR
STARTCHAR afii10035
ENCODING 1057
SWIDTH 369 0
DWIDTH 8 0
BBX 8 18 0 -4
BITMAP
00
00
00
3E
63
63
60
60
60
60
60
63
63
3E
00
00
00
00
ENDCHAR
STARTCHAR afii10036
ENCODING 1058
SWIDTH 369 0
DWIDTH 8 0
BBX 8 18 0 -4
BITMAP
00
00
00
7E
18
18
18
18
18
18
18
18
18
18
00
00
00
00
ENDCHAR
STARTCHAR afii10037
ENCODING 1059
SWIDTH 369 0
DWIDTH 8 0
BBX 8 18 0 -4
BITMAP
00
00
00
66
66
66
66
66
3C
18
18
30
70
60
00
00
00
00
ENDCHAR
STARTCHAR afii10038
ENCODING 1060
SWIDTH 369 0
DWIDTH 8 0
BBX 8 18 0 -4
BITMAP
00
00
00
08
3E
6B
6B
6B
6B
6B
6B
6B
3E
08
00
00
00
00
ENDCHAR
STARTCHAR afii10039
ENCODING 1061
SWIDTH 369 0
DWIDTH 8 0
BBX 8 18 0 -4
BITMAP
00
00
00
63
63
63
36
1C
1C
36
63
63
63
63
00
00
00
00
ENDCHAR
STARTCHAR afii10040
ENCODING 1062
SWIDTH 369 0
DWIDTH 8 0
BBX 8 18 0 -4
BITMAP
00
00
00
66
66
66
66
66
66
66
66
66
66
7F
03
01
00
00
ENDCHAR
STARTCHAR afii10041
ENCODING 1063
SWIDTH 369 0
DWIDTH 8 0
BBX 8 18 0 -4
BITMAP
00
00
00
63
63
63
63
63
63
3F
03
03
03
03
00
00
00
00
ENDCHAR
STARTCHAR afii10042
ENCODING 1064
SWIDTH 369 0
DWIDTH 8 0
BBX 8 18 0 -4
BITMAP
00
00
00
6B
6B
6B
6B
6B
6B
6B
6B
6B
6B
7F
00
00
00
00
ENDCHAR
STARTCHAR afii10043
ENCODING 1065
SWIDTH 369 0
DWIDTH 8 0
BBX 8 18 0 -4
BITMAP
00
00
00
6B
6B
6B
6B
6B
6B
6B
6B
6B
6B
7F
03
01
00
00
ENDCHAR
STARTCHAR afii10044
ENCODING 1066
SWIDTH 369 0
DWIDTH 8 0
BBX 8 18 0 -4
BITMAP
00
00
00
F0
B0
30
30
3E
33
33
33
33
33
3E
00
00
00
00
ENDCHAR
STARTCHAR afii10045
ENCODING 1067
SWIDTH 369 0
DWIDTH 8 0
BBX 8 18 0 -4
BITMAP
00
00
00
63
63
63
63
7B
6F
6F
6F
6F
6F
7B
00
00
00
00
ENDCHAR
STARTCHAR afii10046
ENCODING 1068
SWIDTH 369 0
DWIDTH 8 0
BBX 8 18 0 -4
BITMAP
00
00
00
60
60
60
60
7E
63
63
63
63
63
7E
00
00
00
00
ENDCHAR
STARTCHAR afii10047
ENCODING 1069
SWIDTH 369 0
DWIDTH 8 0
BBX 8 18 0 -4
BITMAP
00
00
00
3E
63
63
03
1B
37
03
03
63
63
3E
00
00
00
00
ENDCHAR
STARTCHAR afii10048
ENCODING 1070
SWIDTH 369 0
DWIDTH 8 0
BBX 8 18 0 -4
BITMAP
00
00
00
66
6B
6B
6B
6B
7B
6B
6B
6B
6B
66
00
00
00
00
ENDCHAR
STARTCHAR afii10049
ENCODING 1071
SWIDTH 369 0
DWIDTH 8 0
BBX 8 18 0 -4
BITMAP
00
00
00
3F
63
63
63
63
3F
1B
33
33
63
63
00
00
00
00
ENDCHAR
STARTCHAR afii10065
ENCODING 1072
SWIDTH 369 0
DWIDTH 8 0
BBX 8 18 0 -4
BITMAP
00
00
00
00
00
00
3E
03
03
3F
63
63
63
3F
00
00
00
00
ENDCHAR
STARTCHAR afii10066
ENCODING 1073
SWIDTH 369 0
DWIDTH 8 0
BBX 8 18 0 -4
BITMAP
00
00
00
06
7E
60
3E
63
63
63
63
63
63
3E
00
00
00
00
ENDCHAR
STARTCHAR afii10067
ENCODING 1074
SWIDTH 369 0
DWIDTH 8 0
BBX 8 18 0 -4
BITMAP
00
00
00
00
00
00
7E
63
63
7E
63
63
63
7E
00
00
00
00
ENDCHAR
STARTCHAR afii10068
ENCODING 1075
SWIDTH 369 0
DWIDTH 8 0
BBX 8 18 0 -4
BITMAP
00
00
00
00
00
00
7F
61
60
60
60
60
60
60
00
00
00
00
ENDCHAR
STARTCHAR afii10069
ENCODING 1076
SWIDTH 369 0
DWIDTH 8 0
BBX 8 18 0 -4
BITMAP
00
00
00
00
00
00
0E
1E
36
66
66
66
66
FF
C3
81
00
00
ENDCHAR
STARTCHAR afii10070
ENCODING 1077
SWIDTH 369 0
DWIDTH 8 0
BBX 8 18 0 -4
BITMAP
00
00
00
00
00
00
3E
63
63
7F
60
60
63
3E
00
00
00
00
ENDCHAR
STARTCHAR afii10072
ENCODING 1078
SWIDTH 369 0
DWIDTH 8 0
BBX 8 18 0 -4
BITMAP
00
00
00
00
00
00
6B
6B
3E
1C
1C
3E
6B
6B
00
00
00
00
ENDCHAR
STARTCHAR afii10073
ENCODING 1079
SWIDTH 369 0
DWIDTH 8 0
BBX 8 18 0 -4
BITMAP
00
00
00
00
00
00
3E
63
03
0E
03
03
63
3E
00
00
00
00
ENDCHAR
STARTCHAR afii10074
ENCODING 1080
SWIDTH 369 0
DWIDTH 8 0
BBX 8 18 0 -4
BITMAP
00
00
00
00
00
00
63
63
67
6F
7B
73
63
63
00
00
00
00
ENDCHAR
STARTCHAR afii10075
ENCODING 1081
SWIDTH 369 0
DWIDTH 8 0
BBX 8 18 0 -4
BITMAP
00
00
36
1C
00
00
63
63
67
6F
7B
73
63
63
00
00
00
00
ENDCHAR
STARTCHAR afii10076
ENCODING 1082
SWIDTH 369 0
DWIDTH 8 0
BBX 8 18 0 -4
BITMAP
00
00
00
00
00
00
63
66
6C
78
6C
66
63
63
00
00
00
00
ENDCHAR
STARTCHAR afii10077
ENCODING 1083
SWIDTH 369 0
DWIDTH 8 0
BBX 8 18 0 -4
BITMAP
00
00
00
00
00
00
08
1C
1C
36
36
63
63
63
00
00
00
00
ENDCHAR
STARTCHAR afii10078
ENCODING 1084
SWIDTH 369 0
DWIDTH 8 0
BBX 8 18 0 -4
BITMAP
00
00
00
00
00
00
63
63
77
77
7F
6B
6B
63
00
00
00
00
ENDCHAR
STARTCHAR afii10079
ENCODING 1085
SWIDTH 369 0
DWIDTH 8 0
BBX 8 18 0 -4
BITMAP
00
00
00
00
00
00
63
63
63
7F
63
63
63
63
00
00
00
00
ENDCHAR
STARTCHAR afii10080
ENCODING 1086
SWIDTH 369 0
DWIDTH 8 0
BBX 8 18 0 -4
BITMAP
00
00
00
00
00
00
3E
63
63
63
63
63
63
3E
00
00
00
00
ENDCHAR
STARTCHAR afii10081
ENCODING 1087
SWIDTH 369 0
DWIDTH 8 0
BBX 8 18 0 -4
BITMAP
00
00
00
00
00
00
7F
63
63
63
63
63
63
63
00
00
00
00
ENDCHAR
STARTCHAR afii10082
ENCODING 1088
SWIDTH 369 0
DWIDTH 8 0
BBX 8 18 0 -4
BITMAP
00
00
00
00
00
00
6E
73
63
63
63
63
63
7E
60
60
60
00
ENDCHAR
STARTCHAR afii10083
ENCODING 1089
SWIDTH 369 0
DWIDTH 8 0
BBX 8 18 0 -4
BITMAP
00
00
00
00
00
00
3E
63
60
60
60
60
63
3E
00
00
00
00
ENDCHAR
STARTCHAR afii10084
ENCODING 1090
SWIDTH 369 0
DWIDTH 8 0
BBX 8 18 0 -4
BITMAP
00
00
00
00
00
00
7E
18
18
18
18
18
18
18
00
00
00
00
ENDCHAR
STARTCHAR afii10085
ENCODING 1091
SWIDTH 369 0
DWIDTH 8 0
BBX 8 18 0 -4
BITMAP
00
00
00
00
00
00
63
63
63
63
63
63
67
3B
03
03
3E
00
ENDCHAR
STARTCHAR afii10086
ENCODING 1092
SWIDTH 369 0
DWIDTH 8 0
BBX 8 18 0 -4
BITMAP
00
00
00
00
08
08
3E
6B
6B
6B
6B
6B
6B
3E
08
08
00
00
ENDCHAR
STARTCHAR afii10087
ENCODING 1093
SWIDTH 369 0
DWIDTH 8 0
BBX 8 18 0 -4
BITMAP
00
00
00
00
00
00
63
63
36
1C
1C
36
63
63
00
00
00
00
ENDCHAR
STARTCHAR afii10088
ENCODING 1094
SWIDTH 369 0
DWIDTH 8 0
BBX 8 18 0 -4
BITMAP
00
00
00
00
00
00
66
66
66
66
66
66
66
7F
03
01
00
00
ENDCHAR
STARTCHAR afii10089
ENCODING 1095
SWIDTH 369 0
DWIDTH 8 0
BBX 8 18 0 -4
BITMAP
00
00
00
00
00
00
63
63
63
63
3F
03
03
03
00
00
00
00
ENDCHAR
STARTCHAR afii10090
ENCODING 1096
SWIDTH 369 0
DWIDTH 8 0
BBX 8 18 0 -4
BITMAP
00
00
00
00
00
00
6B
6B
6B
6B
6B
6B
6B
7F
00
00
00
00
ENDCHAR
STARTCHAR afii10091
ENCODING 1097
SWIDTH 369 0
DWIDTH 8 0
BBX 8 18 0 -4
BITMAP
00
00
00
00
00
00
6B
6B
6B
6B
6B
6B
6B
7F
03
01
00
00
ENDCHAR
STARTCHAR afii10092
ENCODING 1098
SWIDTH 369 0
DWIDTH 8 0
BBX 8 18 0 -4
BITMAP
00
00
00
00
00
00
F0
B0
3E
33
33
33
33
3E
00
00
00
00
ENDCHAR
STARTCHAR afii10093
ENCODING 1099
SWIDTH 369 0
DWIDTH 8 0
BBX 8 18 0 -4
BITMAP
00
00
00
00
00
00
63
63
7B
6F
6F
6F
6F
7B
00
00
00
00
ENDCHAR
STARTCHAR afii10094
ENCODING 1100
SWIDTH 369 0
DWIDTH 8 0
BBX 8 18 0 -4
BITMAP
00
00
00
00
00
00
60
60
7E
63
63
63
63
7E
00
00
00
00
ENDCHAR
STARTCHAR afii10095
ENCODING 1101
SWIDTH 369 0
DWIDTH 8 0
BBX 8 18 0 -4
BITMAP
00
00
00
00
00
00
3E
63
03
0F
03
03
63
3E
00
00
00
00
ENDCHAR
STARTCHAR afii10096
ENCODING 1102
SWIDTH 369 0
DWIDTH 8 0
BBX 8 18 0 -4
BITMAP
00
00
00
00
00
00
66
6B
6B
7B
6B
6B
6B
66
00
00
00
00
ENDCHAR
STARTCHAR afii10097
ENCODING 1103
SWIDTH 369 0
DWIDTH 8 0
BBX 8 18 0 -4
BITMAP
00
00
00
00
00
00
3F
63
63
63
3F
1B
33
63
00
00
00
00
ENDCHAR
STARTCHAR uni0450
ENCODING 1104
SWIDTH 369 0
DWIDTH 8 0
BBX 8 18 0 -4
BITMAP
00
30
18
0C
00
00
3E
63
63
7F
60
60
63
3E
00
00
00
00
ENDCHAR
STARTCHAR afii10071
ENCODING 1105
SWIDTH 369 0
DWIDTH 8 0
BBX 8 18 0 -4
BITMAP
00
00
66
66
00
00
3E
63
63
7F
60
60
63
3E
00
00
00
00
ENDCHAR
STARTCHAR afii10099
ENCODING 1106
SWIDTH 369 0
DWIDTH 8 0
BBX 8 18 0 -4
BITMAP
00
00
00
60
FC
60
60
6E
73
63
63
63
63
66
0C
00
00
00
ENDCHAR
STARTCHAR afii10100
ENCODING 1107
SWIDTH 369 0
DWIDTH 8 0
BBX 8 18 0 -4
BITMAP
00
06
0C
18
00
00
7F
61
60
60
60
60
60
60
00
00
00
00
ENDCHAR
STARTCHAR afii10101
ENCODING 1108
SWIDTH 369 0
DWIDTH 8 0
BBX 8 18 0 -4
BITMAP
00
00
00
00
00
00
3E
63
60
7C
60
60
63
3E
00
00
00
00
ENDCHAR
STARTCHAR afii10102
ENCODING 1109
SWIDTH 369 0
DWIDTH 8 0
BBX 8 18 0 -4
BITMAP
00
00
00
00
00
00
3E
63
60
38
0E
03
63
3E
00
00
00
00
ENDCHAR
STARTCHAR afii10103
ENCODING 1110
SWIDTH 369 0
DWIDTH 8 0
BBX 8 18 0 -4
BITMAP
00
00
00
0C
0C
00
3C
0C
0C
0C
0C
0C
0C
3F
00
00
00
00
ENDCHAR
STARTCHAR afii10104
ENCODING 1111
SWIDTH 369 0
DWIDTH 8 0
BBX 8 18 0 -4
BITMAP
00
00
36
36
00
00
3C
0C
0C
0C
0C
0C
0C
3F
00
00
00
00
ENDCHAR
STARTCHAR afii10105
ENCODING 1112
SWIDTH 369 0
DWIDTH 8 0
BBX 8 18 0 -4
BITMAP
00
00
00
0C
0C
00
3C
0C
0C
0C
0C
0C
0C
0C
0C
0C
78
00
ENDCHAR
STARTCHAR afii10106
ENCODING 1113
SWIDTH 369 0
DWIDTH 8 0
BBX 8 18 0 -4
BITMAP
00
00
00
00
00
00
1C
3C
6C
6E
6D
6D
6D
EE
00
00
00
00
ENDCHAR
STARTCHAR afii10107
ENCODING 1114
SWIDTH 369 0
DWIDTH 8 0
BBX 8 18 0 -4
BITMAP
00
00
00
00
00
00
6C
6C
6C
7E
6D
6D
6D
6E
00
00
00
00
ENDCHAR
STARTCHAR afii10108
ENCODING 1115
SWIDTH 369 0
DWIDTH 8 0
BBX 8 18 0 -4
BITMAP
00
00
00
60
FC
60
60
6E
73
63
63
63
63
63
00
00
00
00
ENDCHAR
STARTCHAR afii10109
ENCODING 1116
SWIDTH 369 0
DWIDTH 8 0
BBX 8 18 0 -4
BITMAP
00
06
0C
18
00
00
63
66
6C
78
6C
66
63
63
00
00
00
00
ENDCHAR
STARTCHAR uni045D
ENCODING 1117
SWIDTH 369 0
DWIDTH 8 0
BBX 8 18 0 -4
BITMAP
00
06
0C
18
00
00
63
63
67
6F
7B
73
63
63
00
00
00
00
ENDCHAR
STARTCHAR afii10110
ENCODING 1118
SWIDTH 369 0
DWIDTH 8 0
BBX 8 18 0 -4
BITMAP
00
00
36
1C
00
00
63
63
63
63
63
63
67
3B
03
03
3E
00
ENDCHAR
STARTCHAR afii10193
ENCODING 1119
SWIDTH 369 0
DWIDTH 8 0
BBX 8 18 0 -4
BITMAP
00
00
00
00
00
00
63
63
63
63
63
63
63
7F
1C
08
00
00
ENDCHAR
STARTCHAR afii10050
ENCODING 1168
SWIDTH 369 0
DWIDTH 8 0
BBX 8 18 0 -4
BITMAP
00
00
01
7F
60
60
60
60
60
60
60
60
60
60
00
00
00
00
ENDCHAR
STARTCHAR afii10098
ENCODING 1169
SWIDTH 369 0
DWIDTH 8 0
BBX 8 18 0 -4
BITMAP
00
00
00
00
00
01
7F
60
60
60
60
60
60
60
00
00
00
00
ENDCHAR
STARTCHAR afii57664
ENCODING 1488
SWIDTH 369 0
DWIDTH 8 0
BBX 8 18 0 -4
BITMAP
00
00
00
00
63
63
33
3B
7B
6F
6E
66
63
63
00
00
00
00
ENDCHAR
STARTCHAR afii57665
ENCODING 1489
SWIDTH 369 0
DWIDTH 8 0
BBX 8 18 0 -4
BITMAP
00
00
00
00
3C
06
06
06
06
06
06
06
06
7F
00
00
00
00
ENDCHAR
STARTCHAR afii57666
ENCODING 1490
SWIDTH 369 0
DWIDTH 8 0
BBX 8 18 0 -4
BITMAP
00
00
00
00
38
0C
0C
0C
0C
0C
1E
36
66
66
00
00
00
00
ENDCHAR
STARTCHAR afii57667
ENCODING 1491
SWIDTH 369 0
DWIDTH 8 0
BBX 8 18 0 -4
BITMAP
00
00
00
00
7F
06
06
06
06
06
06
06
06
06
00
00
00
00
ENDCHAR
STARTCHAR afii57668
ENCODING 1492
SWIDTH 369 0
DWIDTH 8 0
BBX 8 18 0 -4
BITMAP
00
00
00
00
7E
03
03
03
63
63
63
63
63
63
00
00
00
00
ENDCHAR
STARTCHAR afii57669
ENCODING 1493
SWIDTH 369 0
DWIDTH 8 0
BBX 8 18 0 -4
BITMAP
00
00
00
00
38
0C
0C
0C
0C
0C
0C
0C
0C
0C
00
00
00
00
ENDCHAR
STARTCHAR afii57670
ENCODING 1494
SWIDTH 369 0
DWIDTH 8 0
BBX 8 18 0 -4
BITMAP
00
00
00
00
3E
18
18
18
18
0C
0C
0C
0C
0C
00
00
00
00
ENDCHAR
STARTCHAR afii57671
ENCODING 1495
SWIDTH 369 0
DWIDTH 8 0
BBX 8 18 0 -4
BITMAP
00
00
00
00
7E
63
63
63
63
63
63
63
63
63
00
00
00
00
ENDCHAR
STARTCHAR afii57672
ENCODING 1496
SWIDTH 369 0
DWIDTH 8 0
BBX 8 18 0 -4
BITMAP
00
00
00
00
6E
6B
6B
6B
63
63
63
63
36
1C
00
00
00
00
ENDCHAR
STARTCHAR afii57673
ENCODING 1497
SWIDTH 369 0
DWIDTH 8 0
BBX 8 18 0 -4
BITMAP
00
00
00
00
38
0C
0C
0C
0C
0C
0C
00
00
00
00
00
00
00
ENDCHAR
STARTCHAR afii57674
ENCODING 1498
SWIDTH 369 0
DWIDTH 8 0
BBX 8 18 0 -4
BITMAP
00
00
00
00
7F
06
06
06
06
06
06
06
06
06
06
06
07
00
ENDCHAR
STARTCHAR afii57675
ENCODING 1499
SWIDTH 369 0
DWIDTH 8 0
BBX 8 18 0 -4
BITMAP
00
00
00
00
7E
03
03
03
03
03
03
03
03
7E
00
00
00
00
ENDCHAR
STARTCHAR afii57676
ENCODING 1500
SWIDTH 369 0
DWIDTH 8 0
BBX 8 18 0 -4
BITMAP
00
00
60
60
7F
03
03
03
03
06
0C
18
18
1E
00
00
00
00
ENDCHAR
STARTCHAR afii57677
ENCODING 1501
SWIDTH 369 0
DWIDTH 8 0
BBX 8 18 0 -4
BITMAP
00
00
00
00
7E
63
63
63
63
63
63
63
63
7F
00
00
00
00
ENDCHAR
STARTCHAR afii57678
ENCODING 1502
SWIDTH 369 0
DWIDTH 8 0
BBX 8 18 0 -4
BITMAP
00
00
00
00
66
6F
3B
33
63
63
63
63
63
6F
00
00
00
00
ENDCHAR
STARTCHAR afii57679
ENCODING 1503
SWIDTH 369 0
DWIDTH 8 0
BBX 8 18 0 -4
BITMAP
00
00
00
00
1C
06
06
06
06
06
06
06
06
06
06
06
07
00
ENDCHAR
STARTCHAR afii57680
ENCODING 1504
SWIDTH 369 0
DWIDTH 8 0
BBX 8 18 0 -4
BITMAP
00
00
00
00
1C
06
06
06
06
06
06
06
06
3E
00
00
00
00
ENDCHAR
STARTCHAR afii57681
ENCODING 1505
SWIDTH 369 0
DWIDTH 8 0
BBX 8 18 0 -4
BITMAP
00
00
00
00
7E
63
63
63
63
63
63
63
36
1C
00
00
00
00
ENDCHAR
STARTCHAR afii57682
ENCODING 1506
SWIDTH 369 0
DWIDTH 8 0
BBX 8 18 0 -4
BITMAP
00
00
00
00
33
33
33
33
33
33
33
33
36
7C
00
00
00
00
ENDCHAR
STARTCHAR afii57683
ENCODING 1507
SWIDTH 369 0
DWIDTH 8 0
BBX 8 18 0 -4
BITMAP
00
00
00
00
7C
66
66
66
66
66
76
06
06
06
06
06
07
00
ENDCHAR
STARTCHAR afii57684
ENCODING 1508
SWIDTH 369 0
DWIDTH 8 0
BBX 8 18 0 -4
BITMAP
00
00
00
00
3E
63
63
63
63
73
03
03
03
7E
00
00
00
00
ENDCHAR
STARTCHAR afii57685
ENCODING 1509
SWIDTH 369 0
DWIDTH 8 0
BBX 8 18 0 -4
BITMAP
00
00
00
00
63
63
63
63
36
3C
30
38
18
18
18
0C
0C
00
ENDCHAR
STARTCHAR afii57686
ENCODING 1510
SWIDTH 369 0
DWIDTH 8 0
BBX 8 18 0 -4
BITMAP
00
00
00
00
63
63
63
36
1C
0C
06
03
03
7F
00
00
00
00
ENDCHAR
STARTCHAR afii57687
ENCODING 1511
SWIDTH 369 0
DWIDTH 8 0
BBX 8 18 0 -4
BITMAP
00
00
00
00
7E
03
03
63
66
66
66
6C
6C
6E
60
60
60
00
ENDCHAR
STARTCHAR afii57688
ENCODING 1512
SWIDTH 369 0
DWIDTH 8 0
BBX 8 18 0 -4
BITMAP
00
00
00
00
7E
03
03
03
03
03
03
03
03
03
00
00
00
00
ENDCHAR
STARTCHAR afii57689
ENCODING 1513
SWIDTH 369 0
DWIDTH 8 0
BBX 8 18 0 -4
BITMAP
00
00
00
00
6B
6B
6B
6B
6B
6B
73
63
63
3E
00
00
00
00
ENDCHAR
STARTCHAR afii57690
ENCODING 1514
SWIDTH 369 0
DWIDTH 8 0
BBX 8 18 0 -4
BITMAP
00
00
00
00
7E
13
33
33
33
33
33
33
33
73
00
00
00
00
ENDCHAR
STARTCHAR afii57403
ENCODING 1563
SWIDTH 369 0
DWIDTH 8 0
BBX 8 18 0 -4
BITMAP
00
00
00
00
08
10
18
18
00
18
18
00
00
00
00
00
00
00
ENDCHAR
STARTCHAR afii57407
ENCODING 1567
SWIDTH 369 0
DWIDTH 8 0
BBX 8 18 0 -4
BITMAP
00
00
00
3E
63
63
60
30
18
0C
0C
00
0C
0C
00
00
00
00
ENDCHAR
STARTCHAR afii57409
ENCODING 1569
SWIDTH 369 0
DWIDTH 8 0
BBX 8 18 0 -4
BITMAP
00
00
00
00
00
00
1C
34
30
3E
1C
30
00
00
00
00
00
00
ENDCHAR
STARTCHAR afii57410
ENCODING 1570
SWIDTH 369 0
DWIDTH 8 0
BBX 8 18 0 -4
BITMAP
14
28
00
08
18
18
18
18
18
18
18
10
00
00
00
00
00
00
ENDCHAR
STARTCHAR afii57411
ENCODING 1571
SWIDTH 369 0
DWIDTH 8 0
BBX 8 18 0 -4
BITMAP
30
60
30
48
18
18
18
18
18
18
18
10
00
00
00
00
00
00
ENDCHAR
STARTCHAR afii57412
ENCODING 1572
SWIDTH 369 0
DWIDTH 8 0
BBX 8 18 0 -4
BITMAP
00
00
18
30
1C
30
06
0F
0B
0F
07
03
47
3E
1C
00
00
00
ENDCHAR
STARTCHAR afii57415
ENCODING 1575
SWIDTH 369 0
DWIDTH 8 0
BBX 8 18 0 -4
BITMAP
00
08
18
18
18
18
18
18
18
18
18
10
00
00
00
00
00
00
ENDCHAR
STARTCHAR afii57416
ENCODING 1576
SWIDTH 369 0
DWIDTH 8 0
BBX 8 18 0 -4
BITMAP
00
00
00
00
00
00
01
43
C3
FF
7E
00
18
18
00
00
00
00
ENDCHAR
STARTCHAR afii57417
ENCODING 1577
SWIDTH 369 0
DWIDTH 8 0
BBX 8 18 0 -4
BITMAP
00
36
36
00
00
0C
0E
1B
1B
1F
0F
00
00
00
00
00
00
00
ENDCHAR
STARTCHAR afii57418
ENCODING 1578
SWIDTH 369 0
DWIDTH 8 0
BBX 8 18 0 -4
BITMAP
00
00
00
00
36
36
01
43
C3
FF
7E
00
00
00
00
00
00
00
ENDCHAR
STARTCHAR afii57419
ENCODING 1579
SWIDTH 369 0
DWIDTH 8 0
BBX 8 18 0 -4
BITMAP
00
00
18
18
36
36
01
43
C3
FF
7E
00
00
00
00
00
00
00
ENDCHAR
STARTCHAR afii57420
ENCODING 1580
SWIDTH 369 0
DWIDTH 8 0
BBX 8 18 0 -4
BITMAP
00
00
00
00
00
00
00
78
FF
9F
30
60
CC
CC
C0
E1
7F
3E
ENDCHAR
STARTCHAR afii57421
ENCODING 1581
SWIDTH 369 0
DWIDTH 8 0
BBX 8 18 0 -4
BITMAP
00
00
00
00
00
00
00
78
FF
9F
30
60
C0
C0
C0
E1
7F
3E
ENDCHAR
STARTCHAR afii57422
ENCODING 1582
SWIDTH 369 0
DWIDTH 8 0
BBX 8 18 0 -4
BITMAP
00
00
00
00
0C
0C
00
78
FF
9F
30
60
C0
C0
C0
E1
7F
3E
ENDCHAR
STARTCHAR afii57423
ENCODING 1583
SWIDTH 369 0
DWIDTH 8 0
BBX 8 18 0 -4
BITMAP
00
00
00
00
00
02
07
03
11
1F
1F
00
00
00
00
00
00
00
ENDCHAR
STARTCHAR afii57424
ENCODING 1584
SWIDTH 369 0
DWIDTH 8 0
BBX 8 18 0 -4
BITMAP
00
00
0C
0C
00
02
07
03
11
1F
1F
00
00
00
00
00
00
00
ENDCHAR
STARTCHAR afii57425
ENCODING 1585
SWIDTH 369 0
DWIDTH 8 0
BBX 8 18 0 -4
BITMAP
00
00
00
00
00
00
00
02
03
03
01
03
47
3E
1C
00
00
00
ENDCHAR
STARTCHAR afii57426
ENCODING 1586
SWIDTH 369 0
DWIDTH 8 0
BBX 8 18 0 -4
BITMAP
00
00
00
00
06
06
00
02
03
03
01
03
47
3E
1C
00
00
00
ENDCHAR
STARTCHAR afii57427
ENCODING 1587
SWIDTH 369 0
DWIDTH 8 0
BBX 8 18 0 -4
BITMAP
00
00
00
00
00
00
01
2D
6D
7F
7B
20
20
60
E0
C0
00
00
ENDCHAR
STARTCHAR afii57428
ENCODING 1588
SWIDTH 369 0
DWIDTH 8 0
BBX 8 18 0 -4
BITMAP
00
00
18
18
36
36
01
25
6D
7F
7A
20
20
60
E0
C0
00
00
ENDCHAR
STARTCHAR afii57429
ENCODING 1589
SWIDTH 369 0
DWIDTH 8 0
BBX 8 18 0 -4
BITMAP
00
00
00
00
00
00
06
2F
79
7F
3E
20
20
60
E0
C0
00
00
ENDCHAR
STARTCHAR afii57430
ENCODING 1590
SWIDTH 369 0
DWIDTH 8 0
BBX 8 18 0 -4
BITMAP
00
00
00
0C
0C
00
06
2F
79
7F
3E
20
20
60
E0
C0
00
00
ENDCHAR
STARTCHAR afii57431
ENCODING 1591
SWIDTH 369 0
DWIDTH 8 0
BBX 8 18 0 -4
BITMAP
00
10
30
30
30
30
36
3F
39
FF
FF
00
00
00
00
00
00
00
ENDCHAR
STARTCHAR afii57432
ENCODING 1592
SWIDTH 369 0
DWIDTH 8 0
BBX 8 18 0 -4
BITMAP
00
10
30
36
36
30
36
3F
39
FF
FF
00
00
00
00
00
00
00
ENDCHAR
STARTCHAR afii57433
ENCODING 1593
SWIDTH 369 0
DWIDTH 8 0
BBX 8 18 0 -4
BITMAP
00
00
00
00
00
0C
1E
30
38
1E
3C
60
C0
C0
C0
E1
7F
3E
ENDCHAR
STARTCHAR afii57434
ENCODING 1594
SWIDTH 369 0
DWIDTH 8 0
BBX 8 18 0 -4
BITMAP
00
00
18
18
00
0C
1E
30
38
1E
3C
60
C0
C0
C0
E1
7F
3E
ENDCHAR
STARTCHAR afii57440
ENCODING 1600
SWIDTH 369 0
DWIDTH 8 0
BBX 8 18 0 -4
BITMAP
00
00
00
00
00
00
00
00
00
FF
FF
00
00
00
00
00
00
00
ENDCHAR
STARTCHAR afii57441
ENCODING 1601
SWIDTH 369 0
DWIDTH 8 0
BBX 8 18 0 -4
BITMAP
00
00
0C
0C
00
06
0F
4D
C7
FF
7E
00
00
00
00
00
00
00
ENDCHAR
STARTCHAR afii57442
ENCODING 1602
SWIDTH 369 0
DWIDTH 8 0
BBX 8 18 0 -4
BITMAP
00
00
00
1B
1B
00
06
0F
09
2F
47
43
67
7E
3C
00
00
00
ENDCHAR
STARTCHAR afii57443
ENCODING 1603
SWIDTH 369 0
DWIDTH 8 0
BBX 8 18 0 -4
BITMAP
00
01
03
33
23
73
03
43
C3
FF
7E
00
00
00
00
00
00
00
ENDCHAR
STARTCHAR afii57444
ENCODING 1604
SWIDTH 369 0
DWIDTH 8 0
BBX 8 18 0 -4
BITMAP
00
01
03
03
03
03
03
03
03
23
43
43
67
7E
3C
00
00
00
ENDCHAR
STARTCHAR afii57445
ENCODING 1605
SWIDTH 369 0
DWIDTH 8 0
BBX 8 18 0 -4
BITMAP
00
00
00
00
00
00
06
0F
03
1F
3F
30
30
30
18
18
18
08
ENDCHAR
STARTCHAR afii57446
ENCODING 1606
SWIDTH 369 0
DWIDTH 8 0
BBX 8 18 0 -4
BITMAP
00
00
00
00
0C
0C
00
02
03
23
41
43
67
7E
3C
00
00
00
ENDCHAR
STARTCHAR afii57470
ENCODING 1607
SWIDTH 369 0
DWIDTH 8 0
BBX 8 18 0 -4
BITMAP
00
00
00
00
00
0C
0E
1B
1B
1F
0F
00
00
00
00
00
00
00
ENDCHAR
STARTCHAR afii57448
ENCODING 1608
SWIDTH 369 0
DWIDTH 8 0
BBX 8 18 0 -4
BITMAP
00
00
00
00
00
00
06
0F
0B
0F
07
03
47
3E
1C
00
00
00
ENDCHAR
STARTCHAR afii57449
ENCODING 1609
SWIDTH 369 0
DWIDTH 8 0
BBX 8 18 0 -4
BITMAP
00
00
00
00
00
00
03
07
0C
0E
47
83
87
FE
7C
00
00
00
ENDCHAR
STARTCHAR afii57450
ENCODING 1610
SWIDTH 369 0
DWIDTH 8 0
BBX 8 18 0 -4
BITMAP
00
00
00
00
00
00
03
07
0C
0E
47
83
87
FE
7C
00
6C
6C
ENDCHAR
STARTCHAR afii57457
ENCODING 1617
SWIDTH 369 0
DWIDTH 8 0
BBX 8 18 0 -4
BITMAP
2A
3E
36
00
00
00
00
00
00
00
00
00
00
00
00
00
00
00
ENDCHAR
STARTCHAR afii57392
ENCODING 1632
SWIDTH 369 0
DWIDTH 8 0
BBX 8 18 0 -4
BITMAP
00
00
00
00
00
00
00
00
18
3C
18
00
00
00
00
00
00
00
ENDCHAR
STARTCHAR afii57393
ENCODING 1633
SWIDTH 369 0
DWIDTH 8 0
BBX 8 18 0 -4
BITMAP
00
00
00
20
70
70
30
38
38
18
18
18
18
10
00
00
00
00
ENDCHAR
STARTCHAR afii57394
ENCODING 1634
SWIDTH 369 0
DWIDTH 8 0
BBX 8 18 0 -4
BITMAP
00
00
00
22
66
7E
7C
30
38
18
18
18
18
10
00
00
00
00
ENDCHAR
STARTCHAR afii57395
ENCODING 1635
SWIDTH 369 0
DWIDTH 8 0
BBX 8 18 0 -4
BITMAP
00
00
00
45
CD
FF
F6
60
70
30
30
30
30
20
00
00
00
00
ENDCHAR
STARTCHAR afii57396
ENCODING 1636
SWIDTH 369 0
DWIDTH 8 0
BBX 8 18 0 -4
BITMAP
00
00
00
18
30
60
78
1C
18
30
60
60
7E
3C
00
00
00
00
ENDCHAR
STARTCHAR afii57397
ENCODING 1637
SWIDTH 369 0
DWIDTH 8 0
BBX 8 18 0 -4
BITMAP
00
00
00
00
00
38
7C
6C
CE
C6
C6
C6
FE
7C
00
00
00
00
ENDCHAR
STARTCHAR afii57398
ENCODING 1638
SWIDTH 369 0
DWIDTH 8 0
BBX 8 18 0 -4
BITMAP
00
00
00
7C
FC
0C
0C
0C
0C
0C
06
06
06
04
00
00
00
00
ENDCHAR
STARTCHAR afii57399
ENCODING 1639
SWIDTH 369 0
DWIDTH 8 0
BBX 8 18 0 -4
BITMAP
00
00
00
82
C6
C6
EE
6C
6C
6C
38
38
10
10
00
00
00
00
ENDCHAR
STARTCHAR afii57400
ENCODING 1640
SWIDTH 369 0
DWIDTH 8 0
BBX 8 18 0 -4
BITMAP
00
00
00
10
10
38
38
6C
6C
6C
EE
C6
C6
82
00
00
00
00
ENDCHAR
STARTCHAR afii57401
ENCODING 1641
SWIDTH 369 0
DWIDTH 8 0
BBX 8 18 0 -4
BITMAP
00
00
00
18
3C
7C
6C
7C
3C
0E
0E
06
06
04
00
00
00
00
ENDCHAR
STARTCHAR afii57381
ENCODING 1642
SWIDTH 369 0
DWIDTH 8 0
BBX 8 18 0 -4
BITMAP
00
00
00
00
30
79
33
06
0C
18
30
66
4F
06
00
00
00
00
ENDCHAR
STARTCHAR uni066C
ENCODING 1644
SWIDTH 369 0
DWIDTH 8 0
BBX 8 18 0 -4
BITMAP
00
00
00
00
00
00
08
10
18
18
00
00
00
00
00
00
00
00
ENDCHAR
STARTCHAR uni0E01
ENCODING 3585
SWIDTH 369 0
DWIDTH 8 0
BBX 8 18 0 -4
BITMAP
00
00
00
00
00
00
00
3E
63
33
63
63
63
63
63
63
00
00
ENDCHAR
STARTCHAR uni0E02
ENCODING 3586
SWIDTH 369 0
DWIDTH 8 0
BBX 8 18 0 -4
BITMAP
00
00
00
00
00
00
00
3B
6F
D7
6B
1B
1B
1B
1B
0E
00
00
ENDCHAR
STARTCHAR uni0E03
ENCODING 3587
SWIDTH 369 0
DWIDTH 8 0
BBX 8 18 0 -4
BITMAP
00
00
00
00
00
00
00
5B
FF
D7
6B
1B
1B
1B
1B
0E
00
00
ENDCHAR
STARTCHAR uni0E04
ENCODING 3588
SWIDTH 369 0
DWIDTH 8 0
BBX 8 18 0 -4
BITMAP
00
00
00
00
00
00
00
3E
77
63
6B
77
7B
63
63
63
00
00
ENDCHAR
STARTCHAR uni0E05
ENCODING 3589
SWIDTH 369 0
DWIDTH 8 0
BBX 8 18 0 -4
BITMAP
00
00
00
00
00
00
00
36
7F
6B
6B
77
7B
63
63
63
00
00
ENDCHAR
STARTCHAR uni0E06
ENCODING 3590
SWIDTH 369 0
DWIDTH 8 0
BBX 8 18 0 -4
BITMAP
00
00
00
00
00
00
00
5B
FF
DF
6B
1B
3B
2F
3B
1B
00
00
ENDCHAR
STARTCHAR uni0E07
ENCODING 3591
SWIDTH 369 0
DWIDTH 8 0
BBX 8 18 0 -4
BITMAP
00
00
00
00
00
00
00
06
0E
0A
0E
C6
66
36
1E
0E
00
00
ENDCHAR
STARTCHAR uni0E08
ENCODING 3592
SWIDTH 369 0
DWIDTH 8 0
BBX 8 18 0 -4
BITMAP
00
00
00
00
00
00
00
3E
67
D3
BB
2B
17
07
03
03
00
00
ENDCHAR
STARTCHAR uni0E09
ENCODING 3593
SWIDTH 369 0
DWIDTH 8 0
BBX 8 18 0 -4
BITMAP
00
00
00
00
00
00
00
7C
C6
06
66
B6
66
6B
7B
66
00
00
ENDCHAR
STARTCHAR uni0E0A
ENCODING 3594
SWIDTH 369 0
DWIDTH 8 0
BBX 8 18 0 -4
BITMAP
00
00
00
00
00
00
03
3B
6E
D7
6B
1B
1B
1B
1B
0E
00
00
ENDCHAR
STARTCHAR uni0E0B
ENCODING 3595
SWIDTH 369 0
DWIDTH 8 0
BBX 8 18 0 -4
BITMAP
00
00
00
00
00
00
03
5B
FE
D7
6B
1B
1B
1B
1B
0E
00
00
ENDCHAR
STARTCHAR uni0E0C
ENCODING 3596
SWIDTH 369 0
DWIDTH 8 0
BBX 8 18 0 -4
BITMAP
00
00
00
00
00
00
00
33
7B
2B
6B
6B
6B
6B
57
6B
00
00
ENDCHAR
STARTCHAR uni0E0D
ENCODING 3597
SWIDTH 369 0
DWIDTH 8 0
BBX 8 18 0 -4
BITMAP
00
00
00
00
00
00
00
33
7B
2B
6B
6B
6B
6B
5B
6F
0C
0F
ENDCHAR
STARTCHAR uni0E0E
ENCODING 3598
SWIDTH 369 0
DWIDTH 8 0
BBX 8 18 0 -4
BITMAP
00
00
00
00
00
00
00
3C
66
36
66
66
66
66
B6
66
56
2E
ENDCHAR
STARTCHAR uni0E0F
ENCODING 3599
SWIDTH 369 0
DWIDTH 8 0
BBX 8 18 0 -4
BITMAP
00
00
00
00
00
00
00
3C
66
36
66
66
66
66
B6
66
56
2A
ENDCHAR
STARTCHAR uni0E10
ENCODING 3600
SWIDTH 369 0
DWIDTH 8 0
BBX 8 18 0 -4
BITMAP
00
00
00
00
00
00
00
3A
66
78
0E
36
6E
36
26
6A
BE
D4
ENDCHAR
STARTCHAR uni0E11
ENCODING 3601
SWIDTH 369 0
DWIDTH 8 0
BBX 8 18 0 -4
BITMAP
00
00
00
00
00
00
00
5B
FF
AB
5B
33
33
33
33
33
00
00
ENDCHAR
STARTCHAR uni0E12
ENCODING 3602
SWIDTH 369 0
DWIDTH 8 0
BBX 8 18 0 -4
BITMAP
00
00
00
00
00
00
00
2B
7B
6B
6B
7B
6B
6B
77
6B
00
00
ENDCHAR
STARTCHAR uni0E13
ENCODING 3603
SWIDTH 369 0
DWIDTH 8 0
BBX 8 18 0 -4
BITMAP
00
00
00
00
00
00
00
33
7B
2B
6B
6B
6B
6A
5D
6B
00
00
ENDCHAR
STARTCHAR uni0E14
ENCODING 3604
SWIDTH 369 0
DWIDTH 8 0
BBX 8 18 0 -4
BITMAP
00
00
00
00
00
00
00
3E
77
63
6B
77
6F
6B
73
63
00
00
ENDCHAR
STARTCHAR uni0E15
ENCODING 3605
SWIDTH 369 0
DWIDTH 8 0
BBX 8 18 0 -4
BITMAP
00
00
00
00
00
00
00
22
77
6B
6B
77
6F
6B
73
63
00
00
ENDCHAR
STARTCHAR uni0E16
ENCODING 3606
SWIDTH 369 0
DWIDTH 8 0
BBX 8 18 0 -4
BITMAP
00
00
00
00
00
00
00
3E
67
33
63
63
63
73
6B
33
00
00
ENDCHAR
STARTCHAR uni0E17
ENCODING 3607
SWIDTH 369 0
DWIDTH 8 0
BBX 8 18 0 -4
BITMAP
00
00
00
00
00
00
00
33
77
5B
3B
33
33
33
33
33
00
00
ENDCHAR
STARTCHAR uni0E18
ENCODING 3608
SWIDTH 369 0
DWIDTH 8 0
BBX 8 18 0 -4
BITMAP
00
00
00
00
00
00
00
3A
66
78
0E
66
66
66
66
7E
00
00
ENDCHAR
STARTCHAR uni0E19
ENCODING 3609
SWIDTH 369 0
DWIDTH 8 0
BBX 8 18 0 -4
BITMAP
00
00
00
00
00
00
00
66
B6
66
66
66
66
6D
77
66
00
00
ENDCHAR
STARTCHAR uni0E1A
ENCODING 3610
SWIDTH 369 0
DWIDTH 8 0
BBX 8 18 0 -4
BITMAP
00
00
00
00
00
00
00
63
B3
63
63
63
63
63
63
7F
00
00
ENDCHAR
STARTCHAR uni0E1B
ENCODING 3611
SWIDTH 369 0
DWIDTH 8 0
BBX 8 18 0 -4
BITMAP
00
00
00
00
00
03
03
63
B3
63
63
63
63
63
63
7F
00
00
ENDCHAR
STARTCHAR uni0E1C
ENCODING 3612
SWIDTH 369 0
DWIDTH 8 0
BBX 8 18 0 -4
BITMAP
00
00
00
00
00
00
00
33
6B
73
63
6B
6B
77
63
63
00
00
ENDCHAR
STARTCHAR uni0E1D
ENCODING 3613
SWIDTH 369 0
DWIDTH 8 0
BBX 8 18 0 -4
BITMAP
00
00
00
00
00
03
03
33
6B
73
63
6B
6B
77
63
63
00
00
ENDCHAR
STARTCHAR uni0E1E
ENCODING 3614
SWIDTH 369 0
DWIDTH 8 0
BBX 8 18 0 -4
BITMAP
00
00
00
00
00
00
00
63
B3
63
6B
6B
77
63
63
63
00
00
ENDCHAR
STARTCHAR uni0E1F
ENCODING 3615
SWIDTH 369 0
DWIDTH 8 0
BBX 8 18 0 -4
BITMAP
00
00
00
00
00
03
03
63
B3
63
6B
6B
77
63
63
63
00
00
ENDCHAR
STARTCHAR uni0E20
ENCODING 3616
SWIDTH 369 0
DWIDTH 8 0
BBX 8 18 0 -4
BITMAP
00
00
00
00
00
00
00
3E
67
33
63
63
63
63
B3
63
00
00
ENDCHAR
STARTCHAR uni0E21
ENCODING 3617
SWIDTH 369 0
DWIDTH 8 0
BBX 8 18 0 -4
BITMAP
00
00
00
00
00
00
00
33
53
73
33
33
33
5B
77
33
00
00
ENDCHAR
STARTCHAR uni0E22
ENCODING 3618
SWIDTH 369 0
DWIDTH 8 0
BBX 8 18 0 -4
BITMAP
00
00
00
00
00
00
00
33
6B
73
63
3B
63
63
63
7F
00
00
ENDCHAR
STARTCHAR uni0E23
ENCODING 3619
SWIDTH 369 0
DWIDTH 8 0
BBX 8 18 0 -4
BITMAP
00
00
00
00
00
00
00
3A
66
78
0E
06
06
0E
16
0C
00
00
ENDCHAR
STARTCHAR uni0E24
ENCODING 3620
SWIDTH 369 0
DWIDTH 8 0
BBX 8 18 0 -4
BITMAP
00
00
00
00
00
00
00
3E
67
33
63
63
63
73
6B
33
03
00
ENDCHAR
STARTCHAR uni0E25
ENCODING 3621
SWIDTH 369 0
DWIDTH 8 0
BBX 8 18 0 -4
BITMAP
00
00
00
00
00
00
00
3C
66
46
36
6E
66
66
56
66
00
00
ENDCHAR
STARTCHAR uni0E26
ENCODING 3622
SWIDTH 369 0
DWIDTH 8 0
BBX 8 18 0 -4
BITMAP
00
00
00
00
00
00
00
3E
67
33
63
63
63
63
B3
63
03
00
ENDCHAR
STARTCHAR uni0E27
ENCODING 3623
SWIDTH 369 0
DWIDTH 8 0
BBX 8 18 0 -4
BITMAP
00
00
00
00
00
00
00
3C
6E
46
46
06
06
0E
16
0C
00
00
ENDCHAR
STARTCHAR uni0E28
ENCODING 3624
SWIDTH 369 0
DWIDTH 8 0
BBX 8 18 0 -4
BITMAP
00
00
00
00
00
00
03
3E
77
63
6B
77
7B
63
63
63
00
00
ENDCHAR
STARTCHAR uni0E29
ENCODING 3625
SWIDTH 369 0
DWIDTH 8 0
BBX 8 18 0 -4
BITMAP
00
00
00
00
00
00
00
63
B3
63
6B
77
6B
63
63
7F
00
00
ENDCHAR
STARTCHAR uni0E2A
ENCODING 3626
SWIDTH 369 0
DWIDTH 8 0
BBX 8 18 0 -4
BITMAP
00
00
00
00
00
00
06
3C
66
46
36
6E
66
66
56
66
00
00
ENDCHAR
STARTCHAR uni0E2B
ENCODING 3627
SWIDTH 369 0
DWIDTH 8 0
BBX 8 18 0 -4
BITMAP
00
00
00
00
00
00
00
66
AB
6E
76
66
66
66
66
66
00
00
ENDCHAR
STARTCHAR uni0E2C
ENCODING 3628
SWIDTH 369 0
DWIDTH 8 0
BBX 8 18 0 -4
BITMAP
00
00
00
00
00
01
03
67
BB
6F
63
6B
77
63
63
63
00
00
ENDCHAR
STARTCHAR uni0E2D
ENCODING 3629
SWIDTH 369 0
DWIDTH 8 0
BBX 8 18 0 -4
BITMAP
00
00
00
00
00
00
00
3C
66
46
36
6E
76
66
66
7E
00
00
ENDCHAR
STARTCHAR uni0E2E
ENCODING 3630
SWIDTH 369 0
DWIDTH 8 0
BBX 8 18 0 -4
BITMAP
00
00
00
00
00
00
06
3E
66
7E
06
36
6E
76
66
7E
00
00
ENDCHAR
STARTCHAR uni0E2F
ENCODING 3631
SWIDTH 369 0
DWIDTH 8 0
BBX 8 18 0 -4
BITMAP
00
00
00
00
00
00
00
26
56
66
6E
36
06
06
06
06
00
00
ENDCHAR
STARTCHAR uni0E30
ENCODING 3632
SWIDTH 369 0
DWIDTH 8 0
BBX 8 18 0 -4
BITMAP
00
00
00
00
00
00
00
00
36
66
3C
00
36
66
3C
00
00
00
ENDCHAR
STARTCHAR uni0E31
ENCODING 3633
SWIDTH 369 0
DWIDTH 8 0
BBX 8 18 0 -4
BITMAP
00
00
00
33
6B
3E
00
00
00
00
00
00
00
00
00
00
00
00
ENDCHAR
STARTCHAR uni0E32
ENCODING 3634
SWIDTH 369 0
DWIDTH 8 0
BBX 8 18 0 -4
BITMAP
00
00
00
00
00
00
00
3C
6E
46
46
06
06
06
06
06
00
00
ENDCHAR
STARTCHAR uni0E33
ENCODING 3635
SWIDTH 369 0
DWIDTH 8 0
BBX 8 18 0 -4
BITMAP
00
00
60
D0
D0
60
00
1E
37
23
23
03
03
03
03
03
00
00
ENDCHAR
STARTCHAR uni0E34
ENCODING 3636
SWIDTH 369 0
DWIDTH 8 0
BBX 8 18 0 -4
BITMAP
00
00
00
3C
66
7E
00
00
00
00
00
00
00
00
00
00
00
00
ENDCHAR
STARTCHAR uni0E35
ENCODING 3637
SWIDTH 369 0
DWIDTH 8 0
BBX 8 18 0 -4
BITMAP
00
00
02
3A
66
7E
00
00
00
00
00
00
00
00
00
00
00
00
ENDCHAR
STARTCHAR uni0E36
ENCODING 3638
SWIDTH 369 0
DWIDTH 8 0
BBX 8 18 0 -4
BITMAP
00
00
02
3D
66
7E
00
00
00
00
00
00
00
00
00
00
00
00
ENDCHAR
STARTCHAR uni0E37
ENCODING 3639
SWIDTH 369 0
DWIDTH 8 0
BBX 8 18 0 -4
BITMAP
00
00
0A
3A
66
7E
00
00
00
00
00
00
00
00
00
00
00
00
ENDCHAR
STARTCHAR uni0E38
ENCODING 3640
SWIDTH 369 0
DWIDTH 8 0
BBX 8 18 0 -4
BITMAP
00
00
00
00
00
00
00
00
00
00
00
00
00
00
00
00
00
0E
ENDCHAR
STARTCHAR uni0E39
ENCODING 3641
SWIDTH 369 0
DWIDTH 8 0
BBX 8 18 0 -4
BITMAP
00
00
00
00
00
00
00
00
00
00
00
00
00
00
00
00
00
1A
ENDCHAR
STARTCHAR uni0E3A
ENCODING 3642
SWIDTH 369 0
DWIDTH 8 0
BBX 8 18 0 -4
BITMAP
00
00
00
00
00
00
00
00
00
00
00
00
00
00
00
00
00
06
ENDCHAR
STARTCHAR uni0E3F
ENCODING 3647
SWIDTH 369 0
DWIDTH 8 0
BBX 8 18 0 -4
BITMAP
00
00
00
00
00
18
18
7C
66
66
7E
63
63
63
63
7E
18
18
ENDCHAR
STARTCHAR uni0E40
ENCODING 3648
SWIDTH 369 0
DWIDTH 8 0
BBX 8 18 0 -4
BITMAP
00
00
00
00
00
00
00
18
18
18
18
18
18
18
34
18
00
00
ENDCHAR
STARTCHAR uni0E41
ENCODING 3649
SWIDTH 369 0
DWIDTH 8 0
BBX 8 18 0 -4
BITMAP
00
00
00
00
00
00
00
66
66
66
66
66
66
66
DD
66
00
00
ENDCHAR
STARTCHAR uni0E42
ENCODING 3650
SWIDTH 369 0
DWIDTH 8 0
BBX 8 18 0 -4
BITMAP
00
00
1D
37
62
7C
06
06
06
06
06
06
06
06
0D
06
00
00
ENDCHAR
STARTCHAR uni0E43
ENCODING 3651
SWIDTH 369 0
DWIDTH 8 0
BBX 8 18 0 -4
BITMAP
00
00
1E
27
73
6E
36
06
06
06
06
06
06
06
0D
06
00
00
ENDCHAR
STARTCHAR uni0E44
ENCODING 3652
SWIDTH 369 0
DWIDTH 8 0
BBX 8 18 0 -4
BITMAP
00
00
4C
EE
73
26
06
06
06
06
06
06
06
06
0D
06
00
00
ENDCHAR
STARTCHAR uni0E45
ENCODING 3653
SWIDTH 369 0
DWIDTH 8 0
BBX 8 18 0 -4
BITMAP
00
00
00
00
00
00
00
3C
6E
46
46
06
06
06
06
06
06
00
ENDCHAR
STARTCHAR uni0E46
ENCODING 3654
SWIDTH 369 0
DWIDTH 8 0
BBX 8 18 0 -4
BITMAP
00
00
00
00
00
00
00
2C
7E
66
66
56
26
06
06
06
0C
00
ENDCHAR
STARTCHAR uni0E47
ENCODING 3655
SWIDTH 369 0
DWIDTH 8 0
BBX 8 18 0 -4
BITMAP
00
02
3E
64
7A
2C
00
00
00
00
00
00
00
00
00
00
00
00
ENDCHAR
STARTCHAR uni0E48
ENCODING 3656
SWIDTH 369 0
DWIDTH 8 0
BBX 8 18 0 -4
BITMAP
00
00
00
06
06
06
00
00
00
00
00
00
00
00
00
00
00
00
ENDCHAR
STARTCHAR uni0E49
ENCODING 3657
SWIDTH 369 0
DWIDTH 8 0
BBX 8 18 0 -4
BITMAP
00
00
00
36
16
3C
00
00
00
00
00
00
00
00
00
00
00
00
ENDCHAR
STARTCHAR uni0E4A
ENCODING 3658
SWIDTH 369 0
DWIDTH 8 0
BBX 8 18 0 -4
BITMAP
00
00
00
6D
7E
64
00
00
00
00
00
00
00
00
00
00
00
00
ENDCHAR
STARTCHAR uni0E4B
ENCODING 3659
SWIDTH 369 0
DWIDTH 8 0
BBX 8 18 0 -4
BITMAP
00
00
00
0C
3F
0C
00
00
00
00
00
00
00
00
00
00
00
00
ENDCHAR
STARTCHAR uni0E4C
ENCODING 3660
SWIDTH 369 0
DWIDTH 8 0
BBX 8 18 0 -4
BITMAP
00
00
06
3C
70
38
00
00
00
00
00
00
00
00
00
00
00
00
ENDCHAR
STARTCHAR uni0E4D
ENCODING 3661
SWIDTH 369 0
DWIDTH 8 0
BBX 8 18 0 -4
BITMAP
00
00
18
34
34
18
00
00
00
00
00
00
00
00
00
00
00
00
ENDCHAR
STARTCHAR uni0E4E
ENCODING 3662
SWIDTH 369 0
DWIDTH 8 0
BBX 8 18 0 -4
BITMAP
00
06
0F
1D
18
0C
00
00
00
00
00
00
00
00
00
00
00
00
ENDCHAR
STARTCHAR uni0E4F
ENCODING 3663
SWIDTH 369 0
DWIDTH 8 0
BBX 8 18 0 -4
BITMAP
00
00
00
00
00
00
00
3E
63
6B
7F
7F
7F
6B
63
3E
00
00
ENDCHAR
STARTCHAR uni0E50
ENCODING 3664
SWIDTH 369 0
DWIDTH 8 0
BBX 8 18 0 -4
BITMAP
00
00
00
00
00
00
00
3E
63
63
63
63
63
63
63
3E
00
00
ENDCHAR
STARTCHAR uni0E51
ENCODING 3665
SWIDTH 369 0
DWIDTH 8 0
BBX 8 18 0 -4
BITMAP
00
00
00
00
00
00
00
3E
63
73
6B
33
03
03
06
1C
00
00
ENDCHAR
STARTCHAR uni0E52
ENCODING 3666
SWIDTH 369 0
DWIDTH 8 0
BBX 8 18 0 -4
BITMAP
00
00
00
00
00
00
C0
6B
6F
6B
6B
77
6B
63
63
7F
00
00
ENDCHAR
STARTCHAR uni0E53
ENCODING 3667
SWIDTH 369 0
DWIDTH 8 0
BBX 8 18 0 -4
BITMAP
00
00
00
00
00
00
00
36
6B
6B
63
63
63
73
6B
36
00
00
ENDCHAR
STARTCHAR uni0E54
ENCODING 3668
SWIDTH 369 0
DWIDTH 8 0
BBX 8 18 0 -4
BITMAP
00
00
00
00
00
00
03
3E
6C
64
6E
6A
6C
64
67
3D
00
00
ENDCHAR
STARTCHAR uni0E55
ENCODING 3669
SWIDTH 369 0
DWIDTH 8 0
BBX 8 18 0 -4
BITMAP
00
00
00
00
00
09
1B
36
6C
64
6E
6A
6C
64
67
3D
00
00
ENDCHAR
STARTCHAR uni0E56
ENCODING 3670
SWIDTH 369 0
DWIDTH 8 0
BBX 8 18 0 -4
BITMAP
00
00
00
00
00
00
40
EE
7B
33
23
03
13
2B
36
1C
00
00
ENDCHAR
STARTCHAR uni0E57
ENCODING 3671
SWIDTH 369 0
DWIDTH 8 0
BBX 8 18 0 -4
BITMAP
00
00
00
00
00
00
03
6B
7F
67
66
66
66
66
54
64
00
00
ENDCHAR
STARTCHAR uni0E58
ENCODING 3672
SWIDTH 369 0
DWIDTH 8 0
BBX 8 18 0 -4
BITMAP
00
00
00
00
00
00
03
3F
66
60
63
65
6B
6D
77
22
00
00
ENDCHAR
STARTCHAR uni0E59
ENCODING 3673
SWIDTH 369 0
DWIDTH 8 0
BBX 8 18 0 -4
BITMAP
00
00
00
00
00
00
03
3B
7F
6A
6C
6C
66
76
6B
32
00
00
ENDCHAR
STARTCHAR uni0E5A
ENCODING 3674
SWIDTH 369 0
DWIDTH 8 0
BBX 8 18 0 -4
BITMAP
00
00
00
00
00
00
5B
5B
7F
1B
1B
1B
1B
1B
1B
1B
00
00
ENDCHAR
STARTCHAR uni0E5B
ENCODING 3675
SWIDTH 369 0
DWIDTH 8 0
BBX 8 18 0 -4
BITMAP
00
00
00
00
00
00
30
68
60
6A
6A
6F
6A
6A
68
30
00
00
ENDCHAR
STARTCHAR Wgrave
ENCODING 7808
SWIDTH 369 0
DWIDTH 8 0
BBX 8 18 0 -4
BITMAP
0C
06
00
63
63
63
63
63
6B
6B
6B
6B
36
36
00
00
00
00
ENDCHAR
STARTCHAR wgrave
ENCODING 7809
SWIDTH 369 0
DWIDTH 8 0
BBX 8 18 0 -4
BITMAP
00
00
18
0C
06
00
63
63
63
63
6B
6B
6B
36
00
00
00
00
ENDCHAR
STARTCHAR Wacute
ENCODING 7810
SWIDTH 369 0
DWIDTH 8 0
BBX 8 18 0 -4
BITMAP
18
30
00
63
63
63
63
63
6B
6B
6B
6B
36
36
00
00
00
00
ENDCHAR
STARTCHAR wacute
ENCODING 7811
SWIDTH 369 0
DWIDTH 8 0
BBX 8 18 0 -4
BITMAP
00
06
0C
18
30
00
63
63
63
63
6B
6B
6B
36
00
00
00
00
ENDCHAR
STARTCHAR Wdieresis
ENCODING 7812
SWIDTH 369 0
DWIDTH 8 0
BBX 8 18 0 -4
BITMAP
33
33
00
63
63
63
63
63
6B
6B
6B
6B
36
36
00
00
00
00
ENDCHAR
STARTCHAR wdieresis
ENCODING 7813
SWIDTH 369 0
DWIDTH 8 0
BBX 8 18 0 -4
BITMAP
00
00
00
33
33
00
63
63
63
63
6B
6B
6B
36
00
00
00
00
ENDCHAR
STARTCHAR Ygrave
ENCODING 7922
SWIDTH 369 0
DWIDTH 8 0
BBX 8 18 0 -4
BITMAP
00
30
0C
00
66
66
66
66
3C
18
18
18
18
18
00
00
00
00
ENDCHAR
STARTCHAR ygrave
ENCODING 7923
SWIDTH 369 0
DWIDTH 8 0
BBX 8 18 0 -4
BITMAP
00
00
18
0C
06
00
63
63
63
63
63
63
67
3B
03
03
3E
00
ENDCHAR
STARTCHAR endash
ENCODING 8211
SWIDTH 369 0
DWIDTH 8 0
BBX 8 18 0 -4
BITMAP
00
00
00
00
00
00
00
00
00
00
3E
00
00
00
00
00
00
00
ENDCHAR
STARTCHAR emdash
ENCODING 8212
SWIDTH 369 0
DWIDTH 8 0
BBX 8 18 0 -4
BITMAP
00
00
00
00
00
00
00
00
00
00
7F
00
00
00
00
00
00
00
ENDCHAR
STARTCHAR underscoredbl
ENCODING 8215
SWIDTH 369 0
DWIDTH 8 0
BBX 8 18 0 -4
BITMAP
00
00
00
00
00
00
00
00
00
00
00
00
00
FF
00
FF
00
00
ENDCHAR
STARTCHAR quoteleft
ENCODING 8216
SWIDTH 369 0
DWIDTH 8 0
BBX 8 18 0 -4
BITMAP
00
00
08
10
18
18
00
00
00
00
00
00
00
00
00
00
00
00
ENDCHAR
STARTCHAR quoteright
ENCODING 8217
SWIDTH 369 0
DWIDTH 8 0
BBX 8 18 0 -4
BITMAP
00
00
18
18
08
10
00
00
00
00
00
00
00
00
00
00
00
00
ENDCHAR
STARTCHAR quotesinglbase
ENCODING 8218
SWIDTH 369 0
DWIDTH 8 0
BBX 8 18 0 -4
BITMAP
00
00
00
00
00
00
00
00
00
00
00
00
18
18
08
10
00
00
ENDCHAR
STARTCHAR quotedblleft
ENCODING 8220
SWIDTH 369 0
DWIDTH 8 0
BBX 8 18 0 -4
BITMAP
00
00
12
24
36
36
00
00
00
00
00
00
00
00
00
00
00
00
ENDCHAR
STARTCHAR quotedblright
ENCODING 8221
SWIDTH 369 0
DWIDTH 8 0
BBX 8 18 0 -4
BITMAP
00
00
36
36
12
24
00
00
00
00
00
00
00
00
00
00
00
00
ENDCHAR
STARTCHAR quotedblbase
ENCODING 8222
SWIDTH 369 0
DWIDTH 8 0
BBX 8 18 0 -4
BITMAP
00
00
00
00
00
00
00
00
00
00
00
00
36
36
12
24
00
00
ENDCHAR
STARTCHAR dagger
ENCODING 8224
SWIDTH 369 0
DWIDTH 8 0
BBX 8 18 0 -4
BITMAP
00
00
00
18
18
18
7E
18
18
18
18
18
18
18
18
00
00
00
ENDCHAR
STARTCHAR daggerdbl
ENCODING 8225
SWIDTH 369 0
DWIDTH 8 0
BBX 8 18 0 -4
BITMAP
00
00
00
18
18
18
7E
18
18
18
18
7E
18
18
18
00
00
00
ENDCHAR
STARTCHAR bullet
ENCODING 8226
SWIDTH 369 0
DWIDTH 8 0
BBX 8 18 0 -4
BITMAP
00
00
00
00
00
00
00
18
3C
3C
18
00
00
00
00
00
00
00
ENDCHAR
STARTCHAR ellipsis
ENCODING 8230
SWIDTH 369 0
DWIDTH 8 0
BBX 8 18 0 -4
BITMAP
00
00
00
00
00
00
00
00
00
00
00
00
49
49
00
00
00
00
ENDCHAR
STARTCHAR perthousand
ENCODING 8240
SWIDTH 369 0
DWIDTH 8 0
BBX 8 18 0 -4
BITMAP
00
30
48
49
4B
36
0C
18
30
60
40
36
49
49
49
36
00
00
ENDCHAR
STARTCHAR guilsinglleft
ENCODING 8249
SWIDTH 369 0
DWIDTH 8 0
BBX 8 18 0 -4
BITMAP
00
00
00
00
00
0C
18
30
30
18
0C
00
00
00
00
00
00
00
ENDCHAR
STARTCHAR guilsinglright
ENCODING 8250
SWIDTH 369 0
DWIDTH 8 0
BBX 8 18 0 -4
BITMAP
00
00
00
00
00
30
18
0C
0C
18
30
00
00
00
00
00
00
00
ENDCHAR
STARTCHAR exclamdbl
ENCODING 8252
SWIDTH 369 0
DWIDTH 8 0
BBX 8 18 0 -4
BITMAP
00
00
00
66
66
66
66
66
66
66
66
00
66
66
00
00
00
00
ENDCHAR
STARTCHAR fraction
ENCODING 8260
SWIDTH 369 0
DWIDTH 8 0
BBX 8 18 0 -4
BITMAP
00
00
00
00
01
03
06
0C
18
30
60
C0
80
00
00
00
00
00
ENDCHAR
STARTCHAR uni207F
ENCODING 8319
SWIDTH 369 0
DWIDTH 8 0
BBX 8 18 0 -4
BITMAP
00
6C
76
66
66
66
66
00
00
00
00
00
00
00
00
00
00
00
ENDCHAR
STARTCHAR peseta
ENCODING 8359
SWIDTH 369 0
DWIDTH 8 0
BBX 8 18 0 -4
BITMAP
00
00
00
7C
66
66
66
7C
62
66
6F
66
66
63
00
00
00
00
ENDCHAR
STARTCHAR afii57636
ENCODING 8362
SWIDTH 369 0
DWIDTH 8 0
BBX 8 18 0 -4
BITMAP
00
00
00
7D
45
55
55
55
55
55
55
55
51
5F
00
00
00
00
ENDCHAR
STARTCHAR Euro
ENCODING 8364
SWIDTH 369 0
DWIDTH 8 0
BBX 8 18 0 -4
BITMAP
00
00
00
1E
33
60
60
FE
60
FC
60
60
33
1E
00
00
00
00
ENDCHAR
STARTCHAR afii61289
ENCODING 8467
SWIDTH 369 0
DWIDTH 8 0
BBX 8 18 0 -4
BITMAP
00
00
00
38
6C
6C
6C
6C
6C
6C
3C
18
7F
77
00
00
00
00
ENDCHAR
STARTCHAR afii61352
ENCODING 8470
SWIDTH 369 0
DWIDTH 8 0
BBX 8 18 0 -4
BITMAP
00
00
00
4A
4D
6D
6A
68
6F
58
58
58
48
48
00
00
00
00
ENDCHAR
STARTCHAR trademark
ENCODING 8482
SWIDTH 369 0
DWIDTH 8 0
BBX 8 18 0 -4
BITMAP
00
00
79
2F
29
29
29
00
00
00
00
00
00
00
00
00
00
00
ENDCHAR
STARTCHAR arrowleft
ENCODING 8592
SWIDTH 369 0
DWIDTH 8 0
BBX 8 18 0 -4
BITMAP
00
00
00
00
00
00
10
30
7F
30
10
00
00
00
00
00
00
00
ENDCHAR
STARTCHAR arrowup
ENCODING 8593
SWIDTH 369 0
DWIDTH 8 0
BBX 8 18 0 -4
BITMAP
00
00
00
08
1C
3E
08
08
08
08
08
08
08
08
00
00
00
00
ENDCHAR
STARTCHAR arrowright
ENCODING 8594
SWIDTH 369 0
DWIDTH 8 0
BBX 8 18 0 -4
BITMAP
00
00
00
00
00
00
04
06
7F
06
04
00
00
00
00
00
00
00
ENDCHAR
STARTCHAR arrowdown
ENCODING 8595
SWIDTH 369 0
DWIDTH 8 0
BBX 8 18 0 -4
BITMAP
00
00
00
08
08
08
08
08
08
08
08
3E
1C
08
00
00
00
00
ENDCHAR
STARTCHAR arrowboth
ENCODING 8596
SWIDTH 369 0
DWIDTH 8 0
BBX 8 18 0 -4
BITMAP
00
00
00
00
00
00
24
66
FF
66
24
00
00
00
00
00
00
00
ENDCHAR
STARTCHAR arrowupdn
ENCODING 8597
SWIDTH 369 0
DWIDTH 8 0
BBX 8 18 0 -4
BITMAP
00
00
00
08
1C
3E
08
08
08
08
08
3E
1C
08
00
00
00
00
ENDCHAR
STARTCHAR arrowupdnbse
ENCODING 8616
SWIDTH 369 0
DWIDTH 8 0
BBX 8 18 0 -4
BITMAP
00
00
00
08
1C
3E
08
08
08
08
08
3E
1C
08
3E
00
00
00
ENDCHAR
STARTCHAR uni2219
ENCODING 8729
SWIDTH 369 0
DWIDTH 8 0
BBX 8 18 0 -4
BITMAP
00
00
00
00
00
00
00
1C
1C
1C
00
00
00
00
00
00
00
00
ENDCHAR
STARTCHAR radical
ENCODING 8730
SWIDTH 369 0
DWIDTH 8 0
BBX 8 18 0 -4
BITMAP
00
0F
08
08
08
08
08
08
08
08
68
38
18
08
00
00
00
00
ENDCHAR
STARTCHAR infinity
ENCODING 8734
SWIDTH 369 0
DWIDTH 8 0
BBX 8 18 0 -4
BITMAP
00
00
00
00
00
00
36
6B
6B
6B
6B
36
00
00
00
00
00
00
ENDCHAR
STARTCHAR orthogonal
ENCODING 8735
SWIDTH 369 0
DWIDTH 8 0
BBX 8 18 0 -4
BITMAP
00
00
00
00
00
00
60
60
60
60
60
7F
00
00
00
00
00
00
ENDCHAR
STARTCHAR intersection
ENCODING 8745
SWIDTH 369 0
DWIDTH 8 0
BBX 8 18 0 -4
BITMAP
00
00
00
3E
63
63
63
63
63
63
63
63
63
63
00
00
00
00
ENDCHAR
STARTCHAR integral
ENCODING 8747
SWIDTH 369 0
DWIDTH 8 0
BBX 8 18 0 -4
BITMAP
00
0E
1B
1B
18
18
18
18
18
18
18
18
18
D8
D8
70
00
00
ENDCHAR
STARTCHAR approxequal
ENCODING 8776
SWIDTH 369 0
DWIDTH 8 0
BBX 8 18 0 -4
BITMAP
00
00
00
00
00
00
39
4E
00
39
4E
00
00
00
00
00
00
00
ENDCHAR
STARTCHAR notequal
ENCODING 8800
SWIDTH 369 0
DWIDTH 8 0
BBX 8 18 0 -4
BITMAP
00
00
00
00
00
02
04
7E
08
10
7E
20
40
00
00
00
00
00
ENDCHAR
STARTCHAR equivalence
ENCODING 8801
SWIDTH 369 0
DWIDTH 8 0
BBX 8 18 0 -4
BITMAP
00
00
00
00
00
00
7E
00
7E
00
7E
00
00
00
00
00
00
00
ENDCHAR
STARTCHAR lessequal
ENCODING 8804
SWIDTH 369 0
DWIDTH 8 0
BBX 8 18 0 -4
BITMAP
00
00
00
00
06
0C
18
30
18
0C
06
00
3E
00
00
00
00
00
ENDCHAR
STARTCHAR greaterequal
ENCODING 8805
SWIDTH 369 0
DWIDTH 8 0
BBX 8 18 0 -4
BITMAP
00
00
00
00
30
18
0C
06
0C
18
30
00
3E
00
00
00
00
00
ENDCHAR
STARTCHAR house
ENCODING 8962
SWIDTH 369 0
DWIDTH 8 0
BBX 8 18 0 -4
BITMAP
00
00
00
00
00
08
1C
36
63
63
63
63
63
7F
00
00
00
00
ENDCHAR
STARTCHAR revlogicalnot
ENCODING 8976
SWIDTH 369 0
DWIDTH 8 0
BBX 8 18 0 -4
BITMAP
00
00
00
00
00
00
7F
60
60
60
60
60
00
00
00
00
00
00
ENDCHAR
STARTCHAR uni2318
ENCODING 8984
SWIDTH 369 0
DWIDTH 8 0
BBX 8 18 0 -4
BITMAP
00
00
00
E7
A5
A5
FF
24
24
24
FF
A5
A5
E7
00
00
00
00
ENDCHAR
STARTCHAR uni2319
ENCODING 8985
SWIDTH 369 0
DWIDTH 8 0
BBX 8 18 0 -4
BITMAP
00
00
00
00
00
00
60
60
60
60
60
7F
00
00
00
00
00
00
ENDCHAR
STARTCHAR integraltp
ENCODING 8992
SWIDTH 369 0
DWIDTH 8 0
BBX 8 18 0 -4
BITMAP
00
00
0C
1A
1A
18
18
18
18
18
18
18
18
18
18
18
18
18
ENDCHAR
STARTCHAR integralbt
ENCODING 8993
SWIDTH 369 0
DWIDTH 8 0
BBX 8 18 0 -4
BITMAP
18
18
18
18
18
18
18
18
18
18
18
18
18
58
58
30
00
00
ENDCHAR
STARTCHAR SF100000
ENCODING 9472
SWIDTH 369 0
DWIDTH 8 0
BBX 8 18 0 -4
BITMAP
00
00
00
00
00
00
00
00
FF
00
00
00
00
00
00
00
00
00
ENDCHAR
STARTCHAR SF110000
ENCODING 9474
SWIDTH 369 0
DWIDTH 8 0
BBX 8 18 0 -4
BITMAP
08
08
08
08
08
08
08
08
08
08
08
08
08
08
08
08
08
08
ENDCHAR
STARTCHAR SF010000
ENCODING 9484
SWIDTH 369 0
DWIDTH 8 0
BBX 8 18 0 -4
BITMAP
00
00
00
00
00
00
00
00
0F
08
08
08
08
08
08
08
08
08
ENDCHAR
STARTCHAR SF030000
ENCODING 9488
SWIDTH 369 0
DWIDTH 8 0
BBX 8 18 0 -4
BITMAP
00
00
00
00
00
00
00
00
F8
08
08
08
08
08
08
08
08
08
ENDCHAR
STARTCHAR SF020000
ENCODING 9492
SWIDTH 369 0
DWIDTH 8 0
BBX 8 18 0 -4
BITMAP
08
08
08
08
08
08
08
08
0F
00
00
00
00
00
00
00
00
00
ENDCHAR
STARTCHAR SF040000
ENCODING 9496
SWIDTH 369 0
DWIDTH 8 0
BBX 8 18 0 -4
BITMAP
08
08
08
08
08
08
08
08
F8
00
00
00
00
00
00
00
00
00
ENDCHAR
STARTCHAR SF080000
ENCODING 9500
SWIDTH 369 0
DWIDTH 8 0
BBX 8 18 0 -4
BITMAP
08
08
08
08
08
08
08
08
0F
08
08
08
08
08
08
08
08
08
ENDCHAR
STARTCHAR SF090000
ENCODING 9508
SWIDTH 369 0
DWIDTH 8 0
BBX 8 18 0 -4
BITMAP
08
08
08
08
08
08
08
08
F8
08
08
08
08
08
08
08
08
08
ENDCHAR
STARTCHAR SF060000
ENCODING 9516
SWIDTH 369 0
DWIDTH 8 0
BBX 8 18 0 -4
BITMAP
00
00
00
00
00
00
00
00
FF
08
08
08
08
08
08
08
08
08
ENDCHAR
STARTCHAR SF070000
ENCODING 9524
SWIDTH 369 0
DWIDTH 8 0
BBX 8 18 0 -4
BITMAP
08
08
08
08
08
08
08
08
FF
00
00
00
00
00
00
00
00
00
ENDCHAR
STARTCHAR SF050000
ENCODING 9532
SWIDTH 369 0
DWIDTH 8 0
BBX 8 18 0 -4
BITMAP
08
08
08
08
08
08
08
08
FF
08
08
08
08
08
08
08
08
08
ENDCHAR
STARTCHAR SF430000
ENCODING 9552
SWIDTH 369 0
DWIDTH 8 0
BBX 8 18 0 -4
BITMAP
00
00
00
00
00
00
00
FF
00
FF
00
00
00
00
00
00
00
00
ENDCHAR
STARTCHAR SF240000
ENCODING 9553
SWIDTH 369 0
DWIDTH 8 0
BBX 8 18 0 -4
BITMAP
14
14
14
14
14
14
14
14
14
14
14
14
14
14
14
14
14
14
ENDCHAR
STARTCHAR SF510000
ENCODING 9554
SWIDTH 369 0
DWIDTH 8 0
BBX 8 18 0 -4
BITMAP
00
00
00
00
00
00
00
0F
08
0F
08
08
08
08
08
08
08
08
ENDCHAR
STARTCHAR SF520000
ENCODING 9555
SWIDTH 369 0
DWIDTH 8 0
BBX 8 18 0 -4
BITMAP
00
00
00
00
00
00
00
00
1F
14
14
14
14
14
14
14
14
14
ENDCHAR
STARTCHAR SF390000
ENCODING 9556
SWIDTH 369 0
DWIDTH 8 0
BBX 8 18 0 -4
BITMAP
00
00
00
00
00
00
00
1F
10
17
14
14
14
14
14
14
14
14
ENDCHAR
STARTCHAR SF220000
ENCODING 9557
SWIDTH 369 0
DWIDTH 8 0
BBX 8 18 0 -4
BITMAP
00
00
00
00
00
00
00
F8
08
F8
08
08
08
08
08
08
08
08
ENDCHAR
STARTCHAR SF210000
ENCODING 9558
SWIDTH 369 0
DWIDTH 8 0
BBX 8 18 0 -4
BITMAP
00
00
00
00
00
00
00
00
FC
14
14
14
14
14
14
14
14
14
ENDCHAR
STARTCHAR SF250000
ENCODING 9559
SWIDTH 369 0
DWIDTH 8 0
BBX 8 18 0 -4
BITMAP
00
00
00
00
00
00
00
FC
04
F4
14
14
14
14
14
14
14
14
ENDCHAR
STARTCHAR SF500000
ENCODING 9560
SWIDTH 369 0
DWIDTH 8 0
BBX 8 18 0 -4
BITMAP
08
08
08
08
08
08
08
08
0F
08
0F
00
00
00
00
00
00
00
ENDCHAR
STARTCHAR SF490000
ENCODING 9561
SWIDTH 369 0
DWIDTH 8 0
BBX 8 18 0 -4
BITMAP
14
14
14
14
14
14
14
14
1F
00
00
00
00
00
00
00
00
00
ENDCHAR
STARTCHAR SF380000
ENCODING 9562
SWIDTH 369 0
DWIDTH 8 0
BBX 8 18 0 -4
BITMAP
14
14
14
14
14
14
14
17
10
1F
00
00
00
00
00
00
00
00
ENDCHAR
STARTCHAR SF280000
ENCODING 9563
SWIDTH 369 0
DWIDTH 8 0
BBX 8 18 0 -4
BITMAP
08
08
08
08
08
08
08
F8
08
F8
00
00
00
00
00
00
00
00
ENDCHAR
STARTCHAR SF270000
ENCODING 9564
SWIDTH 369 0
DWIDTH 8 0
BBX 8 18 0 -4
BITMAP
14
14
14
14
14
14
14
14
FC
00
00
00
00
00
00
00
00
00
ENDCHAR
STARTCHAR SF260000
ENCODING 9565
SWIDTH 369 0
DWIDTH 8 0
BBX 8 18 0 -4
BITMAP
14
14
14
14
14
14
14
F4
04
FC
00
00
00
00
00
00
00
00
ENDCHAR
STARTCHAR SF360000
ENCODING 9566
SWIDTH 369 0
DWIDTH 8 0
BBX 8 18 0 -4
BITMAP
08
08
08
08
08
08
08
0F
08
0F
08
08
08
08
08
08
08
08
ENDCHAR
STARTCHAR SF370000
ENCODING 9567
SWIDTH 369 0
DWIDTH 8 0
BBX 8 18 0 -4
BITMAP
14
14
14
14
14
14
14
14
17
14
14
14
14
14
14
14
14
14
ENDCHAR
STARTCHAR SF420000
ENCODING 9568
SWIDTH 369 0
DWIDTH 8 0
BBX 8 18 0 -4
BITMAP
14
14
14
14
14
14
14
17
10
17
14
14
14
14
14
14
14
14
ENDCHAR
STARTCHAR SF190000
ENCODING 9569
SWIDTH 369 0
DWIDTH 8 0
BBX 8 18 0 -4
BITMAP
08
08
08
08
08
08
08
F8
08
F8
08
08
08
08
08
08
08
08
ENDCHAR
STARTCHAR SF200000
ENCODING 9570
SWIDTH 369 0
DWIDTH 8 0
BBX 8 18 0 -4
BITMAP
14
14
14
14
14
14
14
14
F4
14
14
14
14
14
14
14
14
14
ENDCHAR
STARTCHAR SF230000
ENCODING 9571
SWIDTH 369 0
DWIDTH 8 0
BBX 8 18 0 -4
BITMAP
14
14
14
14
14
14
14
F4
04
F4
14
14
14
14
14
14
14
14
ENDCHAR
STARTCHAR SF470000
ENCODING 9572
SWIDTH 369 0
DWIDTH 8 0
BBX 8 18 0 -4
BITMAP
00
00
00
00
00
00
00
FF
00
FF
08
08
08
08
08
08
08
08
ENDCHAR
STARTCHAR SF480000
ENCODING 9573
SWIDTH 369 0
DWIDTH 8 0
BBX 8 18 0 -4
BITMAP
00
00
00
00
00
00
00
00
FF
14
14
14
14
14
14
14
14
14
ENDCHAR
STARTCHAR SF410000
ENCODING 9574
SWIDTH 369 0
DWIDTH 8 0
BBX 8 18 0 -4
BITMAP
00
00
00
00
00
00
00
FF
00
F7
14
14
14
14
14
14
14
14
ENDCHAR
STARTCHAR SF450000
ENCODING 9575
SWIDTH 369 0
DWIDTH 8 0
BBX 8 18 0 -4
BITMAP
08
08
08
08
08
08
08
FF
00
FF
00
00
00
00
00
00
00
00
ENDCHAR
STARTCHAR SF460000
ENCODING 9576
SWIDTH 369 0
DWIDTH 8 0
BBX 8 18 0 -4
BITMAP
14
14
14
14
14
14
14
14
FF
00
00
00
00
00
00
00
00
00
ENDCHAR
STARTCHAR SF400000
ENCODING 9577
SWIDTH 369 0
DWIDTH 8 0
BBX 8 18 0 -4
BITMAP
14
14
14
14
14
14
14
F7
00
FF
00
00
00
00
00
00
00
00
ENDCHAR
STARTCHAR SF540000
ENCODING 9578
SWIDTH 369 0
DWIDTH 8 0
BBX 8 18 0 -4
BITMAP
08
08
08
08
08
08
08
FF
08
FF
08
08
08
08
08
08
08
08
ENDCHAR
STARTCHAR SF530000
ENCODING 9579
SWIDTH 369 0
DWIDTH 8 0
BBX 8 18 0 -4
BITMAP
14
14
14
14
14
14
14
14
FF
14
14
14
14
14
14
14
14
14
ENDCHAR
STARTCHAR SF440000
ENCODING 9580
SWIDTH 369 0
DWIDTH 8 0
BBX 8 18 0 -4
BITMAP
14
14
14
14
14
14
14
F7
00
F7
14
14
14
14
14
14
14
14
ENDCHAR
STARTCHAR upblock
ENCODING 9600
SWIDTH 369 0
DWIDTH 8 0
BBX 8 18 0 -4
BITMAP
FF
FF
FF
FF
FF
FF
FF
FF
FF
00
00
00
00
00
00
00
00
00
ENDCHAR
STARTCHAR dnblock
ENCODING 9604
SWIDTH 369 0
DWIDTH 8 0
BBX 8 18 0 -4
BITMAP
00
00
00
00
00
00
00
00
00
FF
FF
FF
FF
FF
FF
FF
FF
FF
ENDCHAR
STARTCHAR block
ENCODING 9608
SWIDTH 369 0
DWIDTH 8 0
BBX 8 18 0 -4
BITMAP
FF
FF
FF
FF
FF
FF
FF
FF
FF
FF
FF
FF
FF
FF
FF
FF
FF
FF
ENDCHAR
STARTCHAR lfblock
ENCODING 9612
SWIDTH 369 0
DWIDTH 8 0
BBX 8 18 0 -4
BITMAP
F0
F0
F0
F0
F0
F0
F0
F0
F0
F0
F0
F0
F0
F0
F0
F0
F0
F0
ENDCHAR
STARTCHAR rtblock
ENCODING 9616
SWIDTH 369 0
DWIDTH 8 0
BBX 8 18 0 -4
BITMAP
0F
0F
0F
0F
0F
0F
0F
0F
0F
0F
0F
0F
0F
0F
0F
0F
0F
0F
ENDCHAR
STARTCHAR ltshade
ENCODING 9617
SWIDTH 369 0
DWIDTH 8 0
BBX 8 18 0 -4
BITMAP
11
44
11
44
11
44
11
44
11
44
11
44
11
44
11
44
11
44
ENDCHAR
STARTCHAR shade
ENCODING 9618
SWIDTH 369 0
DWIDTH 8 0
BBX 8 18 0 -4
BITMAP
55
AA
55
AA
55
AA
55
AA
55
AA
55
AA
55
AA
55
AA
55
AA
ENDCHAR
STARTCHAR dkshade
ENCODING 9619
SWIDTH 369 0
DWIDTH 8 0
BBX 8 18 0 -4
BITMAP
DD
77
DD
77
DD
77
DD
77
DD
77
DD
77
DD
77
DD
77
DD
77
ENDCHAR
STARTCHAR filledbox
ENCODING 9632
SWIDTH 369 0
DWIDTH 8 0
BBX 8 18 0 -4
BITMAP
00
00
00
00
00
00
3E
3E
3E
3E
3E
00
00
00
00
00
00
00
ENDCHAR
STARTCHAR H22073
ENCODING 9633
SWIDTH 369 0
DWIDTH 8 0
BBX 8 18 0 -4
BITMAP
00
00
00
3E
22
22
22
22
22
22
22
22
22
3E
00
00
00
00
ENDCHAR
STARTCHAR filledrect
ENCODING 9644
SWIDTH 369 0
DWIDTH 8 0
BBX 8 18 0 -4
BITMAP
00
00
00
00
00
00
00
7F
7F
7F
7F
00
00
00
00
00
00
00
ENDCHAR
STARTCHAR triagup
ENCODING 9650
SWIDTH 369 0
DWIDTH 8 0
BBX 8 18 0 -4
BITMAP
00
00
00
00
08
1C
1C
3E
3E
7F
7F
00
00
00
00
00
00
00
ENDCHAR
STARTCHAR triagrt
ENCODING 9658
SWIDTH 369 0
DWIDTH 8 0
BBX 8 18 0 -4
BITMAP
00
00
00
00
20
30
38
3C
3E
3C
38
30
20
00
00
00
00
00
ENDCHAR
STARTCHAR triagdn
ENCODING 9660
SWIDTH 369 0
DWIDTH 8 0
BBX 8 18 0 -4
BITMAP
00
00
00
00
7F
7F
3E
3E
1C
1C
08
00
00
00
00
00
00
00
ENDCHAR
STARTCHAR triaglf
ENCODING 9668
SWIDTH 369 0
DWIDTH 8 0
BBX 8 18 0 -4
BITMAP
00
00
00
00
04
0C
1C
3C
7C
3C
1C
0C
04
00
00
00
00
00
ENDCHAR
STARTCHAR circle
ENCODING 9675
SWIDTH 369 0
DWIDTH 8 0
BBX 8 18 0 -4
BITMAP
00
00
00
00
00
00
18
24
42
42
24
18
00
00
00
00
00
00
ENDCHAR
STARTCHAR H18533
ENCODING 9679
SWIDTH 369 0
DWIDTH 8 0
BBX 8 18 0 -4
BITMAP
00
00
00
00
00
00
00
18
3C
3C
18
00
00
00
00
00
00
00
ENDCHAR
STARTCHAR invbullet
ENCODING 9688
SWIDTH 369 0
DWIDTH 8 0
BBX 8 18 0 -4
BITMAP
FF
FF
FF
FF
FF
FF
FF
E7
C3
C3
E7
FF
FF
FF
FF
FF
FF
FF
ENDCHAR
STARTCHAR invcircle
ENCODING 9689
SWIDTH 369 0
DWIDTH 8 0
BBX 8 18 0 -4
BITMAP
FF
FF
FF
FF
FF
FF
E7
DB
BD
BD
DB
E7
FF
FF
FF
FF
FF
FF
ENDCHAR
STARTCHAR smileface
ENCODING 9786
SWIDTH 369 0
DWIDTH 8 0
BBX 8 18 0 -4
BITMAP
00
00
00
1C
22
41
55
41
41
63
5D
41
22
1C
00
00
00
00
ENDCHAR
STARTCHAR invsmileface
ENCODING 9787
SWIDTH 369 0
DWIDTH 8 0
BBX 8 18 0 -4
BITMAP
00
00
00
1C
3E
7F
6B
7F
7F
5D
63
7F
3E
1C
00
00
00
00
ENDCHAR
STARTCHAR sun
ENCODING 9788
SWIDTH 369 0
DWIDTH 8 0
BBX 8 18 0 -4
BITMAP
00
00
00
00
08
49
3E
22
63
22
3E
49
08
00
00
00
00
00
ENDCHAR
STARTCHAR female
ENCODING 9792
SWIDTH 369 0
DWIDTH 8 0
BBX 8 18 0 -4
BITMAP
00
00
00
3C
66
66
66
66
3C
18
18
7E
18
18
00
00
00
00
ENDCHAR
STARTCHAR male
ENCODING 9794
SWIDTH 369 0
DWIDTH 8 0
BBX 8 18 0 -4
BITMAP
00
00
00
1F
07
0D
19
18
3C
66
66
66
66
3C
00
00
00
00
ENDCHAR
STARTCHAR spade
ENCODING 9824
SWIDTH 369 0
DWIDTH 8 0
BBX 8 18 0 -4
BITMAP
00
00
00
00
00
08
1C
3E
7F
7F
7F
2A
08
1C
00
00
00
00
ENDCHAR
STARTCHAR uni2662
ENCODING 9826
SWIDTH 369 0
DWIDTH 8 0
BBX 8 18 0 -4
BITMAP
00
00
00
00
00
08
1C
36
63
41
63
36
1C
08
00
00
00
00
ENDCHAR
STARTCHAR club
ENCODING 9827
SWIDTH 369 0
DWIDTH 8 0
BBX 8 18 0 -4
BITMAP
00
00
00
00
00
1C
1C
1C
77
77
77
08
08
1C
00
00
00
00
ENDCHAR
STARTCHAR heart
ENCODING 9829
SWIDTH 369 0
DWIDTH 8 0
BBX 8 18 0 -4
BITMAP
00
00
00
00
00
00
00
36
7F
7F
7F
3E
1C
08
00
00
00
00
ENDCHAR
STARTCHAR diamond
ENCODING 9830
SWIDTH 369 0
DWIDTH 8 0
BBX 8 18 0 -4
BITMAP
00
00
00
00
00
00
08
1C
3E
7F
7F
3E
1C
08
00
00
00
00
ENDCHAR
STARTCHAR musicalnote
ENCODING 9834
SWIDTH 369 0
DWIDTH 8 0
BBX 8 18 0 -4
BITMAP
00
00
08
0C
0E
0B
08
08
08
08
18
38
38
30
00
00
00
00
ENDCHAR
STARTCHAR musicalnotedbl
ENCODING 9835
SWIDTH 369 0
DWIDTH 8 0
BBX 8 18 0 -4
BITMAP
00
00
00
1F
1F
11
11
11
11
11
11
33
77
66
00
00
00
00
ENDCHAR
STARTCHAR uniFB01
ENCODING 64257
SWIDTH 369 0
DWIDTH 8 0
BBX 8 18 0 -4
BITMAP
00
00
00
1E
30
30
FF
33
33
33
33
33
33
33
00
00
00
00
ENDCHAR
STARTCHAR uniFB02
ENCODING 64258
SWIDTH 369 0
DWIDTH 8 0
BBX 8 18 0 -4
BITMAP
00
00
00
1F
33
33
FF
33
33
33
33
33
33
33
00
00
00
00
ENDCHAR
STARTCHAR uniFE7C
ENCODING 65148
SWIDTH 369 0
DWIDTH 8 0
BBX 8 18 0 -4
BITMAP
2A
3E
36
00
00
00
00
00
00
00
00
00
00
00
00
00
00
00
ENDCHAR
STARTCHAR uniFE7D
ENCODING 65149
SWIDTH 369 0
DWIDTH 8 0
BBX 8 18 0 -4
BITMAP
2A
3E
36
00
00
00
00
00
00
FF
FF
00
00
00
00
00
00
00
ENDCHAR
STARTCHAR uniFE80
ENCODING 65152
SWIDTH 369 0
DWIDTH 8 0
BBX 8 18 0 -4
BITMAP
00
00
00
00
00
00
1C
34
30
3E
1C
30
00
00
00
00
00
00
ENDCHAR
STARTCHAR uniFE81
ENCODING 65153
SWIDTH 369 0
DWIDTH 8 0
BBX 8 18 0 -4
BITMAP
14
28
00
08
18
18
18
18
18
18
18
10
00
00
00
00
00
00
ENDCHAR
STARTCHAR uniFE82
ENCODING 65154
SWIDTH 369 0
DWIDTH 8 0
BBX 8 18 0 -4
BITMAP
28
50
00
10
30
30
30
30
30
3F
1F
00
00
00
00
00
00
00
ENDCHAR
STARTCHAR uniFE83
ENCODING 65155
SWIDTH 369 0
DWIDTH 8 0
BBX 8 18 0 -4
BITMAP
30
60
30
48
18
18
18
18
18
18
18
10
00
00
00
00
00
00
ENDCHAR
STARTCHAR uniFE84
ENCODING 65156
SWIDTH 369 0
DWIDTH 8 0
BBX 8 18 0 -4
BITMAP
60
C0
60
90
30
30
30
30
30
3F
1F
00
00
00
00
00
00
00
ENDCHAR
STARTCHAR uniFE85
ENCODING 65157
SWIDTH 369 0
DWIDTH 8 0
BBX 8 18 0 -4
BITMAP
00
00
18
30
1C
30
06
0F
0B
0F
07
03
47
3E
1C
00
00
00
ENDCHAR
STARTCHAR uniFE8B
ENCODING 65163
SWIDTH 369 0
DWIDTH 8 0
BBX 8 18 0 -4
BITMAP
00
00
0C
18
0E
18
01
03
03
FF
FE
00
00
00
00
00
00
00
ENDCHAR
STARTCHAR uniFE8D
ENCODING 65165
SWIDTH 369 0
DWIDTH 8 0
BBX 8 18 0 -4
BITMAP
00
08
18
18
18
18
18
18
18
18
18
10
00
00
00
00
00
00
ENDCHAR
STARTCHAR uniFE8E
ENCODING 65166
SWIDTH 369 0
DWIDTH 8 0
BBX 8 18 0 -4
BITMAP
00
10
30
30
30
30
30
30
30
3F
1F
00
00
00
00
00
00
00
ENDCHAR
STARTCHAR uniFE8F
ENCODING 65167
SWIDTH 369 0
DWIDTH 8 0
BBX 8 18 0 -4
BITMAP
00
00
00
00
00
00
01
43
C3
FF
7E
00
18
18
00
00
00
00
ENDCHAR
STARTCHAR uniFE91
ENCODING 65169
SWIDTH 369 0
DWIDTH 8 0
BBX 8 18 0 -4
BITMAP
00
00
00
00
00
00
01
03
03
FF
FE
00
18
18
00
00
00
00
ENDCHAR
STARTCHAR uniFE93
ENCODING 65171
SWIDTH 369 0
DWIDTH 8 0
BBX 8 18 0 -4
BITMAP
00
36
36
00
00
0C
0E
1B
1B
1F
0F
00
00
00
00
00
00
00
ENDCHAR
STARTCHAR uniFE95
ENCODING 65173
SWIDTH 369 0
DWIDTH 8 0
BBX 8 18 0 -4
BITMAP
00
00
00
00
36
36
01
43
C3
FF
7E
00
00
00
00
00
00
00
ENDCHAR
STARTCHAR uniFE97
ENCODING 65175
SWIDTH 369 0
DWIDTH 8 0
BBX 8 18 0 -4
BITMAP
00
00
00
00
36
36
01
03
03
FF
FE
00
00
00
00
00
00
00
ENDCHAR
STARTCHAR uniFE99
ENCODING 65177
SWIDTH 369 0
DWIDTH 8 0
BBX 8 18 0 -4
BITMAP
00
00
18
18
36
36
01
43
C3
FF
7E
00
00
00
00
00
00
00
ENDCHAR
STARTCHAR uniFE9B
ENCODING 65179
SWIDTH 369 0
DWIDTH 8 0
BBX 8 18 0 -4
BITMAP
00
00
30
30
6C
6C
01
03
03
FF
FE
00
00
00
00
00
00
00
ENDCHAR
STARTCHAR uniFE9D
ENCODING 65181
SWIDTH 369 0
DWIDTH 8 0
BBX 8 18 0 -4
BITMAP
00
00
00
00
00
00
00
78
FF
9F
30
60
CC
CC
C0
E1
7F
3E
ENDCHAR
STARTCHAR uniFE9F
ENCODING 65183
SWIDTH 369 0
DWIDTH 8 0
BBX 8 18 0 -4
BITMAP
00
00
00
00
00
00
1C
3E
07
FF
FC
00
18
18
00
00
00
00
ENDCHAR
STARTCHAR uniFEA1
ENCODING 65185
SWIDTH 369 0
DWIDTH 8 0
BBX 8 18 0 -4
BITMAP
00
00
00
00
00
00
00
78
FF
9F
30
60
C0
C0
C0
E1
7F
3E
ENDCHAR
STARTCHAR uniFEA3
ENCODING 65187
SWIDTH 369 0
DWIDTH 8 0
BBX 8 18 0 -4
BITMAP
00
00
00
00
00
00
1C
3E
07
FF
FC
00
00
00
00
00
00
00
ENDCHAR
STARTCHAR uniFEA5
ENCODING 65189
SWIDTH 369 0
DWIDTH 8 0
BBX 8 18 0 -4
BITMAP
00
00
00
00
0C
0C
00
78
FF
9F
30
60
C0
C0
C0
E1
7F
3E
ENDCHAR
STARTCHAR uniFEA7
ENCODING 65191
SWIDTH 369 0
DWIDTH 8 0
BBX 8 18 0 -4
BITMAP
00
00
18
18
00
00
1C
3E
07
FF
FC
00
00
00
00
00
00
00
ENDCHAR
STARTCHAR uniFEA9
ENCODING 65193
SWIDTH 369 0
DWIDTH 8 0
BBX 8 18 0 -4
BITMAP
00
00
00
00
00
02
07
03
11
1F
1F
00
00
00
00
00
00
00
ENDCHAR
STARTCHAR uniFEAB
ENCODING 65195
SWIDTH 369 0
DWIDTH 8 0
BBX 8 18 0 -4
BITMAP
00
00
0C
0C
00
02
07
03
11
1F
1F
00
00
00
00
00
00
00
ENDCHAR
STARTCHAR uniFEAD
ENCODING 65197
SWIDTH 369 0
DWIDTH 8 0
BBX 8 18 0 -4
BITMAP
00
00
00
00
00
00
00
02
03
03
01
03
47
3E
1C
00
00
00
ENDCHAR
STARTCHAR uniFEAF
ENCODING 65199
SWIDTH 369 0
DWIDTH 8 0
BBX 8 18 0 -4
BITMAP
00
00
00
00
06
06
00
02
03
03
01
03
47
3E
1C
00
00
00
ENDCHAR
STARTCHAR uniFEB1
ENCODING 65201
SWIDTH 369 0
DWIDTH 8 0
BBX 8 18 0 -4
BITMAP
00
00
00
00
00
00
01
2D
6D
7F
7B
20
20
60
E0
C0
00
00
ENDCHAR
STARTCHAR uniFEB3
ENCODING 65203
SWIDTH 369 0
DWIDTH 8 0
BBX 8 18 0 -4
BITMAP
00
00
00
00
00
00
01
15
35
FF
DB
00
00
00
00
00
00
00
ENDCHAR
STARTCHAR uniFEB5
ENCODING 65205
SWIDTH 369 0
DWIDTH 8 0
BBX 8 18 0 -4
BITMAP
00
00
18
18
36
36
01
25
6D
7F
7A
20
20
60
E0
C0
00
00
ENDCHAR
STARTCHAR uniFEB7
ENCODING 65207
SWIDTH 369 0
DWIDTH 8 0
BBX 8 18 0 -4
BITMAP
00
00
18
18
36
36
01
15
35
FF
DB
00
00
00
00
00
00
00
ENDCHAR
STARTCHAR uniFEB9
ENCODING 65209
SWIDTH 369 0
DWIDTH 8 0
BBX 8 18 0 -4
BITMAP
00
00
00
00
00
00
06
2F
79
7F
3E
20
20
60
E0
C0
00
00
ENDCHAR
STARTCHAR uniFEBB
ENCODING 65211
SWIDTH 369 0
DWIDTH 8 0
BBX 8 18 0 -4
BITMAP
00
00
00
00
00
00
06
2F
39
FF
FF
00
00
00
00
00
00
00
ENDCHAR
STARTCHAR uniFEBD
ENCODING 65213
SWIDTH 369 0
DWIDTH 8 0
BBX 8 18 0 -4
BITMAP
00
00
00
0C
0C
00
06
2F
79
7F
3E
20
20
60
E0
C0
00
00
ENDCHAR
STARTCHAR uniFEBF
ENCODING 65215
SWIDTH 369 0
DWIDTH 8 0
BBX 8 18 0 -4
BITMAP
00
00
00
0C
0C
00
06
2F
39
FF
FF
00
00
00
00
00
00
00
ENDCHAR
STARTCHAR uniFEC1
ENCODING 65217
SWIDTH 369 0
DWIDTH 8 0
BBX 8 18 0 -4
BITMAP
00
10
30
30
30
30
36
3F
39
FF
FF
00
00
00
00
00
00
00
ENDCHAR
STARTCHAR uniFEC5
ENCODING 65221
SWIDTH 369 0
DWIDTH 8 0
BBX 8 18 0 -4
BITMAP
00
10
30
36
36
30
36
3F
39
FF
FF
00
00
00
00
00
00
00
ENDCHAR
STARTCHAR uniFEC9
ENCODING 65225
SWIDTH 369 0
DWIDTH 8 0
BBX 8 18 0 -4
BITMAP
00
00
00
00
00
0C
1E
30
38
1E
3C
60
C0
C0
C0
E1
7F
3E
ENDCHAR
STARTCHAR uniFECA
ENCODING 65226
SWIDTH 369 0
DWIDTH 8 0
BBX 8 18 0 -4
BITMAP
00
00
00
00
00
38
7C
64
3C
1F
37
60
C0
C0
C0
E1
7F
3E
ENDCHAR
STARTCHAR uniFECB
ENCODING 65227
SWIDTH 369 0
DWIDTH 8 0
BBX 8 18 0 -4
BITMAP
00
00
00
00
00
0C
1E
30
38
FF
FF
00
00
00
00
00
00
00
ENDCHAR
STARTCHAR uniFECC
ENCODING 65228
SWIDTH 369 0
DWIDTH 8 0
BBX 8 18 0 -4
BITMAP
00
00
00
00
00
1C
3E
36
1C
FF
F7
00
00
00
00
00
00
00
ENDCHAR
STARTCHAR uniFECD
ENCODING 65229
SWIDTH 369 0
DWIDTH 8 0
BBX 8 18 0 -4
BITMAP
00
00
18
18
00
0C
1E
30
38
1E
3C
60
C0
C0
C0
E1
7F
3E
ENDCHAR
STARTCHAR uniFECE
ENCODING 65230
SWIDTH 369 0
DWIDTH 8 0
BBX 8 18 0 -4
BITMAP
00
30
30
00
00
38
7C
64
3C
1F
37
60
C0
C0
C0
E1
7F
3E
ENDCHAR
STARTCHAR uniFECF
ENCODING 65231
SWIDTH 369 0
DWIDTH 8 0
BBX 8 18 0 -4
BITMAP
00
00
18
18
00
0C
1E
30
38
FF
FF
00
00
00
00
00
00
00
ENDCHAR
STARTCHAR uniFED0
ENCODING 65232
SWIDTH 369 0
DWIDTH 8 0
BBX 8 18 0 -4
BITMAP
00
18
18
00
00
1C
3E
36
1C
FF
F7
00
00
00
00
00
00
00
ENDCHAR
STARTCHAR uniFED1
ENCODING 65233
SWIDTH 369 0
DWIDTH 8 0
BBX 8 18 0 -4
BITMAP
00
00
0C
0C
00
06
0F
4D
C7
FF
7E
00
00
00
00
00
00
00
ENDCHAR
STARTCHAR uniFED3
ENCODING 65235
SWIDTH 369 0
DWIDTH 8 0
BBX 8 18 0 -4
BITMAP
00
00
0C
0C
00
06
0F
0D
07
FF
FE
00
00
00
00
00
00
00
ENDCHAR
STARTCHAR uniFED5
ENCODING 65237
SWIDTH 369 0
DWIDTH 8 0
BBX 8 18 0 -4
BITMAP
00
00
00
1B
1B
00
06
0F
09
2F
47
43
67
7E
3C
00
00
00
ENDCHAR
STARTCHAR uniFED7
ENCODING 65239
SWIDTH 369 0
DWIDTH 8 0
BBX 8 18 0 -4
BITMAP
00
00
1B
1B
00
06
0F
0D
07
FF
FE
00
00
00
00
00
00
00
ENDCHAR
STARTCHAR uniFED9
ENCODING 65241
SWIDTH 369 0
DWIDTH 8 0
BBX 8 18 0 -4
BITMAP
00
01
03
33
23
73
03
43
C3
FF
7E
00
00
00
00
00
00
00
ENDCHAR
STARTCHAR uniFEDB
ENCODING 65243
SWIDTH 369 0
DWIDTH 8 0
BBX 8 18 0 -4
BITMAP
00
00
01
03
06
0C
1C
06
03
FF
FF
00
00
00
00
00
00
00
ENDCHAR
STARTCHAR uniFEDD
ENCODING 65245
SWIDTH 369 0
DWIDTH 8 0
BBX 8 18 0 -4
BITMAP
00
01
03
03
03
03
03
03
03
23
43
43
67
7E
3C
00
00
00
ENDCHAR
STARTCHAR uniFEDF
ENCODING 65247
SWIDTH 369 0
DWIDTH 8 0
BBX 8 18 0 -4
BITMAP
00
01
03
03
03
03
03
03
03
FF
FE
00
00
00
00
00
00
00
ENDCHAR
STARTCHAR uniFEE1
ENCODING 65249
SWIDTH 369 0
DWIDTH 8 0
BBX 8 18 0 -4
BITMAP
00
00
00
00
00
00
06
0F
03
1F
3F
30
30
30
18
18
18
08
ENDCHAR
STARTCHAR uniFEE3
ENCODING 65251
SWIDTH 369 0
DWIDTH 8 0
BBX 8 18 0 -4
BITMAP
00
00
00
00
00
00
00
06
0F
FB
FF
0E
00
00
00
00
00
00
ENDCHAR
STARTCHAR uniFEE5
ENCODING 65253
SWIDTH 369 0
DWIDTH 8 0
BBX 8 18 0 -4
BITMAP
00
00
00
00
0C
0C
00
02
03
23
41
43
67
7E
3C
00
00
00
ENDCHAR
STARTCHAR uniFEE7
ENCODING 65255
SWIDTH 369 0
DWIDTH 8 0
BBX 8 18 0 -4
BITMAP
00
00
00
00
0C
0C
01
03
03
FF
FE
00
00
00
00
00
00
00
ENDCHAR
STARTCHAR uniFEE9
ENCODING 65257
SWIDTH 369 0
DWIDTH 8 0
BBX 8 18 0 -4
BITMAP
00
00
00
00
00
0C
0E
1B
1B
1F
0F
00
00
00
00
00
00
00
ENDCHAR
STARTCHAR uniFEEB
ENCODING 65259
SWIDTH 369 0
DWIDTH 8 0
BBX 8 18 0 -4
BITMAP
00
00
00
00
00
3C
1E
1F
2B
F9
FF
0E
00
00
00
00
00
00
ENDCHAR
STARTCHAR uniFEEC
ENCODING 65260
SWIDTH 369 0
DWIDTH 8 0
BBX 8 18 0 -4
BITMAP
00
00
00
00
04
0E
1E
16
3C
FF
FF
26
3E
1C
00
00
00
00
ENDCHAR
STARTCHAR uniFEED
ENCODING 65261
SWIDTH 369 0
DWIDTH 8 0
BBX 8 18 0 -4
BITMAP
00
00
00
00
00
00
06
0F
0B
0F
07
03
47
3E
1C
00
00
00
ENDCHAR
STARTCHAR uniFEEF
ENCODING 65263
SWIDTH 369 0
DWIDTH 8 0
BBX 8 18 0 -4
BITMAP
00
00
00
00
00
00
03
07
0C
0E
47
83
87
FE
7C
00
00
00
ENDCHAR
STARTCHAR uniFEF0
ENCODING 65264
SWIDTH 369 0
DWIDTH 8 0
BBX 8 18 0 -4
BITMAP
00
00
00
00
00
00
00
00
00
0F
4F
83
87
FE
7C
00
00
00
ENDCHAR
STARTCHAR uniFEF1
ENCODING 65265
SWIDTH 369 0
DWIDTH 8 0
BBX 8 18 0 -4
BITMAP
00
00
00
00
00
00
03
07
0C
0E
47
83
87
FE
7C
00
6C
6C
ENDCHAR
STARTCHAR uniFEF2
ENCODING 65266
SWIDTH 369 0
DWIDTH 8 0
BBX 8 18 0 -4
BITMAP
00
00
00
00
00
00
00
00
00
0F
4F
83
87
FE
7C
00
6C
6C
ENDCHAR
STARTCHAR uniFEF3
ENCODING 65267
SWIDTH 369 0
DWIDTH 8 0
BBX 8 18 0 -4
BITMAP
00
00
00
00
00
00
01
03
03
FF
FE
00
36
36
00
00
00
00
ENDCHAR
STARTCHAR uniFEF5
ENCODING 65269
SWIDTH 369 0
DWIDTH 8 0
BBX 8 18 0 -4
BITMAP
00
2A
53
03
62
72
3A
0E
04
1A
3E
3C
00
00
00
00
00
00
ENDCHAR
STARTCHAR uniFEF6
ENCODING 65270
SWIDTH 369 0
DWIDTH 8 0
BBX 8 18 0 -4
BITMAP
00
29
53
03
63
73
3B
0B
0F
1D
79
00
00
00
00
00
00
00
ENDCHAR
STARTCHAR uniFEF7
ENCODING 65271
SWIDTH 369 0
DWIDTH 8 0
BBX 8 18 0 -4
BITMAP
18
32
1B
23
62
72
3A
0E
04
1A
3E
3C
00
00
00
00
00
00
ENDCHAR
STARTCHAR uniFEF8
ENCODING 65272
SWIDTH 369 0
DWIDTH 8 0
BBX 8 18 0 -4
BITMAP
18
31
1B
23
63
73
3B
0B
0F
1D
79
00
00
00
00
00
00
00
ENDCHAR
STARTCHAR uniFEFB
ENCODING 65275
SWIDTH 369 0
DWIDTH 8 0
BBX 8 18 0 -4
BITMAP
00
02
03
43
62
72
1A
0E
04
1A
3E
3C
00
00
00
00
00
00
ENDCHAR
STARTCHAR uniFEFC
ENCODING 65276
SWIDTH 369 0
DWIDTH 8 0
BBX 8 18 0 -4
BITMAP
00
01
03
43
63
73
1B
0B
0F
1D
79
00
00
00
00
00
00
00
ENDCHAR
ENDFONT
